<svg width="121" height="50" viewBox="0 0 121 50" fill="none" xmlns="http://www.w3.org/2000/svg">
    <g clip-path="url(#clip0_6219_29682)">
        <path
            d="M12.7755 23.8016C12.7755 25.5307 12.3392 26.9008 11.4569 27.9071C10.5795 28.9181 9.3937 29.4189 7.89489 29.4189C7.11228 29.4189 6.43876 29.2725 5.87908 28.989C5.31939 28.7008 4.83561 28.2567 4.43719 27.6567V29.0882H0.74707V12.1606H4.43719V19.9843C4.76447 19.337 5.20083 18.8788 5.73204 18.6142C6.26801 18.3496 7.03165 18.2173 8.01821 18.2173C9.43639 18.2173 10.589 18.7276 11.4617 19.748C12.3392 20.7685 12.7755 22.1197 12.7755 23.7969V23.8016ZM8.86248 23.8016C8.86248 22.9937 8.65852 22.3559 8.25536 21.8929C7.84746 21.4299 7.29726 21.1984 6.60003 21.1984C5.95022 21.1984 5.42848 21.4394 5.03008 21.9165C4.6364 22.3937 4.43719 23.0221 4.43719 23.8063C4.43719 24.6378 4.63166 25.2898 5.02059 25.7528C5.40951 26.2158 5.93599 26.4473 6.60003 26.4473C7.26406 26.4473 7.82374 26.2063 8.24113 25.7291C8.65852 25.252 8.86722 24.6095 8.86722 23.8016H8.86248Z"
            fill="#57AF47" />
        <path
            d="M25.349 24.5291H17.8264C17.8264 25.2472 18.0209 25.8189 18.4146 26.2299C18.8035 26.6457 19.3252 26.8535 19.9656 26.8535C20.3687 26.8535 20.7624 26.7449 21.1466 26.5275C21.5308 26.3102 21.8106 26.022 21.9861 25.663L24.8035 26.7921C24.296 27.7417 23.6604 28.4173 22.892 28.8142C22.1284 29.2157 21.1324 29.4142 19.9039 29.4142C18.092 29.4142 16.6928 28.9275 15.7063 27.959C14.7197 26.9905 14.2217 25.6441 14.2217 23.9102C14.2217 22.1764 14.7244 20.8441 15.73 19.7905C16.7355 18.737 18.0825 18.2126 19.7616 18.2126C21.4407 18.2126 22.8636 18.7559 23.8549 19.8472C24.8462 20.9338 25.3442 22.4409 25.3442 24.3638V24.5244L25.349 24.5291ZM21.7395 22.474C21.6731 21.8504 21.4596 21.3638 21.1086 21.0047C20.7529 20.6457 20.2976 20.4709 19.7521 20.4709C19.2067 20.4709 18.7371 20.6646 18.3861 21.0472C18.0304 21.4299 17.8454 21.9071 17.8312 22.474H21.7442H21.7395Z"
            fill="#57AF47" />
        <path d="M31.0506 29.0882H27.2988V12.1606H31.0506V29.0882Z" fill="#57AF47" />
        <path
            d="M37.2635 29.0882H33.5117V18.5433H37.2635V29.0882ZM37.3773 15.5292C37.3773 16.5921 36.5141 17.4567 35.4469 17.4567C34.3797 17.4567 33.5117 16.5921 33.5117 15.5292C33.5117 14.4662 34.3797 13.6063 35.4469 13.6063C36.5141 13.6063 37.3773 14.4662 37.3773 15.5292Z"
            fill="#57AF47" />
        <path
            d="M49.8377 18.5433L44.4686 26.1166H49.3682V29.0929H38.5967L43.667 21.5197H39.2655V18.5481H49.8425L49.8377 18.5433Z"
            fill="#57AF47" />
        <path
            d="M61.852 24.5291H54.3295C54.3295 25.2472 54.524 25.8189 54.9176 26.2299C55.3113 26.6457 55.8283 26.8535 56.4734 26.8535C56.8765 26.8535 57.2702 26.7449 57.6544 26.5275C58.0386 26.3102 58.3232 26.022 58.4939 25.663L61.3113 26.7921C60.7991 27.7417 60.1635 28.4173 59.3998 28.8142C58.6362 29.2157 57.6402 29.4142 56.4117 29.4142C54.5998 29.4142 53.2006 28.9275 52.2141 27.959C51.2228 26.9905 50.7295 25.6441 50.7295 23.9102C50.7295 22.1764 51.2323 20.8441 52.2378 19.7905C53.2433 18.737 54.5856 18.2126 56.2694 18.2126C57.9532 18.2126 59.3714 18.7559 60.3627 19.8472C61.354 20.9338 61.852 22.4409 61.852 24.3638V24.5244V24.5291ZM58.2425 22.474C58.1761 21.8504 57.9627 21.3638 57.607 21.0047C57.2512 20.6457 56.8006 20.4709 56.2504 20.4709C55.7002 20.4709 55.2354 20.6646 54.8844 21.0472C54.5287 21.4299 54.3437 21.9071 54.3295 22.474H58.2425Z"
            fill="#57AF47" />
        <path
            d="M77.6369 23.8016C77.6369 25.5307 77.1958 26.9008 76.3183 27.9071C75.4408 28.9181 74.2503 29.4189 72.7562 29.4189C71.9736 29.4189 71.3001 29.2725 70.7404 28.989C70.1807 28.7008 69.7017 28.2567 69.2985 27.6567V29.0882H65.6084V12.1606H69.2985V19.9843C69.6305 19.337 70.0622 18.8788 70.5934 18.6142C71.1293 18.3496 71.893 18.2173 72.8795 18.2173C74.2977 18.2173 75.4503 18.7276 76.323 19.748C77.2005 20.7685 77.6369 22.1197 77.6369 23.7969V23.8016ZM73.7238 23.8016C73.7238 22.9937 73.5199 22.3559 73.1167 21.8929C72.7088 21.4299 72.1586 21.1984 71.4614 21.1984C70.8116 21.1984 70.2898 21.4394 69.8914 21.9165C69.4977 22.3937 69.2985 23.0221 69.2985 23.8063C69.2985 24.6378 69.493 25.2898 69.8819 25.7528C70.2708 26.2158 70.7973 26.4473 71.4614 26.4473C72.1254 26.4473 72.6851 26.2063 73.1025 25.7291C73.5199 25.252 73.7238 24.6095 73.7238 23.8016Z"
            fill="#0061A7" />
        <path
            d="M91.1116 29.0882H87.4215V27.6567C87.0468 28.2756 86.5772 28.7244 86.008 29.0032C85.4436 29.2819 84.7179 29.4189 83.8452 29.4189C82.4223 29.4189 81.2744 28.9087 80.397 27.8835C79.5243 26.863 79.0879 25.5166 79.0879 23.8394C79.0879 22.1622 79.529 20.7307 80.4065 19.7244C81.2839 18.7181 82.4697 18.2173 83.9685 18.2173C84.7511 18.2173 85.4246 18.3591 85.9843 18.6473C86.544 18.9355 87.0231 19.3748 87.4262 19.9796V18.5386H91.1163V29.0835L91.1116 29.0882ZM87.4215 23.8394C87.4215 23.0032 87.227 22.3559 86.8381 21.8929C86.4492 21.4299 85.9227 21.1984 85.2586 21.1984C84.5946 21.1984 84.0349 21.4347 83.6175 21.9071C83.2049 22.3795 82.9962 23.0268 82.9962 23.8441C82.9962 24.6614 83.2001 25.2803 83.608 25.7481C84.0112 26.2158 84.5614 26.4473 85.2586 26.4473C85.9084 26.4473 86.4302 26.2063 86.8286 25.7292C87.2223 25.252 87.4215 24.6236 87.4215 23.8441V23.8394Z"
            fill="#0061A7" />
        <path
            d="M104.829 29.0881H101.082V23.6078C101.082 22.7149 100.963 22.0866 100.716 21.7322C100.474 21.3732 100.062 21.1936 99.4689 21.1936C98.7859 21.1936 98.2784 21.4913 97.9511 22.0818C97.6238 22.6771 97.4578 23.5889 97.4578 24.822V29.0881H93.7061V18.5432H97.4578V20.3054C97.9321 19.5354 98.4397 18.9968 98.9756 18.685C99.5116 18.3779 100.199 18.222 101.039 18.222C102.395 18.222 103.363 18.6047 103.951 19.3653C104.539 20.1259 104.833 21.3637 104.833 23.0834V29.0928L104.829 29.0881Z"
            fill="#0061A7" />
        <path
            d="M120.016 29.0882H115.069L111.075 24.3921V29.0882H107.323V12.1606H111.075V23.1165L114.926 18.5386H119.584L114.798 23.5843L120.016 29.0835V29.0882Z"
            fill="#0061A7" />
        <path
            d="M69.0845 32.159C69.0845 33.2409 68.3114 34.3701 67.0829 34.3701C66.8648 34.3701 66.4379 34.337 66.1011 34.011C65.7644 33.685 65.6221 33.2504 65.6221 32.7638C65.6221 31.6393 66.4474 30.5764 67.5999 30.5764C68.4679 30.5764 69.0798 31.1622 69.0798 32.159H69.0845ZM66.9549 31.2378C66.509 31.7386 66.1818 32.537 66.1818 33.1323C66.1818 33.8031 66.5375 34.1149 66.9833 34.1149C67.7802 34.1149 68.4821 32.9008 68.4964 31.7338C68.4964 31.1905 68.226 30.8315 67.7375 30.8315C67.4102 30.8315 67.1493 31.0063 66.9549 31.233V31.2378Z"
            fill="#0061A7" />
        <path
            d="M67.0832 34.4599C66.6563 34.4599 66.3053 34.3323 66.0397 34.0772C65.703 33.7512 65.5322 33.3118 65.5322 32.7638C65.5322 31.5071 66.4619 30.4866 67.605 30.4866C68.5583 30.4866 69.1749 31.1433 69.1749 32.1591C69.1749 33.2646 68.3733 34.4599 67.0832 34.4599ZM67.605 30.6662C66.4382 30.6662 65.7172 31.7528 65.7172 32.7638C65.7172 33.2599 65.869 33.6567 66.1678 33.9449C66.3955 34.1669 66.7038 34.2756 67.0832 34.2756C68.2642 34.2756 68.9947 33.1748 68.9947 32.1591C68.9947 31.2378 68.4634 30.6662 67.605 30.6662ZM66.9836 34.2095C66.552 34.2095 66.0872 33.926 66.0872 33.137C66.0872 32.5181 66.4192 31.6961 66.884 31.1811C67.1259 30.8977 67.42 30.7512 67.733 30.7512C68.2595 30.7512 68.582 31.1292 68.582 31.7433C68.5725 32.8866 67.8706 34.2142 66.9789 34.2142L66.9836 34.2095ZM67.733 30.9307C67.4721 30.9307 67.2303 31.0536 67.0168 31.2992C66.5805 31.7858 66.2674 32.5559 66.2674 33.137C66.2674 33.7181 66.533 34.0299 66.9789 34.0299C67.6856 34.0299 68.3876 32.8961 68.397 31.7386C68.397 31.2331 68.1457 30.9307 67.7283 30.9307H67.733Z"
            fill="#0061A7" />
        <path
            d="M71.4468 32.1213C71.4563 32.0882 71.4895 32.0882 71.5227 32.0882H71.8927C71.9496 32.0882 71.9591 32.1071 71.9496 32.1496L71.5701 33.2551C71.4183 33.685 71.3519 33.9024 71.3519 33.9354C71.3519 33.9874 71.3757 34.0016 71.4089 34.0016C71.4847 34.0016 71.6887 33.7984 71.7693 33.6992C71.7788 33.6803 71.8025 33.6803 71.8263 33.6992L71.8927 33.7465C71.8927 33.7465 71.9021 33.7795 71.8927 33.7984C71.8357 33.8835 71.4468 34.3417 70.9867 34.3417C70.8776 34.3417 70.8112 34.2756 70.8112 34.1811C70.8112 34.1055 71.0531 33.4866 71.11 33.3307L71.0721 33.3071C70.8539 33.6142 70.3322 34.3417 69.7962 34.3417C69.6682 34.3417 69.5448 34.2 69.5448 34.0913C69.5448 33.8835 69.6729 33.6047 69.8958 33.1087C70.0476 32.7732 70.1282 32.5181 70.1282 32.4425C70.1282 32.3905 70.0855 32.3575 70.0334 32.3575C69.948 32.3575 69.7393 32.5417 69.6444 32.6504C69.6349 32.674 69.6017 32.674 69.5828 32.6504L69.5259 32.5937C69.5259 32.5937 69.5116 32.5748 69.5259 32.5512C69.6112 32.452 69.9622 32.0315 70.427 32.0315C70.5788 32.0315 70.6547 32.1496 70.6547 32.2583C70.6547 32.3858 70.5551 32.674 70.3464 33.1606C70.2136 33.4772 70.0903 33.7748 70.0903 33.8787C70.0903 33.9307 70.133 33.9638 70.1804 33.9638C70.3654 33.9638 70.9014 33.326 71.0389 33.0992C71.1385 32.948 71.2191 32.8063 71.2903 32.6031L71.4563 32.1165L71.4468 32.1213Z"
            fill="#0061A7" />
        <path
            d="M70.9775 34.4362C70.8209 34.4362 70.7118 34.3323 70.7118 34.1811C70.7118 34.1481 70.7261 34.0819 70.8446 33.7465C70.5743 34.0725 70.1901 34.4362 69.7869 34.4362C69.6067 34.4362 69.4454 34.252 69.4454 34.0961C69.4454 33.874 69.564 33.6095 69.7869 33.1229L69.8059 33.0803C69.9624 32.7402 70.0336 32.504 70.0336 32.452C69.9862 32.4662 69.8249 32.589 69.7016 32.7213C69.6873 32.7638 69.5545 32.7874 69.5024 32.7166L69.4549 32.674C69.4549 32.674 69.3933 32.6079 69.436 32.5229L69.4549 32.4992C69.768 32.1402 70.0905 31.9559 70.4178 31.9559C70.6265 31.9559 70.7403 32.1213 70.7403 32.2772C70.7403 32.4189 70.6454 32.6882 70.4225 33.2173C70.3229 33.4488 70.1759 33.8032 70.1759 33.9024C70.2897 33.8882 70.7735 33.3685 70.9537 33.0756C71.0391 32.9386 71.1245 32.8016 71.1956 32.5985L71.3569 32.1118C71.3854 32.0174 71.485 32.0173 71.5182 32.0173H71.8881C71.945 32.0173 71.9877 32.0362 72.0114 32.0693C72.0352 32.1024 72.0446 32.1449 72.0304 32.1969L71.6462 33.3118C71.5324 33.6378 71.4755 33.8174 71.447 33.9024C71.5182 33.8504 71.6225 33.7465 71.6842 33.6709C71.6984 33.6331 71.7933 33.6 71.8597 33.6473L71.9308 33.6992C71.9782 33.7465 71.9877 33.8079 71.9593 33.8646C71.8786 33.9922 71.4707 34.4599 70.9727 34.4599L70.9775 34.4362ZM71.0771 33.2126L71.2194 33.2929L71.1814 33.3922C70.9443 34.0111 70.9016 34.1528 70.8968 34.1859C70.8968 34.2142 70.9063 34.2567 70.9822 34.2567C71.153 34.2567 71.3142 34.1859 71.4518 34.0914C71.3332 34.1292 71.262 34.0583 71.262 33.9449C71.262 33.926 71.262 33.8693 71.485 33.2362L71.8454 32.1874H71.5277L71.3759 32.6457C71.3 32.8725 71.2051 33.0236 71.115 33.1654C71.1055 33.1796 71.096 33.1937 71.0818 33.2173L71.0771 33.2126ZM70.0336 32.2725C70.1427 32.2725 70.2233 32.3481 70.2233 32.4473C70.2233 32.5512 70.1284 32.8299 69.9814 33.1512L69.9624 33.1937C69.7585 33.6425 69.6399 33.9118 69.6399 34.0914C69.6399 34.1481 69.7205 34.2473 69.7964 34.2473C70.0004 34.2473 70.2043 34.1244 70.3893 33.9591C70.3087 34.0205 70.2328 34.0583 70.1759 34.0583C70.0763 34.0583 69.9956 33.978 69.9956 33.8835C69.9956 33.7607 70.1 33.5055 70.2613 33.1276C70.3893 32.8252 70.5648 32.4048 70.5648 32.2583C70.5648 32.2063 70.5363 32.1213 70.4273 32.1213C70.266 32.1213 70.1047 32.178 69.9387 32.2914C69.9719 32.2725 70.0099 32.263 70.0383 32.263L70.0336 32.2725Z"
            fill="#0061A7" />
        <path
            d="M72.4576 34.2898C72.4244 34.2898 72.4007 34.2662 72.4149 34.2473L72.6853 33.3685C72.7659 33.0992 72.9462 32.5465 72.9462 32.4473C72.9462 32.4048 72.9035 32.3622 72.8465 32.3622C72.7469 32.3622 72.5335 32.5701 72.4576 32.6741C72.4434 32.6977 72.4244 32.6977 72.4007 32.6882L72.3343 32.6457C72.3343 32.6457 72.3248 32.6126 72.3343 32.589C72.4292 32.4284 72.7469 32.0363 73.1928 32.0363C73.3541 32.0363 73.411 32.1449 73.411 32.2441C73.411 32.3433 73.3161 32.6221 73.1928 32.9811L73.226 33.0048C73.3683 32.7024 73.7525 32.041 74.113 32.041C74.2647 32.041 74.3975 32.1496 74.3975 32.3103C74.3975 32.4709 74.2647 32.6126 74.1699 32.6126C74.1035 32.6126 74.0513 32.6032 74.0086 32.5701C73.9659 32.537 73.9327 32.504 73.8568 32.504C73.705 32.504 73.3967 32.9481 73.2355 33.2646C73.1786 33.3827 73.1216 33.5244 73.06 33.704L72.875 34.2567C72.875 34.2567 72.8418 34.2898 72.8086 34.2898H72.4481H72.4576Z"
            fill="#0061A7" />
        <path
            d="M72.8133 34.3795H72.4528C72.4007 34.3795 72.358 34.3559 72.3343 34.3181C72.3105 34.285 72.3105 34.2425 72.3248 34.2047L72.6426 33.1748C72.7137 32.9433 72.8465 32.5181 72.8465 32.4472C72.7896 32.4567 72.6046 32.6126 72.524 32.726C72.4955 32.7732 72.4244 32.7968 72.3532 32.7685L72.2773 32.7165C72.2252 32.6645 72.2204 32.6031 72.2441 32.5464C72.2821 32.4756 72.6236 31.9417 73.188 31.9417C73.4015 31.9417 73.4963 32.0929 73.4963 32.2393C73.4963 32.2771 73.4868 32.3338 73.4679 32.4094C73.6434 32.1685 73.871 31.9417 74.1129 31.9417C74.3216 31.9417 74.4876 32.1023 74.4876 32.3008C74.4876 32.4992 74.3264 32.6929 74.1698 32.6929C74.0797 32.6929 74.0133 32.674 73.9564 32.6315C73.9042 32.5937 73.8947 32.5842 73.8568 32.5842C73.7714 32.5937 73.5058 32.9244 73.3161 33.2929C73.2734 33.3779 73.2117 33.5197 73.1453 33.7228L72.9604 34.2756C72.9461 34.3086 72.9082 34.3701 72.8086 34.3701L72.8133 34.3795ZM72.5192 34.2H72.7991L72.9746 33.6756C73.041 33.4677 73.1074 33.3165 73.1548 33.222C73.1548 33.222 73.1785 33.1701 73.2212 33.1039L73.0837 33.0189L73.1311 32.8724C73.226 32.5842 73.3161 32.3149 73.3161 32.2393C73.3161 32.126 73.2212 32.126 73.1928 32.126C72.9698 32.126 72.7849 32.2346 72.652 32.3527C72.7185 32.3055 72.7849 32.2724 72.8418 32.2724C72.9461 32.2724 73.0315 32.3527 73.0315 32.4472C73.0315 32.5275 72.9604 32.7638 72.8181 33.2315L72.5192 34.2ZM74.1177 32.1307C73.9374 32.1307 73.724 32.3622 73.5485 32.6267C73.6528 32.5086 73.7619 32.4142 73.8568 32.4142C73.9517 32.4142 74.0086 32.4567 74.0465 32.485C74.0845 32.5134 74.1177 32.5228 74.1698 32.5228C74.2078 32.5228 74.3074 32.4283 74.3074 32.3102C74.3074 32.1921 74.2078 32.1307 74.1177 32.1307Z"
            fill="#0061A7" />
        <path
            d="M79.155 31.9559C79.1455 31.989 79.1313 31.9984 79.1028 31.989L78.9937 31.9795C78.9937 31.9795 78.9605 31.9654 78.9605 31.9228C79.0506 31.3937 78.8182 30.8173 78.1969 30.8173C77.8174 30.8173 77.5234 30.9921 77.2198 31.4362C76.8072 32.0315 76.6886 32.7024 76.6886 33.1276C76.6886 33.8835 77.1771 34.1102 77.4617 34.1102C77.8744 34.1102 78.4151 33.9827 78.7898 33.1701C78.8087 33.137 78.823 33.1276 78.8419 33.137L78.951 33.1701C78.9842 33.1795 78.9842 33.1937 78.9842 33.2126L78.5906 34.3843C78.5906 34.3843 78.5668 34.4173 78.5384 34.4079L78.4293 34.3843C78.4293 34.3843 78.4056 34.3654 78.4198 34.3417C78.4198 34.3087 78.4293 34.2756 78.4293 34.2425C78.4293 34.2 78.3961 34.1575 78.3534 34.1575C78.2965 34.1575 78.2206 34.1811 78.1257 34.2236C78.0166 34.2756 77.6562 34.3748 77.3763 34.3748C76.5605 34.3748 75.9961 33.8646 75.9961 33.0992C75.9961 32.3339 76.2665 31.7528 76.7692 31.2095C77.1297 30.8173 77.6182 30.5811 78.1732 30.5811C78.434 30.5811 78.6617 30.6378 78.8894 30.789C78.9558 30.841 79.0649 30.9307 79.1408 30.9307C79.2166 30.9307 79.2593 30.8882 79.2831 30.789C79.2925 30.7559 79.3163 30.7465 79.3352 30.7559L79.4253 30.7795C79.4585 30.7795 79.468 30.7984 79.4585 30.8362L79.1645 31.9606L79.155 31.9559Z"
            fill="#0061A7" />
        <path
            d="M78.5565 34.4977L78.5043 34.4882L78.381 34.4646L78.3621 34.4457C78.3146 34.3984 78.3146 34.3559 78.3241 34.3181C78.3241 34.304 78.3289 34.2851 78.3336 34.2709C78.3336 34.2614 78.3336 34.252 78.3336 34.2378C78.3194 34.2378 78.2624 34.252 78.1628 34.2992C78.049 34.3559 77.6743 34.4599 77.3707 34.4599C76.5028 34.4599 75.9004 33.8977 75.9004 33.0945C75.9004 32.3481 76.1518 31.7292 76.6972 31.1433C77.0862 30.7181 77.6079 30.4866 78.1676 30.4866C78.4617 30.4866 78.7083 30.5575 78.936 30.7087C79.0688 30.8173 79.1162 30.8362 79.1352 30.8362C79.1541 30.8362 79.1731 30.8362 79.1873 30.7654C79.2158 30.6851 79.268 30.6567 79.3154 30.6567L79.3628 30.6662L79.4387 30.6851C79.4672 30.6803 79.5004 30.704 79.5241 30.7323C79.5383 30.7512 79.5573 30.7937 79.5383 30.8551L79.2443 31.9748C79.2158 32.0646 79.1541 32.0788 79.1209 32.0788L78.9834 32.0646C78.9834 32.0646 78.8696 32.0551 78.8696 31.9181C78.9217 31.5969 78.8553 31.304 78.6988 31.1197C78.5755 30.978 78.4095 30.9071 78.196 30.9071C77.8356 30.9071 77.5747 31.0772 77.2949 31.4835C76.8158 32.178 76.7779 32.915 76.7779 33.1229C76.7779 33.8315 77.2237 34.0158 77.4609 34.0158C77.8213 34.0158 78.3383 33.9213 78.7036 33.1276C78.7273 33.0898 78.7605 33.0378 78.8269 33.0378H78.8458L78.9739 33.0756C79.064 33.104 79.0735 33.1606 79.0735 33.2032V33.2315L78.6751 34.4032C78.6372 34.4788 78.5897 34.4929 78.5565 34.4929V34.4977ZM78.5091 34.304H78.5186L78.8743 33.241H78.8553C78.547 33.8835 78.0917 34.2 77.4561 34.2C77.1099 34.2 76.5929 33.9118 76.5929 33.1276C76.5929 32.9055 76.6308 32.1213 77.1431 31.3843C77.4561 30.9213 77.7739 30.7276 78.196 30.7276C78.4569 30.7276 78.6798 30.8221 78.8364 31.0063C79.0213 31.2236 79.102 31.5496 79.0545 31.8945H79.0735L79.3391 30.8788C79.2917 30.9921 79.2016 31.0158 79.1304 31.0158C79.0308 31.0158 78.9265 30.9355 78.8221 30.8551C78.6277 30.7276 78.4237 30.6709 78.1628 30.6709C77.6553 30.6709 77.181 30.8835 76.8253 31.2709C76.313 31.8236 76.0759 32.4047 76.0759 33.0992C76.0759 33.7937 76.5929 34.2803 77.366 34.2803C77.6364 34.2803 77.9779 34.1858 78.0775 34.1386C78.1866 34.0866 78.2719 34.063 78.3431 34.063C78.4332 34.063 78.5091 34.1433 78.5091 34.2378C78.5091 34.2567 78.5091 34.2756 78.5043 34.2992L78.5091 34.304Z"
            fill="#0061A7" />
        <path
            d="M79.4814 33.6C79.4814 33.1465 79.6332 32.7118 79.9415 32.3811C80.155 32.1449 80.4206 32.0363 80.7146 32.0363C81.0324 32.0363 81.3882 32.23 81.3882 32.7213C81.3882 33.0662 81.2459 33.6284 80.9186 33.9874C80.7146 34.2237 80.4633 34.3465 80.136 34.3465C79.8087 34.3465 79.4814 34.1008 79.4814 33.6048V33.6ZM80.6767 33.5433C80.8759 33.2032 81.0467 32.7544 81.0467 32.5607C81.0467 32.4426 80.9708 32.3197 80.8095 32.3197C80.5866 32.3197 80.3779 32.5087 80.1123 32.9528C79.9368 33.2552 79.8229 33.5811 79.8229 33.7985C79.8229 33.9449 79.932 34.0536 80.0506 34.0536C80.2641 34.0536 80.4585 33.9024 80.672 33.5481L80.6767 33.5433Z"
            fill="#0061A7" />
        <path
            d="M80.1363 34.4362C79.7663 34.4362 79.3916 34.148 79.3916 33.6047C79.3916 33.1181 79.5624 32.6598 79.8754 32.3244C80.1031 32.0787 80.3876 31.9512 80.7149 31.9512C81.0849 31.9512 81.4786 32.1921 81.4786 32.726C81.4786 33.1039 81.322 33.685 80.99 34.0535C80.7624 34.3134 80.4873 34.4409 80.141 34.4409L80.1363 34.4362ZM80.7102 32.1307C80.4351 32.1307 80.1979 32.2346 80.0035 32.4472C79.7236 32.7496 79.5718 33.1606 79.5718 33.6047C79.5718 34.0488 79.8659 34.2567 80.1363 34.2567C80.4303 34.2567 80.658 34.1527 80.8477 33.9307C81.1418 33.6094 81.2936 33.0803 81.2936 32.7213C81.2936 32.2866 80.9805 32.1307 80.7102 32.1307ZM80.0556 34.1433C79.8849 34.1433 79.7378 33.9874 79.7378 33.7984C79.7378 33.5622 79.8517 33.222 80.0367 32.9055C80.326 32.4236 80.5489 32.2252 80.8098 32.2252C81.0232 32.2252 81.1371 32.3905 81.1371 32.5606C81.1371 32.7685 80.9663 33.2315 80.7529 33.5905C80.5299 33.9638 80.307 34.1386 80.0556 34.1386V34.1433ZM80.8098 32.4094C80.6248 32.4094 80.4398 32.589 80.1932 33C80.0272 33.2835 79.9181 33.6 79.9181 33.7984C79.9181 33.8929 79.9892 33.959 80.0556 33.959C80.2359 33.959 80.4114 33.8126 80.5963 33.5008C80.7861 33.1748 80.9521 32.7354 80.9521 32.5606C80.9521 32.5464 80.9521 32.4094 80.8098 32.4094Z"
            fill="#0061A7" />
        <path
            d="M83.7885 32.1213C83.798 32.0882 83.8311 32.0882 83.8644 32.0882H84.2343C84.2865 32.0882 84.3007 32.1071 84.2865 32.1496L83.907 33.2551C83.7553 33.685 83.6889 33.9024 83.6889 33.9354C83.6889 33.9874 83.7126 34.0016 83.741 34.0016C83.8169 34.0016 84.0256 33.7984 84.1015 33.6992C84.111 33.6803 84.1347 33.6803 84.1537 33.6992L84.2201 33.7465C84.2201 33.7465 84.2343 33.7795 84.2201 33.7984C84.1679 33.8835 83.7742 34.3417 83.3189 34.3417C83.2098 34.3417 83.1481 34.2756 83.1481 34.1811C83.1481 34.1055 83.3853 33.4866 83.447 33.3307L83.409 33.3071C83.1908 33.6142 82.6691 34.3417 82.1379 34.3417C82.0051 34.3417 81.8865 34.2 81.8865 34.0913C81.8865 33.8835 82.0193 33.6047 82.2422 33.1087C82.394 32.7732 82.4746 32.5181 82.4746 32.4425C82.4746 32.3905 82.4319 32.3575 82.375 32.3575C82.2896 32.3575 82.081 32.5417 81.9813 32.6504C81.9719 32.674 81.9387 32.674 81.9197 32.6504L81.8628 32.5937C81.8628 32.5937 81.8485 32.5748 81.8628 32.5512C81.9481 32.452 82.3039 32.0315 82.764 32.0315C82.9157 32.0315 82.9916 32.1496 82.9916 32.2583C82.9916 32.3858 82.8873 32.674 82.6833 33.1606C82.5458 33.4772 82.4272 33.7748 82.4272 33.8787C82.4272 33.9307 82.4699 33.9638 82.5126 33.9638C82.6976 33.9638 83.2288 33.326 83.3711 33.0992C83.4707 32.948 83.5513 32.8063 83.6225 32.6031L83.7837 32.1165L83.7885 32.1213Z"
            fill="#0061A7" />
        <path
            d="M83.3195 34.4362C83.1629 34.4362 83.0539 34.3323 83.0539 34.1811C83.0539 34.1575 83.0539 34.115 83.1867 33.7465C82.9163 34.0725 82.5321 34.4362 82.1337 34.4362C81.944 34.4362 81.7922 34.252 81.7922 34.0961C81.7922 33.8788 81.9108 33.6095 82.1337 33.1323L82.1574 33.0803C82.3282 32.7024 82.3803 32.4945 82.3803 32.452C82.3329 32.4662 82.1716 32.5843 82.0531 32.7118C82.0104 32.778 81.9013 32.778 81.8491 32.7118L81.8017 32.6646C81.8017 32.6646 81.7353 32.5984 81.7827 32.5134L81.8064 32.4851C82.1195 32.126 82.442 31.9465 82.7645 31.9465C82.9732 31.9465 83.0823 32.1118 83.0823 32.2677C83.0823 32.4047 82.9969 32.6599 82.7645 33.2079C82.6744 33.411 82.5131 33.7937 82.5131 33.8929C82.6365 33.8788 83.125 33.3307 83.291 33.0662C83.3906 32.9102 83.4665 32.778 83.5329 32.589L83.6942 32.1024C83.7274 32.0079 83.8222 32.0079 83.8554 32.0079H84.2254C84.2823 32.0079 84.325 32.0268 84.3487 32.0599C84.3724 32.0929 84.3819 32.1354 84.3677 32.1874L83.9882 33.2977C83.8744 33.6236 83.8175 33.8032 83.7938 33.8882C83.8649 33.8362 83.9693 33.7323 84.0262 33.6567C84.0499 33.6095 84.14 33.5858 84.2064 33.6331L84.2728 33.6851C84.325 33.7323 84.3297 33.7937 84.3013 33.8504C84.2444 33.9496 83.827 34.441 83.3195 34.441V34.4362ZM83.4143 33.2126L83.5566 33.2929L83.5282 33.3638C83.2673 34.0441 83.2388 34.1622 83.2341 34.1858C83.2341 34.2142 83.2436 34.2567 83.3147 34.2567C83.4855 34.2567 83.6467 34.1858 83.7843 34.0961C83.6942 34.1244 83.5946 34.0866 83.5946 33.9496C83.5946 33.8788 83.7369 33.4725 83.8175 33.241L84.178 32.1921H83.8602L83.7084 32.6504C83.6372 32.8583 83.5566 33.0047 83.4475 33.1701C83.438 33.1843 83.4286 33.2032 83.4143 33.2221V33.2126ZM82.3756 32.2725C82.4799 32.2725 82.5653 32.348 82.5653 32.4473C82.5653 32.5465 82.4705 32.8252 82.3234 33.1512L82.2997 33.2032C82.1005 33.6473 81.9772 33.9118 81.9772 34.0961C81.9772 34.1528 82.0578 34.252 82.1384 34.252C82.3376 34.252 82.5416 34.1339 82.7218 33.9732C82.646 34.0299 82.5701 34.0677 82.5131 34.0677C82.4135 34.0677 82.3376 33.9874 82.3376 33.8929C82.3376 33.7748 82.4278 33.5386 82.6033 33.137C82.7456 32.8016 82.9068 32.4047 82.9068 32.2677C82.9068 32.2158 82.8784 32.1307 82.7693 32.1307C82.608 32.1307 82.4467 32.1874 82.2855 32.3008C82.3187 32.2866 82.3519 32.2772 82.3803 32.2772L82.3756 32.2725Z"
            fill="#0061A7" />
        <path
            d="M85.1876 34.2567C85.1876 34.2567 85.1638 34.2898 85.1117 34.2898H84.7654C84.7133 34.2898 84.7085 34.252 84.7227 34.2189L85.0927 33.2173C85.2113 32.8677 85.3441 32.5323 85.3441 32.4567C85.3441 32.4047 85.3109 32.3716 85.2587 32.3716C85.1638 32.3716 84.9504 32.5654 84.8603 32.6504C84.8508 32.674 84.8271 32.674 84.8129 32.6551L84.7512 32.5937C84.7512 32.5937 84.718 32.5606 84.7417 32.5417C84.8176 32.4425 85.1781 32.0315 85.6714 32.0315C85.8279 32.0315 85.8753 32.1402 85.8753 32.2157C85.8753 32.3386 85.7188 32.7024 85.6192 32.9433L85.6524 32.9622C85.8136 32.7118 86.3164 32.0315 86.8334 32.0315C87.0326 32.0315 87.1417 32.1827 87.1417 32.3386C87.1417 32.4756 87.0706 32.7307 86.8476 33.2882C86.7053 33.6472 86.6295 33.8551 86.6295 33.926C86.6295 33.9827 86.6532 34.0157 86.6959 34.0157C86.7717 34.0157 86.9804 33.8315 87.0326 33.7559C87.0516 33.7465 87.0753 33.7465 87.0943 33.7654L87.1512 33.8079C87.1512 33.8079 87.1749 33.8409 87.1512 33.874C87.0848 33.9591 86.7053 34.3417 86.25 34.3417C86.1314 34.3417 86.065 34.2756 86.065 34.1811C86.065 34.0866 86.2168 33.7134 86.3923 33.2409C86.4729 33.0142 86.6247 32.6031 86.6247 32.537C86.6247 32.4472 86.5773 32.4094 86.5014 32.4094C86.3401 32.4094 85.88 32.8394 85.6524 33.2126C85.5433 33.3874 85.4484 33.548 85.3583 33.7654L85.1828 34.2614L85.1876 34.2567Z"
            fill="#0061A7" />
        <path
            d="M86.2548 34.4362C86.0887 34.4362 85.9797 34.3323 85.9797 34.1811C85.9797 34.096 86.0461 33.9165 86.1836 33.5575C86.2215 33.4535 86.269 33.3354 86.3117 33.2079L86.3496 33.0945C86.4113 32.9197 86.5298 32.589 86.5393 32.5323C86.5393 32.4945 86.5299 32.4945 86.5061 32.4945C86.4113 32.4945 85.9844 32.8535 85.733 33.2551C85.6334 33.4157 85.5338 33.5764 85.4437 33.7937L85.2729 34.2897C85.2302 34.3748 85.1733 34.3795 85.1117 34.3795H84.7654C84.699 34.3795 84.6658 34.3464 84.6516 34.3275C84.6231 34.2897 84.6184 34.2425 84.6374 34.1953L85.0073 33.189C85.0453 33.085 85.0832 32.9764 85.1164 32.8771C85.1828 32.7023 85.2492 32.4992 85.254 32.4567C85.2208 32.4661 85.088 32.5606 84.9362 32.7071C84.8935 32.7685 84.8034 32.7732 84.7512 32.7212L84.699 32.6693C84.6706 32.6504 84.6468 32.622 84.6421 32.5842C84.6374 32.5464 84.6468 32.5086 84.68 32.4756C84.7132 32.4283 85.1069 31.9417 85.6714 31.9417C85.8753 31.9417 85.9702 32.0834 85.9702 32.2157C85.9702 32.2771 85.9417 32.3716 85.899 32.4992C86.1409 32.2299 86.4824 31.9417 86.8382 31.9417C87.099 31.9417 87.2366 32.1449 87.2366 32.3386C87.2366 32.5039 87.1512 32.7921 86.9378 33.3212C86.8666 33.496 86.7433 33.8126 86.7291 33.9118C86.7955 33.874 86.9235 33.7653 86.9662 33.7039L86.9947 33.6756C87.0421 33.6472 87.099 33.633 87.1702 33.7039L87.2176 33.737C87.2176 33.737 87.2555 33.7701 87.265 33.8031C87.2793 33.8598 87.2461 33.9071 87.2366 33.926C87.1607 34.0299 86.748 34.4315 86.2595 34.4315L86.2548 34.4362ZM86.5061 32.3149C86.6342 32.3149 86.7196 32.4 86.7196 32.537C86.7196 32.5984 86.6627 32.7685 86.5204 33.1559L86.4824 33.2693C86.435 33.3968 86.3923 33.5102 86.3496 33.6189C86.2548 33.8693 86.1599 34.1244 86.1599 34.1811C86.1599 34.2047 86.1599 34.2519 86.2548 34.2519C86.4397 34.2519 86.6105 34.1811 86.748 34.1008C86.6437 34.1338 86.5441 34.0771 86.5441 33.9307C86.5441 33.8504 86.5963 33.6992 86.7717 33.2598C86.971 32.759 87.0611 32.4803 87.0611 32.3433C87.0611 32.2393 86.9947 32.1307 86.8429 32.1307C86.5868 32.1307 86.3306 32.3244 86.1267 32.5323C86.2737 32.4047 86.4113 32.3149 86.5109 32.3149H86.5061ZM84.8271 34.2H85.1117L85.2777 33.7323C85.3725 33.5008 85.4769 33.3307 85.5812 33.1606C85.6002 33.1323 85.6192 33.0992 85.6429 33.0708L85.5148 32.9858L85.586 32.8157C85.6619 32.6268 85.7947 32.3149 85.7947 32.2252C85.7947 32.1921 85.7804 32.1354 85.6808 32.1354C85.3963 32.1354 85.1638 32.2819 85.0121 32.4142C85.1022 32.3433 85.197 32.2866 85.2682 32.2866C85.3725 32.2866 85.4437 32.3622 85.4437 32.4614C85.4437 32.5275 85.3963 32.6645 85.2966 32.9386C85.2634 33.0378 85.2255 33.1417 85.1876 33.2456L84.8366 34.1953L84.8271 34.2Z"
            fill="#0061A7" />
        <path
            d="M88.3373 33.5858C88.2899 33.7039 88.2424 33.8362 88.2424 33.9023C88.2424 33.959 88.2709 34.0016 88.3373 34.0016C88.4606 34.0016 88.8021 33.7323 88.8306 33.6992C88.8543 33.6756 88.8638 33.6756 88.8875 33.6992L88.9492 33.7653C88.9492 33.7653 88.9681 33.789 88.9586 33.8079C88.897 33.8929 88.4037 34.3512 87.9152 34.3512C87.7539 34.3512 87.6875 34.2614 87.6875 34.1905C87.6875 34.0913 87.7065 33.9827 87.7397 33.8882L88.3136 32.4047H87.9104C87.8772 32.4047 87.8677 32.3905 87.8772 32.3527L87.9199 32.211C87.9294 32.1779 87.9389 32.1685 87.9721 32.1685H88.3942L88.6171 31.5968C88.6409 31.5449 88.6598 31.5307 88.7594 31.5212C88.8685 31.5118 89.0867 31.4126 89.1294 31.3795C89.1626 31.3701 89.1958 31.3464 89.2195 31.3464C89.2527 31.3464 89.2764 31.3984 89.2527 31.4551L88.897 32.1685H89.4567C89.4567 32.1685 89.4899 32.1921 89.4804 32.2252L89.4377 32.3811C89.4377 32.3811 89.4187 32.4094 89.3808 32.4094H88.8163L88.3373 33.6V33.5858Z"
            fill="#0061A7" />
        <path
            d="M87.9154 34.4362C87.6973 34.4362 87.5977 34.3039 87.5977 34.1811C87.5977 34.0772 87.6214 33.9591 87.6593 33.8504L88.1905 32.485H87.9202C87.8633 32.485 87.8301 32.4614 87.8158 32.4378C87.7921 32.4047 87.7874 32.3622 87.8016 32.315L87.8443 32.1732C87.8538 32.1449 87.8775 32.0646 87.9866 32.0646H88.3423L88.5415 31.5496C88.5842 31.4409 88.6601 31.4268 88.7597 31.4173C88.8498 31.4079 89.0538 31.3181 89.0822 31.2945L89.1107 31.2803C89.1107 31.2803 89.1344 31.2709 89.1392 31.2661C89.1961 31.2425 89.2814 31.2331 89.3289 31.2992C89.3621 31.3465 89.3668 31.4126 89.3431 31.474L89.049 32.0646H89.5091L89.5565 32.1118C89.5803 32.1449 89.585 32.1921 89.5708 32.2394L89.5281 32.3905C89.5186 32.4331 89.4854 32.485 89.3858 32.485H88.883L88.4182 33.6425C88.385 33.7323 88.3376 33.8598 88.3376 33.9024C88.4277 33.9024 88.717 33.6898 88.7692 33.6331C88.7882 33.6189 88.8166 33.5905 88.8641 33.5905C88.9115 33.5905 88.9447 33.6189 88.9542 33.6331L89.0111 33.6945C89.049 33.7228 89.0775 33.7748 89.0443 33.8457C88.9494 33.978 88.4277 34.4362 87.9202 34.4362H87.9154ZM87.9913 32.3055H88.4514L87.8253 33.9118C87.7921 34.0016 87.7779 34.1008 87.7779 34.1811C87.7779 34.2189 87.8206 34.252 87.9154 34.252C88.2522 34.252 88.5842 34.0205 88.7597 33.8693C88.6316 33.9638 88.4467 34.0866 88.3423 34.0866C88.238 34.0866 88.1526 34.011 88.1526 33.8976C88.1526 33.8268 88.1905 33.7228 88.2475 33.5717L88.2569 33.548L88.7597 32.2961H89.3621L89.3763 32.2394H88.7502L89.1344 31.4598C89.0443 31.5071 88.8688 31.578 88.7692 31.5874C88.7218 31.5921 88.7075 31.5968 88.7075 31.5968L88.4609 32.2346H88.0056L87.9866 32.2913L87.9913 32.3055Z"
            fill="#0061A7" />
        <path
            d="M89.779 34.2898C89.7458 34.2898 89.7221 34.2662 89.7364 34.2473L90.0115 33.3685C90.0921 33.0992 90.2723 32.5465 90.2723 32.4473C90.2723 32.4048 90.2296 32.3622 90.1727 32.3622C90.0779 32.3622 89.8597 32.5701 89.7838 32.6741C89.7743 32.6977 89.7506 32.6977 89.7269 32.6882L89.6605 32.6457C89.6605 32.6457 89.651 32.6126 89.6605 32.589C89.7601 32.4284 90.0731 32.0363 90.519 32.0363C90.6802 32.0363 90.7371 32.1449 90.7371 32.2441C90.7371 32.3433 90.6375 32.6221 90.519 32.9811L90.5569 33.0048C90.6992 32.7024 91.0834 32.041 91.4439 32.041C91.5956 32.041 91.7285 32.1496 91.7285 32.3103C91.7285 32.4709 91.6004 32.6126 91.5008 32.6126C91.4344 32.6126 91.3775 32.6032 91.3395 32.5701C91.2968 32.537 91.2636 32.504 91.1877 32.504C91.036 32.504 90.7324 32.9481 90.5711 33.2646C90.5142 33.3827 90.4573 33.5244 90.3956 33.704L90.2107 34.2567C90.2107 34.2567 90.1775 34.2898 90.1443 34.2898H89.7838H89.779Z"
            fill="#0061A7" />
        <path
            d="M90.1396 34.3795H89.7791C89.727 34.3795 89.6843 34.3559 89.6606 34.3181C89.6369 34.285 89.6369 34.2425 89.6558 34.2047L89.9831 33.137C90.0495 32.9197 90.1776 32.5134 90.1776 32.4472C90.1207 32.4614 89.9357 32.6126 89.855 32.726C89.8361 32.7685 89.7602 32.8016 89.689 32.7685L89.6131 32.7165C89.561 32.6645 89.5562 32.6031 89.5847 32.5464C89.6226 32.4803 89.9641 31.9417 90.5238 31.9417C90.7373 31.9417 90.8321 32.0929 90.8321 32.2393C90.8321 32.2819 90.8179 32.3386 90.7989 32.4142C90.9744 32.1732 91.2068 31.9417 91.444 31.9417C91.6527 31.9417 91.8187 32.1023 91.8187 32.3008C91.8187 32.4992 91.6622 32.6929 91.5009 32.6929C91.4108 32.6929 91.3396 32.674 91.2827 32.6315L91.2637 32.6173C91.2305 32.5937 91.2163 32.5842 91.1831 32.5842C91.1025 32.5937 90.8369 32.9244 90.6471 33.2929C90.6044 33.3921 90.5428 33.5291 90.4764 33.7228L90.2914 34.2756C90.2629 34.337 90.206 34.3701 90.1396 34.3701V34.3795ZM89.8456 34.2H90.1254L90.3009 33.6756C90.3673 33.4771 90.429 33.3307 90.4764 33.222C90.4764 33.222 90.5048 33.1701 90.5428 33.0992L90.4052 33.0189L90.4716 32.8157C90.557 32.5559 90.6424 32.3149 90.6424 32.2441C90.6424 32.1685 90.5997 32.1307 90.5143 32.1307C90.2961 32.1307 90.1159 32.2346 89.9831 32.3527C90.0448 32.3102 90.1112 32.2771 90.1681 32.2771C90.2724 32.2771 90.3578 32.3575 90.3578 32.4519C90.3578 32.537 90.2724 32.8157 90.1539 33.1984L89.8408 34.2047L89.8456 34.2ZM91.444 32.1307C91.2637 32.1307 91.0456 32.3669 90.8701 32.6315C90.9744 32.5086 91.0882 32.4142 91.1831 32.4142C91.278 32.4142 91.3349 32.4519 91.3728 32.485C91.4108 32.5134 91.4487 32.5228 91.5009 32.5228C91.5388 32.5228 91.6384 32.4283 91.6384 32.3102C91.6384 32.1921 91.5436 32.1307 91.4487 32.1307H91.444Z"
            fill="#0061A7" />
        <path
            d="M93.1179 34.1575C93.2175 33.9874 93.5401 33.3449 93.6065 33.0756C93.6255 32.9905 93.6729 32.8583 93.6729 32.7307C93.6729 32.6362 93.6492 32.5465 93.6302 32.4803C93.6112 32.4142 93.578 32.3433 93.578 32.263C93.578 32.1638 93.6539 32.0362 93.8484 32.0362C94.0428 32.0362 94.1187 32.1874 94.1187 32.3811C94.1187 32.622 93.9243 33.0992 93.7393 33.4677C93.4689 33.9968 92.8903 34.9512 92.4207 35.4047C92.2642 35.5559 91.9369 35.8961 91.6002 35.8961C91.363 35.8961 91.2539 35.7685 91.2539 35.6173C91.2539 35.4567 91.382 35.348 91.5053 35.3386C91.6049 35.3386 91.6428 35.3811 91.6998 35.4331C91.7424 35.4756 91.8089 35.5087 91.8515 35.5087C91.9085 35.5087 91.9938 35.4898 92.0982 35.4189C92.3496 35.2394 92.5488 34.937 92.6389 34.8C92.7005 34.7008 92.7148 34.5732 92.6911 34.4315C92.6816 34.2567 92.5535 32.8205 92.4919 32.5795C92.4634 32.4803 92.4539 32.4378 92.3875 32.4378C92.2879 32.4378 92.1504 32.7071 92.1077 32.8252C92.0934 32.8583 92.0839 32.8583 92.0602 32.8535L91.9749 32.8252C91.9749 32.8252 91.9559 32.8063 91.9654 32.7591C91.9891 32.6929 92.2168 32.0315 92.6958 32.0315C92.8903 32.0315 92.9994 32.1732 93.0326 32.6268C93.0753 33.2457 93.099 33.8835 93.1037 34.1528H93.1322L93.1179 34.1575Z"
            fill="#0061A7" />
        <path
            d="M91.5955 35.9858C91.273 35.9858 91.1592 35.7874 91.1592 35.6126C91.1592 35.4 91.3299 35.2535 91.4959 35.2441C91.6335 35.2441 91.6999 35.3055 91.7568 35.3622C91.79 35.3953 91.8327 35.4142 91.8469 35.4142C91.8849 35.4142 91.9608 35.3953 92.0414 35.3386C92.288 35.1638 92.4872 34.8519 92.5536 34.748C92.5963 34.6771 92.6106 34.5685 92.5916 34.4456C92.5774 34.2378 92.454 32.8252 92.3971 32.6031C92.3876 32.5653 92.3734 32.5275 92.3687 32.5181C92.345 32.5464 92.2311 32.726 92.1837 32.8582C92.1552 32.9338 92.1078 32.948 92.0699 32.948H92.0414L91.9276 32.9197L91.8896 32.8819C91.8517 32.8393 91.8659 32.7827 91.8754 32.7449C91.9418 32.5464 92.1932 31.9464 92.6912 31.9464C93.028 31.9464 93.0944 32.2913 93.1181 32.6267C93.1513 33.0708 93.1702 33.5338 93.1797 33.8598C93.3125 33.5953 93.4833 33.2315 93.526 33.0519L93.5402 32.9905C93.5592 32.9149 93.5876 32.8157 93.5876 32.726C93.5876 32.6551 93.5734 32.5842 93.5497 32.5086L93.5355 32.4661C93.5165 32.4094 93.4928 32.3386 93.4928 32.263C93.4928 32.1023 93.6161 31.9417 93.858 31.9417C93.9671 31.9417 94.2185 31.9842 94.2185 32.3764C94.2185 32.7023 93.9197 33.3212 93.8248 33.5008C93.5544 34.0346 92.971 34.9937 92.4872 35.4614L92.454 35.4897C92.2785 35.6598 91.9513 35.9811 91.6003 35.9811L91.5955 35.9858ZM91.4959 35.4236C91.4248 35.4283 91.3347 35.5039 91.3347 35.6126C91.3347 35.7354 91.4295 35.8016 91.5908 35.8016C91.8706 35.8016 92.16 35.5181 92.3165 35.3622L92.3497 35.3338C92.8145 34.885 93.3979 33.9212 93.654 33.4205C93.8817 32.9764 94.024 32.5653 94.024 32.3764C94.024 32.1212 93.9007 32.1212 93.8438 32.1212C93.7015 32.1212 93.6635 32.2063 93.6635 32.2582C93.6635 32.3008 93.6825 32.3527 93.6967 32.4047L93.711 32.4472C93.7442 32.5417 93.7584 32.6315 93.7584 32.7212C93.7584 32.8346 93.7299 32.948 93.7062 33.033L93.692 33.0897C93.6208 33.3779 93.2888 34.0299 93.194 34.1953L93.1655 34.2425H92.9948V34.1527C92.9853 33.8693 92.9663 33.2315 92.9236 32.6315C92.8857 32.1212 92.7576 32.1212 92.677 32.1212C92.4683 32.1212 92.3117 32.2771 92.2027 32.4378C92.2548 32.3811 92.3117 32.3386 92.3734 32.3386C92.5062 32.3386 92.5347 32.4378 92.5631 32.5417C92.6343 32.8016 92.7576 34.2519 92.7671 34.4173C92.7908 34.5779 92.7671 34.7291 92.7007 34.8378C92.6295 34.9464 92.4161 35.2819 92.1363 35.4803C91.994 35.5748 91.8896 35.589 91.8374 35.589C91.7663 35.589 91.6809 35.5464 91.6193 35.485C91.5718 35.4378 91.5481 35.4189 91.4912 35.4189L91.4959 35.4236Z"
            fill="#0061A7" />
        <path
            d="M94.4229 33.9969C94.4229 33.8457 94.5319 33.6614 94.7596 33.6614C95.03 33.6614 95.1296 33.8788 95.1296 34.0063C95.1296 34.1811 94.9873 34.3418 94.7738 34.3418C94.5604 34.3418 94.4229 34.2 94.4229 33.9921V33.9969Z"
            fill="#0061A7" />
        <path
            d="M94.7692 34.4363C94.5084 34.4363 94.3281 34.2568 94.3281 33.9969C94.3281 33.789 94.4799 33.5717 94.7597 33.5717C95.0775 33.5717 95.2198 33.8268 95.2198 34.0064C95.2198 34.2142 95.0538 34.4316 94.7692 34.4316V34.4363ZM94.7597 33.756C94.5795 33.756 94.5131 33.9024 94.5131 34.0016C94.5131 34.1575 94.6174 34.2568 94.774 34.2568C94.9447 34.2568 95.0396 34.1292 95.0396 34.0111C95.0396 33.9449 94.9874 33.756 94.7645 33.756H94.7597Z"
            fill="#0061A7" />
        <path
            d="M98.5683 33.7843C98.5066 34.0677 98.5778 34.0866 98.7628 34.0866H98.8813C98.9145 34.0866 98.924 34.1055 98.924 34.1291L98.9003 34.2473C98.9003 34.2803 98.8908 34.2992 98.8434 34.2992C98.758 34.2992 98.5825 34.285 98.1462 34.285C97.6576 34.285 97.4964 34.2992 97.43 34.2992C97.3968 34.2992 97.3873 34.2898 97.3873 34.2473L97.4062 34.1291C97.4062 34.1291 97.4157 34.0866 97.4631 34.0866H97.5817C97.8284 34.0866 97.909 33.9685 97.9422 33.8079L98.113 33.0047C98.1367 32.9291 98.1272 32.7874 98.1035 32.7213L97.539 31.0583C97.4964 30.926 97.3873 30.8504 97.2023 30.8504H97.0837C97.0505 30.8504 97.041 30.8362 97.041 30.8079L97.0647 30.6803C97.0742 30.6473 97.0837 30.6378 97.1169 30.6378C97.1928 30.6378 97.3351 30.652 97.7667 30.652C98.2315 30.652 98.4213 30.6378 98.4829 30.6378C98.5256 30.6378 98.5351 30.6473 98.5351 30.6803L98.5256 30.8079C98.5161 30.841 98.5066 30.8504 98.4734 30.8504H98.3311C98.1556 30.8504 98.1556 30.978 98.1888 31.0866L98.6252 32.5417C98.6442 32.6268 98.6869 32.6268 98.7343 32.5512C98.8102 32.4284 99.5833 31.2945 99.6355 31.1339C99.7066 30.926 99.6355 30.8457 99.4505 30.8457H99.3319C99.2987 30.8457 99.2892 30.8221 99.2987 30.789L99.3082 30.6709C99.3082 30.6378 99.3177 30.6284 99.3746 30.6284C99.4505 30.6284 99.6592 30.6425 99.9628 30.6425C100.3 30.6425 100.461 30.6284 100.537 30.6284C100.584 30.6284 100.594 30.652 100.594 30.6803L100.57 30.7843C100.57 30.8268 100.56 30.841 100.527 30.841H100.428C100.243 30.841 100.134 30.926 100.024 31.0724C99.939 31.1906 98.9477 32.5654 98.8718 32.6976C98.796 32.8158 98.7438 32.9244 98.6869 33.1654L98.5588 33.7654L98.5683 33.7843Z"
            fill="#0061A7" />
        <path
            d="M98.8525 34.3937C98.824 34.3937 98.7908 34.3937 98.7386 34.3937C98.6295 34.3937 98.454 34.3795 98.1552 34.3795C97.7995 34.3795 97.6193 34.389 97.5196 34.3937C97.4817 34.3937 97.4532 34.3937 97.439 34.3937C97.3963 34.3937 97.3062 34.3795 97.3062 34.252L97.3299 34.115C97.3299 34.063 97.3726 33.9969 97.477 33.9969H97.5955C97.7853 33.9969 97.8374 33.926 97.8659 33.7937L98.0366 32.9906C98.0556 32.9291 98.0461 32.8063 98.0272 32.7591L97.4627 31.0961C97.4438 31.0346 97.3916 30.9496 97.2113 30.9496H97.0928C97.0121 30.9496 96.96 30.8976 96.96 30.8173L96.9837 30.6709C97.0121 30.5858 97.0548 30.5528 97.126 30.5528C97.1497 30.5528 97.1781 30.5528 97.2208 30.5528C97.3157 30.5575 97.4722 30.5669 97.7758 30.5669C98.1125 30.5669 98.3023 30.5575 98.4066 30.5528C98.4445 30.5528 98.473 30.5528 98.492 30.5528C98.6248 30.5528 98.639 30.6567 98.639 30.685L98.6248 30.822C98.6153 30.8693 98.5868 30.9496 98.4825 30.9496H98.3402C98.307 30.9496 98.288 30.9591 98.2785 30.9638C98.2691 30.9732 98.2643 31.0063 98.2833 31.0724L98.7007 32.4614C98.7244 32.4283 98.7528 32.3858 98.7861 32.3339C98.9853 32.0315 99.5165 31.2331 99.5592 31.115C99.5876 31.0346 99.5829 30.9921 99.5734 30.9732C99.5687 30.9685 99.5449 30.9449 99.4596 30.9449H99.341C99.2983 30.9449 99.2604 30.926 99.2366 30.8929C99.2224 30.874 99.2034 30.8315 99.2224 30.7701V30.6756C99.2272 30.6331 99.2461 30.548 99.3837 30.548C99.4074 30.548 99.4501 30.548 99.507 30.5528C99.6113 30.5528 99.7679 30.5622 99.9718 30.5622C100.199 30.5622 100.347 30.5575 100.441 30.5528C100.489 30.5528 100.522 30.5528 100.546 30.5528C100.636 30.5528 100.693 30.6095 100.693 30.6992L100.669 30.822C100.669 30.9354 100.579 30.9496 100.536 30.9496H100.437C100.304 30.9496 100.214 31.0016 100.105 31.148C99.8912 31.4409 99.0232 32.6504 98.9568 32.7638C98.8809 32.8819 98.8335 32.9858 98.7813 33.2079L98.6532 33.8079C98.62 33.9638 98.639 33.9874 98.639 33.9874C98.6438 33.9921 98.6675 34.0016 98.7576 34.0016H98.8762C98.9521 34.0016 99.009 34.0583 99.009 34.1339L98.9853 34.2709C98.9853 34.3417 98.9283 34.3984 98.8382 34.3984L98.8525 34.3937ZM98.1552 34.1953C98.4588 34.1953 98.6343 34.2047 98.7434 34.2095C98.7766 34.2095 98.8003 34.2095 98.8192 34.2095V34.1764H98.7623C98.658 34.1764 98.5631 34.1717 98.5015 34.0961C98.4351 34.0157 98.4493 33.8882 98.4778 33.7606L98.6058 33.1606C98.6627 32.915 98.7196 32.7969 98.805 32.6646C98.8857 32.5276 99.9481 31.0488 99.9576 31.0346C100.062 30.8929 100.195 30.7654 100.437 30.7654H100.494L100.503 30.7323C100.503 30.7323 100.47 30.7323 100.451 30.7323C100.356 30.7323 100.204 30.7465 99.9718 30.7465C99.7679 30.7465 99.6066 30.737 99.4975 30.7323C99.4596 30.7323 99.4264 30.7323 99.4027 30.7323V30.7701H99.4548C99.5829 30.7701 99.6683 30.8032 99.7157 30.874C99.7679 30.9449 99.7726 31.0441 99.7252 31.1764C99.6825 31.2945 99.3789 31.7622 98.9331 32.4331C98.8714 32.5228 98.8287 32.589 98.8145 32.6126C98.7766 32.674 98.7339 32.7118 98.677 32.7118C98.6485 32.7118 98.5726 32.6976 98.5394 32.5748L98.1078 31.1244C98.0746 31.011 98.0793 30.9213 98.1315 30.8598C98.16 30.822 98.2216 30.7701 98.3355 30.7701H98.4445V30.737C98.4445 30.737 98.4256 30.737 98.4113 30.737C98.307 30.737 98.1173 30.7512 97.771 30.7512C97.4627 30.7512 97.3015 30.7417 97.2066 30.737C97.1829 30.737 97.1687 30.737 97.1497 30.737V30.7748H97.2066C97.42 30.7748 97.5718 30.8693 97.6335 31.0441L98.1979 32.7071C98.2264 32.7921 98.2359 32.948 98.2074 33.0425L98.0366 33.8362C98.0034 33.9827 97.9228 34.1858 97.5908 34.1858H97.4959V34.2189C97.4959 34.2189 97.5007 34.2189 97.5102 34.2189C97.6098 34.2189 97.7947 34.2047 98.1505 34.2047L98.1552 34.1953Z"
            fill="#0061A7" />
        <path
            d="M99.8963 33.6C99.8963 33.1465 100.048 32.7118 100.352 32.3811C100.57 32.1449 100.831 32.0363 101.125 32.0363C101.438 32.0363 101.798 32.23 101.798 32.7213C101.798 33.0662 101.656 33.6284 101.329 33.9874C101.12 34.2237 100.873 34.3465 100.541 34.3465C100.209 34.3465 99.8916 34.1008 99.8916 33.6048L99.8963 33.6ZM101.092 33.5433C101.291 33.2032 101.462 32.7544 101.462 32.5607C101.462 32.4426 101.386 32.3197 101.229 32.3197C101.006 32.3197 100.802 32.5087 100.532 32.9528C100.352 33.2552 100.247 33.5811 100.247 33.7985C100.247 33.9449 100.356 34.0536 100.475 34.0536C100.688 34.0536 100.883 33.9024 101.096 33.5481L101.092 33.5433Z"
            fill="#0061A7" />
        <path
            d="M100.546 34.4362C100.176 34.4362 99.8057 34.148 99.8057 33.6047C99.8057 33.1181 99.9764 32.6598 100.285 32.3244C100.512 32.0787 100.797 31.9512 101.124 31.9512C101.494 31.9512 101.888 32.1921 101.888 32.726C101.888 33.1039 101.736 33.6803 101.399 34.0535C101.172 34.3134 100.892 34.4409 100.546 34.4409V34.4362ZM101.124 32.1307C100.844 32.1307 100.617 32.2346 100.418 32.4472C100.138 32.7496 99.9859 33.1606 99.9859 33.6047C99.9859 34.0488 100.275 34.2567 100.546 34.2567C100.84 34.2567 101.067 34.1527 101.262 33.9307C101.556 33.6094 101.708 33.0803 101.708 32.7213C101.708 32.2866 101.395 32.1307 101.124 32.1307ZM100.47 34.1433C100.294 34.1433 100.152 33.9874 100.152 33.7984C100.152 33.5622 100.266 33.222 100.451 32.9055C100.735 32.4283 100.968 32.2252 101.224 32.2252C101.437 32.2252 101.546 32.3953 101.546 32.5606C101.546 32.7732 101.376 33.2362 101.167 33.5905C100.939 33.9638 100.721 34.1386 100.47 34.1386V34.1433ZM101.224 32.4094C101.044 32.4094 100.849 32.589 100.607 33C100.441 33.2835 100.332 33.5953 100.332 33.7984C100.332 33.8976 100.403 33.959 100.47 33.959C100.65 33.959 100.821 33.8126 101.01 33.5008C101.219 33.1465 101.366 32.7213 101.366 32.5606C101.366 32.5039 101.338 32.4094 101.224 32.4094Z"
            fill="#0061A7" />
        <path
            d="M104.202 32.1213C104.212 32.0882 104.245 32.0882 104.278 32.0882H104.648C104.7 32.0882 104.715 32.1071 104.7 32.1496L104.321 33.2551C104.169 33.685 104.103 33.9024 104.103 33.9354C104.103 33.9874 104.122 34.0016 104.16 34.0016C104.236 34.0016 104.444 33.7984 104.515 33.6992C104.525 33.6803 104.549 33.6803 104.572 33.6992L104.639 33.7465C104.639 33.7465 104.648 33.7795 104.639 33.7984C104.587 33.8835 104.193 34.3417 103.738 34.3417C103.628 34.3417 103.562 34.2756 103.562 34.1811C103.562 34.1055 103.799 33.4866 103.861 33.3307L103.823 33.3071C103.605 33.6142 103.083 34.3417 102.552 34.3417C102.419 34.3417 102.3 34.2 102.3 34.0913C102.3 33.8835 102.433 33.6047 102.656 33.1087C102.808 32.7732 102.889 32.5181 102.889 32.4425C102.889 32.3905 102.846 32.3575 102.789 32.3575C102.699 32.3575 102.495 32.5417 102.4 32.6504C102.386 32.674 102.357 32.674 102.338 32.6504L102.277 32.5937C102.277 32.5937 102.267 32.5748 102.277 32.5512C102.367 32.452 102.718 32.0315 103.178 32.0315C103.33 32.0315 103.41 32.1496 103.41 32.2583C103.41 32.3858 103.306 32.674 103.097 33.1606C102.96 33.4772 102.841 33.7748 102.841 33.8787C102.841 33.9307 102.884 33.9638 102.926 33.9638C103.111 33.9638 103.643 33.326 103.785 33.0992C103.88 32.948 103.965 32.8063 104.032 32.6031L104.193 32.1165L104.202 32.1213Z"
            fill="#0061A7" />
        <path
            d="M103.738 34.4362C103.582 34.4362 103.473 34.3323 103.473 34.1811C103.473 34.1575 103.473 34.115 103.606 33.7465C103.335 34.0725 102.951 34.4362 102.553 34.4362C102.368 34.4362 102.211 34.252 102.211 34.0961C102.211 33.874 102.334 33.6095 102.553 33.1228L102.576 33.0756C102.747 32.6977 102.799 32.4898 102.799 32.4473C102.752 32.4614 102.586 32.5843 102.467 32.7165C102.448 32.7591 102.32 32.778 102.268 32.7118L102.216 32.6693C102.187 32.641 102.164 32.5937 102.197 32.5228L102.211 32.4992C102.538 32.1307 102.861 31.9465 103.183 31.9465C103.392 31.9465 103.506 32.1118 103.506 32.2677C103.506 32.4047 103.421 32.6599 103.188 33.2079C103.112 33.3827 102.942 33.789 102.942 33.8929C103.06 33.8788 103.553 33.3307 103.719 33.0662C103.824 32.9055 103.895 32.7732 103.961 32.589L104.123 32.1024C104.156 32.0079 104.251 32.0079 104.284 32.0079H104.654C104.711 32.0079 104.753 32.0268 104.777 32.0599C104.801 32.0929 104.806 32.1354 104.791 32.1874L104.412 33.2977C104.298 33.6189 104.241 33.8032 104.217 33.8929C104.289 33.8362 104.393 33.737 104.45 33.6614C104.478 33.6142 104.564 33.5906 104.63 33.6378L104.701 33.6898C104.749 33.7417 104.753 33.7984 104.73 33.8504C104.663 33.9591 104.251 34.4457 103.743 34.4457L103.738 34.4362ZM103.833 33.2126L103.976 33.2929L103.947 33.3638C103.738 33.9024 103.658 34.1433 103.653 34.1858C103.653 34.2142 103.662 34.2567 103.738 34.2567C103.909 34.2567 104.075 34.1858 104.208 34.0914C104.089 34.1291 104.018 34.0583 104.018 33.9449C104.018 33.8929 104.094 33.652 104.241 33.2362L104.602 32.1874H104.284L104.127 32.6457C104.051 32.8725 103.957 33.0284 103.871 33.1654C103.862 33.1795 103.852 33.1984 103.838 33.2173L103.833 33.2126ZM102.79 32.2725C102.899 32.2725 102.979 32.348 102.979 32.4473C102.979 32.5465 102.885 32.8252 102.738 33.1512L102.714 33.1984C102.51 33.6425 102.391 33.9118 102.391 34.0961C102.391 34.1528 102.472 34.252 102.553 34.252C102.757 34.252 102.965 34.1291 103.15 33.9638C103.065 34.0252 102.989 34.0677 102.932 34.0677C102.832 34.0677 102.752 33.9921 102.752 33.8929C102.752 33.7748 102.851 33.5291 103.017 33.137C103.169 32.7827 103.321 32.4 103.321 32.2677C103.321 32.2158 103.293 32.1307 103.183 32.1307C102.998 32.1307 102.828 32.2063 102.69 32.3055C102.728 32.2866 102.761 32.2772 102.79 32.2772V32.2725Z"
            fill="#0061A7" />
        <path
            d="M105.213 34.2898C105.179 34.2898 105.16 34.2662 105.17 34.2473L105.44 33.3685C105.521 33.0992 105.701 32.5465 105.701 32.4473C105.701 32.4048 105.658 32.3622 105.606 32.3622C105.507 32.3622 105.289 32.5701 105.213 32.6741C105.203 32.6977 105.179 32.6977 105.16 32.6882L105.094 32.6457C105.094 32.6457 105.085 32.6126 105.094 32.589C105.194 32.4284 105.507 32.0363 105.953 32.0363C106.114 32.0363 106.171 32.1449 106.171 32.2441C106.171 32.3433 106.071 32.6221 105.953 32.9811L105.991 33.0048C106.133 32.7024 106.517 32.041 106.877 32.041C107.029 32.041 107.157 32.1496 107.157 32.3103C107.157 32.4709 107.029 32.6126 106.93 32.6126C106.863 32.6126 106.811 32.6032 106.768 32.5701C106.726 32.537 106.692 32.504 106.617 32.504C106.465 32.504 106.161 32.9481 105.995 33.2646C105.938 33.3827 105.877 33.5244 105.82 33.704L105.635 34.2567C105.635 34.2567 105.602 34.2898 105.573 34.2898H105.213Z"
            fill="#0061A7" />
        <path
            d="M105.573 34.3795H105.213C105.16 34.3795 105.118 34.3559 105.094 34.3181C105.07 34.285 105.07 34.2425 105.089 34.2047L105.421 33.1228C105.492 32.896 105.611 32.5134 105.611 32.4472C105.554 32.4614 105.369 32.6126 105.288 32.726C105.265 32.7732 105.194 32.8016 105.122 32.7685L105.042 32.7165C104.99 32.6645 104.985 32.6031 105.013 32.5464C105.151 32.3197 105.497 31.9417 105.957 31.9417C106.171 31.9417 106.266 32.0929 106.266 32.2393C106.266 32.2771 106.256 32.3338 106.232 32.4142C106.408 32.1732 106.64 31.9464 106.882 31.9464C107.091 31.9464 107.252 32.1071 107.252 32.3055C107.252 32.5039 107.091 32.6976 106.934 32.6976C106.849 32.6976 106.778 32.6787 106.716 32.6362C106.664 32.5984 106.655 32.589 106.617 32.589C106.536 32.5984 106.27 32.9291 106.081 33.2976C106.028 33.4016 105.972 33.5386 105.91 33.7275L105.725 34.2803C105.696 34.3417 105.644 34.3748 105.578 34.3748L105.573 34.3795ZM105.279 34.2H105.559L105.734 33.6756C105.796 33.4819 105.858 33.3401 105.915 33.222C105.915 33.222 105.943 33.1701 105.981 33.0992L105.843 33.0189L105.91 32.8205C106 32.5606 106.081 32.3102 106.081 32.2393C106.081 32.1638 106.038 32.126 105.957 32.126C105.734 32.126 105.549 32.2346 105.417 32.3527C105.483 32.3055 105.549 32.2724 105.606 32.2724C105.706 32.2724 105.796 32.3527 105.796 32.4472C105.796 32.5323 105.715 32.7921 105.597 33.1795L105.284 34.2H105.279ZM106.877 32.1307C106.697 32.1307 106.479 32.3669 106.308 32.6267C106.413 32.5039 106.522 32.4142 106.617 32.4142C106.711 32.4142 106.764 32.4519 106.811 32.485C106.849 32.5134 106.882 32.5228 106.934 32.5228C106.972 32.5228 107.072 32.4283 107.072 32.3102C107.072 32.1921 106.977 32.1307 106.882 32.1307H106.877Z"
            fill="#0061A7" />
        <path
            d="M109.586 31.2047C109.61 31.1197 109.619 31.0535 109.619 31.0063C109.619 30.9212 109.524 30.8646 109.368 30.8646H109.216C109.183 30.8646 109.173 30.8409 109.178 30.822L109.202 30.6992C109.207 30.6661 109.23 30.6661 109.273 30.6661H109.686C109.833 30.6661 109.97 30.6661 110.113 30.6567C110.255 30.6567 110.402 30.6567 110.544 30.6567C110.677 30.6567 111.147 30.6567 111.436 30.8362C111.611 30.9449 111.763 31.1386 111.763 31.4079C111.763 32.0693 111.175 32.3527 110.634 32.4472C110.611 32.4472 110.611 32.4567 110.625 32.4709C111.132 32.5984 111.431 32.8913 111.431 33.3496C111.431 33.4063 111.422 33.7275 111.128 33.9968C110.919 34.1811 110.582 34.3228 109.918 34.3228C109.657 34.3228 109.387 34.3086 109.126 34.3086C108.865 34.3086 108.614 34.3228 108.362 34.3228C108.329 34.3228 108.305 34.3134 108.32 34.2709L108.343 34.1527C108.343 34.1527 108.353 34.1102 108.386 34.1102H108.581C108.765 34.1102 108.851 33.9921 108.908 33.789L109.591 31.2236L109.586 31.2047ZM109.524 33.737C109.482 33.9023 109.482 33.9968 109.577 34.0535C109.643 34.096 109.818 34.1197 109.913 34.1197C110.487 34.1197 110.786 33.685 110.786 33.2409C110.786 32.6787 110.25 32.537 109.913 32.5275H109.847L109.524 33.737ZM109.89 32.3197C109.98 32.3433 110.098 32.3433 110.165 32.3433C110.663 32.3433 111.142 32.0834 111.156 31.4457C111.156 31.1197 110.852 30.8362 110.468 30.8362C110.402 30.8362 110.35 30.8362 110.293 30.8457L109.89 32.3197Z"
            fill="#0061A7" />
        <path
            d="M109.913 34.3938C109.78 34.3938 109.647 34.3938 109.515 34.3891C109.254 34.3796 109.002 34.3796 108.742 34.3891C108.613 34.3891 108.485 34.3938 108.357 34.3938C108.305 34.3938 108.272 34.3796 108.244 34.3465C108.225 34.3229 108.21 34.2851 108.225 34.2284L108.244 34.115C108.244 34.0536 108.3 33.9969 108.376 33.9969H108.571C108.675 33.9969 108.751 33.9544 108.808 33.7465L109.496 31.1765C109.515 31.0961 109.524 31.0394 109.524 31.0017C109.524 30.9828 109.467 30.9497 109.368 30.9497H109.216C109.173 30.9497 109.135 30.9355 109.111 30.9024C109.088 30.8741 109.078 30.8363 109.088 30.7985L109.111 30.6757C109.13 30.567 109.23 30.567 109.273 30.567H109.685C109.832 30.567 109.97 30.567 110.108 30.5576C110.183 30.5576 110.255 30.5576 110.326 30.5576C110.397 30.5576 110.473 30.5576 110.544 30.5576C110.961 30.5576 111.279 30.6236 111.483 30.7512C111.715 30.8977 111.853 31.1339 111.853 31.3985C111.853 31.9087 111.516 32.2867 110.914 32.4662C111.308 32.641 111.511 32.9387 111.511 33.3402C111.511 33.4111 111.497 33.7654 111.179 34.0536C110.909 34.2898 110.506 34.3985 109.908 34.3985L109.913 34.3938ZM109.121 34.1954C109.254 34.1954 109.387 34.1954 109.519 34.2048C109.652 34.2048 109.785 34.2142 109.913 34.2142C110.463 34.2142 110.828 34.1198 111.061 33.9119C111.322 33.6757 111.331 33.3875 111.331 33.3355C111.331 32.9339 111.085 32.6694 110.596 32.5465H110.572L110.511 32.4804L110.53 32.4095C110.53 32.4095 110.539 32.3906 110.553 32.3765C110.425 32.4142 110.293 32.4331 110.164 32.4331C110.098 32.4331 109.97 32.4331 109.87 32.4095L109.78 32.3859L110.221 30.7702L110.278 30.7607C110.34 30.7465 110.402 30.7465 110.468 30.7465C110.895 30.7465 111.246 31.0583 111.246 31.4457C111.236 31.9418 110.966 32.2205 110.639 32.3481C111.018 32.2772 111.673 32.0599 111.673 31.3985C111.673 31.1103 111.474 30.9544 111.388 30.9024C111.213 30.7938 110.928 30.7371 110.544 30.7371C110.473 30.7371 110.402 30.7371 110.33 30.7371C110.259 30.7371 110.183 30.7371 110.112 30.7371C109.975 30.7418 109.832 30.7465 109.685 30.7465H109.282V30.7654H109.368C109.619 30.7654 109.709 30.8883 109.709 30.9969C109.709 31.0489 109.7 31.1198 109.676 31.219L108.988 33.7891C108.945 33.9544 108.855 34.1764 108.576 34.1764H108.419V34.2095C108.523 34.2095 108.628 34.2048 108.737 34.2001C108.865 34.2001 108.993 34.1906 109.121 34.1906V34.1954ZM110.008 32.2442C110.065 32.2489 110.127 32.2489 110.164 32.2489C110.373 32.2489 111.051 32.1922 111.066 31.4363C111.066 31.1576 110.791 30.9213 110.473 30.9213C110.435 30.9213 110.402 30.9213 110.373 30.9213L110.013 32.2394L110.008 32.2442ZM109.918 34.2048C109.847 34.2048 109.628 34.1906 109.529 34.1245C109.353 34.0253 109.41 33.8221 109.439 33.7135L109.78 32.4331H109.918C110.383 32.4473 110.881 32.6646 110.881 33.2363C110.881 33.7182 110.549 34.2048 109.918 34.2048ZM109.918 32.6127L109.614 33.756C109.562 33.9355 109.595 33.9544 109.624 33.9686C109.666 33.9969 109.813 34.0205 109.918 34.0205C110.454 34.0205 110.696 33.6142 110.696 33.2315C110.696 32.6788 110.112 32.6127 109.923 32.608L109.918 32.6127Z"
            fill="#0061A7" />
        <path
            d="M114.306 32.0268C114.339 32.0268 114.349 32.0457 114.339 32.0835C114.24 32.3103 113.979 33.0047 113.936 33.1418C113.912 33.241 113.708 33.8693 113.708 33.9307C113.708 33.9874 113.732 33.9969 113.775 33.9969C113.851 33.9969 114.069 33.737 114.112 33.6851C114.135 33.6614 114.145 33.652 114.164 33.6662L114.23 33.7134C114.23 33.7134 114.24 33.7465 114.23 33.7795C114.173 33.8882 113.794 34.3418 113.367 34.3418C113.248 34.3418 113.191 34.2851 113.191 34.2C113.191 34.1244 113.225 34.0063 113.419 33.4441L113.386 33.4347C113.158 33.7701 112.712 34.3465 112.266 34.3465C112.124 34.3465 111.93 34.1859 111.93 33.9544C111.93 33.2268 112.693 32.0362 113.419 32.0362C113.656 32.0362 113.77 32.1355 113.832 32.2205L113.917 32.0693C113.941 32.0362 113.969 32.0268 114.002 32.0268H114.296H114.306ZM113.49 32.9811C113.566 32.8299 113.618 32.6646 113.618 32.4945C113.618 32.4095 113.519 32.2536 113.367 32.2536C113.229 32.2536 113.063 32.3811 112.921 32.5843C112.617 33.0142 112.466 33.5008 112.466 33.8032C112.466 33.9213 112.508 33.9733 112.598 33.9733C112.807 33.9733 113.391 33.1843 113.49 32.9764V32.9811Z"
            fill="#0061A7" />
        <path
            d="M113.366 34.4362C113.172 34.4362 113.101 34.3181 113.101 34.2047C113.101 34.1433 113.115 34.0771 113.186 33.8551C112.859 34.2425 112.55 34.4362 112.266 34.4362C112.067 34.4362 111.839 34.2283 111.839 33.9543C111.839 33.2173 112.621 31.9464 113.418 31.9464C113.58 31.9464 113.712 31.9889 113.812 32.0693L113.84 32.022C113.878 31.9606 113.94 31.9323 114.006 31.9323H114.301C114.357 31.9323 114.391 31.9653 114.405 31.9842C114.419 32.0031 114.438 32.0456 114.419 32.1071C114.319 32.3338 114.059 33.0283 114.016 33.1653C114.011 33.1984 113.973 33.3212 113.926 33.463C113.888 33.5858 113.831 33.7653 113.807 33.8693C113.869 33.8173 113.959 33.7134 114.03 33.6283C114.059 33.6 114.092 33.5716 114.135 33.5716H114.163L114.291 33.6661C114.324 33.7134 114.315 33.77 114.305 33.8078C114.229 33.9543 113.826 34.4362 113.357 34.4362H113.366ZM113.366 33.3354L113.537 33.3921L113.508 33.4771C113.333 33.9921 113.286 34.1386 113.286 34.2047C113.286 34.2283 113.286 34.2567 113.366 34.2567C113.527 34.2567 113.689 34.1763 113.821 34.0819C113.803 34.0913 113.788 34.0913 113.774 34.0913C113.632 34.0913 113.618 33.9826 113.618 33.9354C113.618 33.8882 113.655 33.7653 113.76 33.4157C113.802 33.2834 113.84 33.1653 113.845 33.1275C113.888 32.9905 114.106 32.4 114.22 32.1212H114.006L113.845 32.3905L113.765 32.2819C113.712 32.2157 113.627 32.1354 113.423 32.1354C112.773 32.1354 112.024 33.2409 112.024 33.9637C112.024 34.148 112.185 34.2614 112.27 34.2614C112.508 34.2614 112.792 34.0582 113.101 33.685C112.916 33.8976 112.726 34.0724 112.598 34.0724C112.531 34.0724 112.375 34.0488 112.375 33.8078C112.375 33.5102 112.522 33 112.849 32.537C113.015 32.3008 113.2 32.1685 113.366 32.1685C113.575 32.1685 113.708 32.3622 113.708 32.4992C113.708 32.6645 113.665 32.8346 113.57 33.0236C113.542 33.0756 113.47 33.1937 113.366 33.3354ZM113.366 32.348C113.262 32.348 113.124 32.4567 112.996 32.6409C112.693 33.0708 112.555 33.5386 112.555 33.8078C112.555 33.8882 112.574 33.8882 112.598 33.8882C112.74 33.8787 113.29 33.1937 113.409 32.9433C113.489 32.7779 113.527 32.6315 113.527 32.4945C113.527 32.4519 113.461 32.3433 113.366 32.3433V32.348Z"
            fill="#0061A7" />
        <path
            d="M115.192 34.2567C115.192 34.2567 115.169 34.2898 115.116 34.2898H114.77C114.718 34.2898 114.718 34.252 114.727 34.2189L115.097 33.2173C115.216 32.8677 115.344 32.5323 115.344 32.4567C115.344 32.4047 115.316 32.3716 115.263 32.3716C115.164 32.3716 114.955 32.5654 114.87 32.6504C114.856 32.674 114.837 32.674 114.822 32.6551L114.761 32.5937C114.761 32.5937 114.727 32.5606 114.751 32.5417C114.827 32.4425 115.183 32.0315 115.681 32.0315C115.842 32.0315 115.89 32.1402 115.89 32.2157C115.89 32.3386 115.733 32.7024 115.633 32.9433L115.667 32.9622C115.828 32.7118 116.331 32.0315 116.848 32.0315C117.052 32.0315 117.161 32.1827 117.161 32.3386C117.161 32.4756 117.09 32.7307 116.867 33.2882C116.724 33.6472 116.648 33.8551 116.648 33.926C116.648 33.9827 116.667 34.0157 116.715 34.0157C116.791 34.0157 116.999 33.8315 117.052 33.7559C117.075 33.7465 117.094 33.7465 117.118 33.7654L117.175 33.8079C117.175 33.8079 117.199 33.8409 117.175 33.874C117.109 33.9591 116.729 34.3417 116.274 34.3417C116.155 34.3417 116.089 34.2756 116.089 34.1811C116.089 34.0866 116.241 33.7134 116.416 33.2409C116.497 33.0142 116.653 32.6031 116.653 32.537C116.653 32.4472 116.606 32.4094 116.525 32.4094C116.359 32.4094 115.904 32.8394 115.676 33.2126C115.567 33.3874 115.472 33.548 115.382 33.7654L115.207 34.2614L115.192 34.2567Z"
            fill="#0061A7" />
        <path
            d="M116.255 34.4362C116.089 34.4362 115.98 34.3323 115.98 34.1811C115.98 34.096 116.042 33.926 116.174 33.5811C116.217 33.4677 116.265 33.3449 116.312 33.2078L116.359 33.085C116.421 32.9102 116.54 32.5889 116.544 32.5323C116.544 32.4945 116.535 32.4945 116.511 32.4945C116.412 32.4945 115.985 32.8535 115.738 33.2504C115.629 33.4299 115.534 33.5811 115.453 33.7889L115.283 34.285C115.24 34.37 115.178 34.3748 115.121 34.3748H114.775C114.709 34.3748 114.676 34.3417 114.661 34.3228C114.633 34.285 114.628 34.2378 114.647 34.1858L115.017 33.1795C115.05 33.0897 115.079 32.9952 115.112 32.9102C115.183 32.7165 115.259 32.4945 115.264 32.4519C115.24 32.4614 115.117 32.537 114.951 32.7023C114.908 32.759 114.818 32.7685 114.766 32.7118L114.714 32.6598C114.68 32.6409 114.661 32.6126 114.657 32.5748C114.652 32.537 114.666 32.4992 114.695 32.4661C114.699 32.4567 115.098 31.9323 115.686 31.9323C115.89 31.9323 115.985 32.074 115.985 32.2063C115.985 32.2677 115.961 32.3622 115.914 32.485C116.16 32.211 116.492 31.9323 116.848 31.9323C117.109 31.9323 117.251 32.1354 117.251 32.3291C117.251 32.4945 117.166 32.7779 116.952 33.3118C116.876 33.5008 116.758 33.8078 116.744 33.9023C116.81 33.8645 116.938 33.7559 116.981 33.6945L117.014 33.6661C117.061 33.6378 117.118 33.6236 117.185 33.6945L117.232 33.7275C117.232 33.7275 117.27 33.7606 117.28 33.7937C117.294 33.8504 117.261 33.8976 117.251 33.9118C117.166 34.0204 116.767 34.4173 116.274 34.4173L116.255 34.4362ZM116.506 32.3149C116.634 32.3149 116.725 32.4047 116.725 32.537C116.725 32.5984 116.668 32.7638 116.53 33.1464L116.487 33.2693C116.44 33.4063 116.393 33.5291 116.35 33.6425C116.26 33.8787 116.17 34.1244 116.17 34.1811C116.17 34.2047 116.17 34.2519 116.265 34.2519C116.449 34.2519 116.62 34.1811 116.758 34.096C116.653 34.1338 116.554 34.0771 116.554 33.926C116.554 33.8456 116.601 33.6992 116.782 33.2551C116.981 32.7543 117.066 32.4708 117.066 32.3386C117.066 32.2346 117 32.126 116.848 32.126C116.616 32.126 116.355 32.3008 116.127 32.5323C116.279 32.4 116.421 32.3102 116.516 32.3102L116.506 32.3149ZM114.827 34.2H115.117L115.278 33.7323C115.368 33.5055 115.468 33.3401 115.582 33.1606C115.6 33.1323 115.619 33.0992 115.643 33.0708L115.515 32.9811L115.572 32.8393C115.653 32.6409 115.79 32.3149 115.79 32.2252C115.79 32.1968 115.781 32.1354 115.672 32.1354C115.382 32.1354 115.145 32.2866 114.993 32.4236C115.102 32.3386 115.193 32.2913 115.254 32.2913C115.354 32.2913 115.425 32.3669 115.425 32.4661C115.425 32.5323 115.373 32.6834 115.264 32.9858C115.231 33.0708 115.202 33.1606 115.169 33.2551L114.818 34.2047L114.827 34.2Z"
            fill="#0061A7" />
        <path
            d="M118.683 32.5984C118.854 32.3717 119.243 32.0362 119.613 32.0362C119.802 32.0362 119.954 32.1213 119.954 32.3575C119.954 32.7732 119.214 33.189 118.963 33.2882V33.3213L119.333 33.9024C119.418 34.0347 119.494 34.1055 119.565 34.1055C119.655 34.1055 119.745 34.0205 119.798 33.9638C119.807 33.9402 119.831 33.9543 119.84 33.9638L119.902 34.0299C119.902 34.0299 119.911 34.063 119.892 34.0819C119.807 34.1669 119.622 34.3417 119.338 34.3417C119.053 34.3417 118.949 34.252 118.825 34.0158L118.564 33.463C118.531 33.3874 118.446 33.378 118.346 33.3874L118.019 34.2425C118.009 34.2756 117.986 34.285 117.943 34.285H117.573C117.54 34.285 117.516 34.252 117.54 34.2095L118.778 31.0536C118.825 30.926 118.778 30.8268 118.602 30.8268H118.46C118.427 30.8268 118.417 30.8032 118.427 30.7701L118.47 30.6709C118.484 30.6378 118.484 30.6284 118.526 30.6284H119.394C119.447 30.6284 119.456 30.6851 119.432 30.7323L118.631 32.5843L118.664 32.5937L118.683 32.5984ZM118.408 33.2504C118.877 33.326 119.461 32.7732 119.461 32.4898C119.461 32.4095 119.409 32.348 119.309 32.348C119.115 32.348 118.754 32.6599 118.692 32.7496C118.636 32.8063 118.574 32.8819 118.531 32.9433L118.413 33.2457L118.408 33.2504Z"
            fill="#0061A7" />
        <path
            d="M119.343 34.4362C119.006 34.4362 118.878 34.3087 118.75 34.063L118.489 33.5055C118.489 33.5055 118.461 33.4819 118.418 33.4772L118.115 34.2756C118.096 34.3417 118.039 34.3748 117.953 34.3748H117.583C117.536 34.3748 117.493 34.3512 117.47 34.3134C117.441 34.2709 117.441 34.2142 117.47 34.1669L118.703 31.0205C118.717 30.9874 118.717 30.9543 118.712 30.9449C118.703 30.9307 118.674 30.9213 118.617 30.9213H118.475C118.432 30.9213 118.394 30.9024 118.371 30.8693C118.357 30.8504 118.333 30.8079 118.357 30.7464L118.404 30.6378C118.423 30.5905 118.451 30.5386 118.542 30.5386H119.41C119.457 30.5386 119.5 30.5622 119.528 30.6C119.557 30.6472 119.557 30.7087 119.528 30.7701L118.888 32.2535C119.087 32.0929 119.343 31.9417 119.609 31.9417C119.874 31.9417 120.04 32.0976 120.04 32.3527C120.04 32.7968 119.367 33.1937 119.077 33.3307L119.405 33.8504C119.509 34.0063 119.552 34.011 119.561 34.011C119.613 34.011 119.68 33.9496 119.718 33.9071L119.737 33.8693L119.813 33.8551C119.855 33.8551 119.889 33.8835 119.903 33.8929L119.969 33.959C120.007 34.0016 120.017 34.0772 119.96 34.1386C119.879 34.2189 119.67 34.4268 119.338 34.4268L119.343 34.4362ZM118.584 33.3449C118.622 33.3732 118.641 33.4016 118.655 33.4346L118.916 33.9827C119.021 34.1858 119.096 34.2567 119.348 34.2567C119.447 34.2567 119.538 34.2331 119.609 34.1953C119.471 34.2142 119.353 34.0866 119.262 33.9543L118.878 33.3496V33.2646C118.779 33.3071 118.684 33.3354 118.589 33.3496L118.584 33.3449ZM117.65 34.2H117.944L118.276 33.326L118.437 32.915C118.485 32.8394 118.551 32.759 118.622 32.6882C118.622 32.6882 118.622 32.6835 118.627 32.6787L118.518 32.6457L119.348 30.7276H118.556V30.7417H118.608C118.75 30.7417 118.821 30.7984 118.855 30.8457C118.902 30.9118 118.902 30.9968 118.869 31.0913L117.65 34.2ZM119.305 32.4425C119.158 32.4425 118.826 32.7213 118.76 32.8063C118.689 32.8772 118.636 32.9433 118.603 32.9953L118.537 33.1653C118.708 33.1512 118.911 33.0567 119.087 32.9055C119.281 32.7402 119.372 32.5748 119.372 32.4945C119.372 32.4661 119.362 32.4425 119.31 32.4425H119.305ZM119.305 32.263C119.447 32.263 119.547 32.3575 119.547 32.4945C119.547 32.6787 119.372 32.9008 119.201 33.0472C119.168 33.0709 119.139 33.0945 119.111 33.1181C119.419 32.9527 119.855 32.6409 119.855 32.3575C119.855 32.2583 119.827 32.1307 119.604 32.1307C119.438 32.1307 119.262 32.211 119.111 32.315C119.182 32.2819 119.248 32.263 119.305 32.263Z"
            fill="#0061A7" />
        <path
            d="M69.0845 32.159C69.0845 33.2409 68.3114 34.3701 67.0829 34.3701C66.8648 34.3701 66.4379 34.337 66.1011 34.011C65.7644 33.685 65.6221 33.2504 65.6221 32.7638C65.6221 31.6393 66.4474 30.5764 67.5999 30.5764C68.4679 30.5764 69.0798 31.1622 69.0798 32.159H69.0845ZM66.9549 31.2378C66.509 31.7386 66.1818 32.537 66.1818 33.1323C66.1818 33.8031 66.5375 34.1149 66.9833 34.1149C67.7802 34.1149 68.4821 32.9008 68.4964 31.7338C68.4964 31.1905 68.226 30.8315 67.7375 30.8315C67.4102 30.8315 67.1493 31.0063 66.9549 31.233V31.2378Z"
            fill="#0061A7" />
        <path
            d="M67.0832 34.4599C66.6563 34.4599 66.3053 34.3323 66.0397 34.0772C65.703 33.7512 65.5322 33.3118 65.5322 32.7638C65.5322 31.5071 66.4619 30.4866 67.605 30.4866C68.5583 30.4866 69.1749 31.1433 69.1749 32.1591C69.1749 33.2646 68.3733 34.4599 67.0832 34.4599ZM67.605 30.6662C66.4382 30.6662 65.7172 31.7528 65.7172 32.7638C65.7172 33.2599 65.869 33.6567 66.1678 33.9449C66.3955 34.1669 66.7038 34.2756 67.0832 34.2756C68.2642 34.2756 68.9947 33.1748 68.9947 32.1591C68.9947 31.2378 68.4634 30.6662 67.605 30.6662ZM66.9836 34.2095C66.552 34.2095 66.0872 33.926 66.0872 33.137C66.0872 32.5181 66.4192 31.6961 66.884 31.1811C67.1259 30.8977 67.42 30.7512 67.733 30.7512C68.2595 30.7512 68.582 31.1292 68.582 31.7433C68.5725 32.8866 67.8706 34.2142 66.9789 34.2142L66.9836 34.2095ZM67.733 30.9307C67.4721 30.9307 67.2303 31.0536 67.0168 31.2992C66.5805 31.7858 66.2674 32.5559 66.2674 33.137C66.2674 33.7181 66.533 34.0299 66.9789 34.0299C67.6856 34.0299 68.3876 32.8961 68.397 31.7386C68.397 31.2331 68.1457 30.9307 67.7283 30.9307H67.733Z"
            fill="#0061A7" />
        <path
            d="M64.2231 31.7244C64.2231 31.7244 63.6207 33.5906 64.5598 34.2567H0.822266V31.7339L64.2231 31.7244Z"
            fill="#57AF47" />
        <g opacity="0.97">
            <path
                d="M35.959 0.708679H38.5202C39.2127 0.713404 39.7772 0.883482 40.2088 1.21892C40.6404 1.55435 40.8586 2.08821 40.8586 2.82521C40.8586 3.56222 40.6594 4.12915 40.2657 4.47876C39.872 4.82836 39.3076 5.00317 38.5819 5.00317H37.6333V7.1197H35.959V0.708679ZM37.6333 3.65199H37.9131C38.2167 3.65671 38.4918 3.62836 38.7432 3.56222C38.9946 3.49608 39.1179 3.26931 39.1179 2.87718C39.1179 2.48506 38.9993 2.22994 38.7574 2.15907C38.5202 2.08821 38.2357 2.05041 37.9131 2.05041H37.6333V3.64726V3.65199Z"
                fill="#57AF47" />
            <path
                d="M43.8803 2.61261C44.587 2.61733 45.2036 2.82521 45.7301 3.23151C46.2566 3.63781 46.5222 4.20946 46.5222 4.95593C46.5222 5.70239 46.2566 6.26459 45.7301 6.66617C45.2036 7.06774 44.587 7.27089 43.8803 7.27089C43.1736 7.27089 42.5665 7.07247 42.0353 6.67089C41.504 6.26932 41.2432 5.70239 41.2432 4.95593C41.2432 4.20946 41.504 3.63781 42.0353 3.23151C42.5617 2.82521 43.1783 2.62206 43.8851 2.62206V2.61261H43.8803ZM43.1451 4.2567C42.9696 4.4504 42.8795 4.6819 42.8795 4.95121C42.8795 5.2205 42.9696 5.46144 43.1451 5.65042C43.3206 5.8394 43.5673 5.92916 43.8803 5.92916C44.1934 5.92916 44.4447 5.83467 44.6202 5.64569C44.7957 5.45672 44.8811 5.22522 44.8811 4.94648C44.8811 4.66773 44.7957 4.44568 44.6202 4.25198C44.4447 4.05355 44.1981 3.95907 43.8803 3.95907C43.5673 3.96379 43.3206 4.063 43.1451 4.26143V4.2567Z"
                fill="#57AF47" />
            <path
                d="M49.3965 5.12125L50.4969 2.75903H51.417L52.5174 5.12125L53.6178 2.75903H55.3348L53.0487 7.11968H52.0431L50.957 4.72913L49.8708 7.11968H48.8653L46.5791 2.75903H48.3056L49.3965 5.12125Z"
                fill="#57AF47" />
            <path
                d="M60.2203 5.03622V5.19685H56.9524C56.9524 5.51338 57.033 5.75905 57.199 5.92441C57.365 6.08976 57.6069 6.1748 57.9247 6.1748C58.0907 6.1748 58.233 6.14173 58.3563 6.08031C58.4796 6.01889 58.584 5.91496 58.6694 5.77322H60.1634C60.0401 6.29291 59.7603 6.67086 59.3334 6.90708C58.9018 7.1433 58.4369 7.26141 57.9389 7.26141C57.218 7.26141 56.6109 7.06299 56.1271 6.67086C55.6433 6.27874 55.4014 5.70236 55.4014 4.94645C55.4014 4.19054 55.629 3.65196 56.0796 3.23621C56.5302 2.82046 57.1136 2.61731 57.8251 2.61731C58.5887 2.61731 59.1769 2.83463 59.599 3.274C60.0164 3.70865 60.2251 4.2992 60.2251 5.04094V5.03149L60.2203 5.03622ZM58.7784 4.30392C58.7405 4.10077 58.6361 3.93542 58.4654 3.81259C58.2994 3.68975 58.1097 3.62361 57.8962 3.62361C57.6686 3.62361 57.4694 3.6803 57.2986 3.79369C57.1278 3.90707 57.0188 4.07715 56.9761 4.30392H58.7784Z"
                fill="#57AF47" />
            <path
                d="M62.4826 3.47243H62.5016C62.6486 3.21259 62.8478 3.01889 63.0945 2.89606C63.3411 2.77322 63.6162 2.70708 63.9198 2.70708L64.2186 2.69763V4.18582C64.2186 4.18582 64.1759 4.17165 64.1569 4.1622C64.138 4.15275 64.1142 4.1433 64.0953 4.13858C64.0099 4.10551 63.9245 4.08188 63.8391 4.07243C63.7538 4.06299 63.6637 4.05354 63.5641 4.05354C63.1324 4.05354 62.8431 4.1811 62.7008 4.43149C62.5585 4.68188 62.4874 4.99841 62.4874 5.37164V7.12439H60.9316V2.76377H62.4874V3.47716L62.4826 3.47243Z"
                fill="#57AF47" />
            <path
                d="M69.2985 5.03622V5.19685H66.0305C66.0305 5.51338 66.1111 5.75905 66.2771 5.92441C66.4431 6.08976 66.685 6.1748 67.0028 6.1748C67.1688 6.1748 67.3111 6.14173 67.4344 6.08031C67.5578 6.01889 67.6621 5.91496 67.7475 5.77322H69.2415C69.1182 6.29291 68.8384 6.67086 68.4115 6.90708C67.9799 7.1433 67.5151 7.26141 67.017 7.26141C66.2961 7.26141 65.689 7.06299 65.2052 6.67086C64.7214 6.27874 64.4795 5.70236 64.4795 4.94645C64.4795 4.19054 64.7072 3.65196 65.1578 3.23621C65.6083 2.82046 66.1917 2.61731 66.9032 2.61731C67.6668 2.61731 68.255 2.83463 68.6771 3.274C69.0945 3.70865 69.3032 4.2992 69.3032 5.04094V5.03149L69.2985 5.03622ZM67.8566 4.30392C67.8186 4.10077 67.7143 3.93542 67.5435 3.81259C67.3775 3.68975 67.1878 3.62361 66.9744 3.62361C66.7467 3.62361 66.5475 3.6803 66.3767 3.79369C66.206 3.90707 66.0969 4.07715 66.0542 4.30392H67.8566Z"
                fill="#57AF47" />
            <path
                d="M73.3016 6.63308H73.2826C73.1593 6.83623 72.9885 6.98741 72.7704 7.08663C72.5522 7.18584 72.3293 7.24253 72.0968 7.25198C72.0731 7.2567 72.0494 7.26143 72.0304 7.26143H71.964C71.3142 7.26143 70.783 7.02993 70.3704 6.56694C69.9577 6.10395 69.749 5.56064 69.749 4.93702C69.749 4.3134 69.953 3.77009 70.3609 3.3071C70.7688 2.84411 71.2953 2.6126 71.9451 2.6126H72.0304C72.0589 2.6126 72.0874 2.61261 72.1158 2.62206C72.3387 2.64096 72.5569 2.69292 72.7704 2.78741C72.9838 2.8819 73.164 3.01418 73.3016 3.18426V0.0567017H74.8573V7.11497H73.3016V6.62836V6.63308ZM71.6178 4.2567C71.4423 4.4504 71.3522 4.6819 71.3522 4.95119C71.3522 5.22048 71.4423 5.46143 71.6178 5.6504C71.7933 5.83938 72.0399 5.92915 72.353 5.92915C72.666 5.92915 72.9174 5.83466 73.0929 5.64568C73.2684 5.4567 73.3538 5.22521 73.3538 4.94647C73.3538 4.66773 73.2684 4.44568 73.0929 4.25198C72.9174 4.05828 72.6755 3.95907 72.353 3.95907C72.0399 3.96379 71.7933 4.063 71.6178 4.26143V4.2567Z"
                fill="#57AF47" />
            <path
                d="M78.7038 0.0614014H80.2596V3.18424C80.4113 3.01416 80.6011 2.88188 80.8192 2.78739C81.0374 2.6929 81.2603 2.64093 81.488 2.62203H81.6161C82.2659 2.62203 82.7924 2.85352 83.2003 3.31652C83.6082 3.77951 83.8121 4.32282 83.8121 4.94644C83.8121 5.57006 83.6082 6.11809 83.1955 6.58108C82.7876 7.03935 82.2516 7.27085 81.5971 7.27085H81.4928C81.2556 7.2614 81.0232 7.20471 80.8003 7.10549C80.5773 7.00628 80.4018 6.8551 80.269 6.65195L80.2501 6.6425V7.12912H78.6943V0.0708502L78.7038 0.0614014ZM80.473 4.25667C80.2975 4.45038 80.2074 4.68187 80.2074 4.95116C80.2074 5.22045 80.2975 5.4614 80.473 5.65038C80.6485 5.83935 80.8951 5.92912 81.2082 5.92912C81.5212 5.92912 81.7726 5.83463 81.9481 5.64565C82.1236 5.45667 82.209 5.22518 82.209 4.94644C82.209 4.6677 82.1236 4.44565 81.9481 4.25195C81.7726 4.05825 81.5307 3.95904 81.2082 3.95904C80.8951 3.96376 80.6485 4.06297 80.473 4.2614V4.25667Z"
                fill="#57AF47" />
            <path
                d="M83.9404 2.75903H85.7333L86.9049 4.99369L88.0479 2.75903H89.8171L86.3072 9.29763H84.5665L86.0606 6.5244L83.9452 2.75903H83.9404Z"
                fill="#57AF47" />
        </g>
        <path
            d="M20.3975 40.5212H22.9587C23.6512 40.526 24.2156 40.696 24.6473 41.0315C25.0789 41.3669 25.2971 41.9008 25.2971 42.6378C25.2971 43.3748 25.0979 43.9417 24.7042 44.2913C24.3105 44.6409 23.7461 44.8157 23.0204 44.8157H22.0718V46.9323H20.3975V40.5212ZM22.0718 43.4645H22.3516C22.6552 43.4693 22.9303 43.4409 23.1817 43.3748C23.433 43.3086 23.5564 43.0819 23.5564 42.6897C23.5564 42.2976 23.4378 42.0425 23.1959 41.9716C22.9587 41.9008 22.6741 41.863 22.3516 41.863H22.0718V43.4598V43.4645Z"
            fill="#0061A7" />
        <path
            d="M30.7938 46.9323H29.2381V46.4456H29.2191C29.0958 46.6488 28.9251 46.8 28.7069 46.8992C28.4887 46.9984 28.2658 47.0551 28.0334 47.0645C28.0097 47.0693 27.9859 47.074 27.967 47.074H27.9006C27.2508 47.074 26.7195 46.8425 26.3069 46.3795C25.8942 45.9165 25.6855 45.3732 25.6855 44.7496C25.6855 44.126 25.8895 43.5827 26.2974 43.1197C26.7053 42.6567 27.2318 42.4252 27.8816 42.4252H27.967C27.9954 42.4252 28.0239 42.4252 28.0523 42.4347C28.2753 42.4536 28.4935 42.5055 28.7069 42.6C28.9203 42.6945 29.1006 42.8267 29.2381 42.9968V42.5622H30.7938V46.9229V46.9323ZM27.5591 44.0693C27.3836 44.263 27.2935 44.4945 27.2935 44.7638C27.2935 45.033 27.3836 45.274 27.5591 45.463C27.7346 45.6519 27.9812 45.7418 28.2942 45.7418C28.6073 45.7418 28.8587 45.6472 29.0342 45.4582C29.2097 45.2693 29.295 45.0378 29.295 44.7591C29.295 44.4803 29.2097 44.2583 29.0342 44.0646C28.8587 43.8662 28.612 43.7716 28.2942 43.7716C27.9812 43.7764 27.7346 43.8756 27.5591 44.074V44.0693Z"
            fill="#0061A7" />
        <path
            d="M31.1875 42.5717H32.9803L34.1519 44.8063L35.295 42.5717H37.0642L33.5543 49.1102H31.8136L33.3077 46.337L31.1922 42.5717H31.1875Z"
            fill="#0061A7" />
        <path
            d="M38.9667 43.115H38.9857C39.1659 42.8788 39.3746 42.704 39.6023 42.5953C39.8347 42.4867 40.0861 42.4347 40.3659 42.4347C40.6837 42.4347 40.973 42.5008 41.2339 42.6331C41.4948 42.7654 41.7035 42.978 41.86 43.2662C42.007 42.9922 42.2205 42.789 42.4908 42.6473C42.7612 42.5056 43.0505 42.4347 43.3446 42.4347C43.9043 42.4347 44.2932 42.5953 44.5114 42.9213C44.7296 43.2426 44.8387 43.6583 44.8387 44.1638V46.9371H43.2829V44.641C43.2829 44.5748 43.2829 44.504 43.2734 44.4378C43.2545 44.2441 43.207 44.0693 43.1264 43.9087C43.0458 43.7481 42.8845 43.6725 42.6426 43.6725C42.3533 43.6725 42.1588 43.767 42.0687 43.9512C41.9738 44.1402 41.9217 44.3434 41.9122 44.5654C41.9074 44.6174 41.9027 44.6693 41.9027 44.7166V46.9371H40.347V44.6646C40.347 44.5985 40.347 44.5276 40.3375 44.452C40.3185 44.2489 40.2663 44.0599 40.1762 43.8898C40.0861 43.7197 39.9106 43.6347 39.6545 43.6347C39.3983 43.6347 39.2229 43.7197 39.1327 43.8898C39.0426 44.0599 38.9857 44.2489 38.9715 44.452C38.9667 44.5276 38.962 44.5985 38.962 44.6646V46.9371H37.4062V42.5764H38.962V43.1197L38.9667 43.115Z"
            fill="#0061A7" />
        <path
            d="M50.3541 44.8489V45.0095H47.0861C47.0861 45.326 47.1668 45.5717 47.3328 45.7371C47.4988 45.9024 47.7407 45.9875 48.0585 45.9875C48.2245 45.9875 48.3668 45.9544 48.4901 45.893C48.6134 45.8315 48.7178 45.7276 48.8031 45.5859H50.2972C50.1739 46.1056 49.8941 46.4835 49.4672 46.7197C49.0356 46.956 48.5707 47.0741 48.0727 47.0741C47.3518 47.0741 46.7446 46.8756 46.2608 46.4835C45.777 46.0914 45.5352 45.515 45.5352 44.7638C45.5352 44.0126 45.7628 43.4693 46.2134 43.0536C46.664 42.6378 47.2474 42.4347 47.9589 42.4347C48.7225 42.4347 49.3107 42.652 49.7328 43.0914C50.1502 43.526 50.3589 44.1166 50.3589 44.8583V44.8489H50.3541ZM48.9122 44.1166C48.8743 43.9134 48.7699 43.7481 48.5992 43.6252C48.4332 43.5024 48.2435 43.4363 48.03 43.4363C47.8024 43.4363 47.6031 43.493 47.4324 43.6063C47.2616 43.7197 47.1525 43.8898 47.1099 44.1166H48.9122Z"
            fill="#0061A7" />
        <path
            d="M52.6174 43.1339H52.6364C52.8166 42.874 53.0206 42.6897 53.2482 42.5905C53.4711 42.4866 53.7368 42.4394 54.0403 42.4394C54.6332 42.4394 55.0553 42.6047 55.3067 42.9402C55.5581 43.2756 55.6862 43.7103 55.6862 44.2488V46.937H54.1304V44.5559C54.1304 44.4992 54.1304 44.4425 54.121 44.3858C54.1115 44.211 54.0593 44.0457 53.9692 43.8945C53.8791 43.7433 53.6988 43.6677 53.4332 43.6677C53.1202 43.6677 52.9067 43.767 52.7929 43.9701C52.6791 44.1732 52.6221 44.4095 52.6221 44.6788V46.9323H51.0664V42.5717H52.6221V43.1339H52.6174Z"
            fill="#0061A7" />
        <path
            d="M58.4032 46.9323H56.8475V43.8473H56.3447V42.5717H56.8475V41.263H58.4032V42.5717H59.2807V43.8473H58.4032V46.9323Z"
            fill="#0061A7" />
        <path
            d="M69.1607 43.3512C69.1559 43.8236 69.1132 44.263 69.0421 44.674C68.9662 45.085 68.7907 45.4913 68.5061 45.8929C68.1931 46.3276 67.8089 46.6488 67.3488 46.8473C66.8887 47.0457 66.3907 47.1449 65.85 47.1449C64.835 47.1449 64.0097 46.8331 63.3741 46.2142C62.7385 45.5953 62.416 44.778 62.416 43.7717C62.416 42.7654 62.7385 41.8913 63.3836 41.263C64.0287 40.6347 64.8682 40.3181 65.9069 40.3181C66.5662 40.3181 67.1449 40.4646 67.6429 40.7622C68.1409 41.0598 68.5299 41.5087 68.8097 42.1087L67.2208 42.7654C67.1069 42.463 66.9314 42.2221 66.6895 42.0331C66.4524 41.8441 66.1631 41.7543 65.8263 41.7543C65.3093 41.7543 64.9109 41.948 64.6263 42.3307C64.3465 42.7181 64.1899 43.1386 64.1615 43.5969C64.1567 43.6252 64.152 43.6536 64.152 43.6866V43.8284C64.1615 44.315 64.3132 44.7638 64.6026 45.1701C64.8919 45.5764 65.3093 45.7843 65.85 45.7843C66.2152 45.7843 66.5235 45.6898 66.7702 45.5055C67.0216 45.3165 67.1638 45.0425 67.197 44.674H65.831V43.3559H69.1512L69.1607 43.3512Z"
            fill="#0061A7" />
        <path
            d="M74.6866 46.9323H73.1308V46.4456H73.1119C72.9885 46.6488 72.8178 46.8 72.5996 46.8992C72.3814 46.9984 72.1585 47.0551 71.9261 47.0645C71.9024 47.0693 71.8787 47.074 71.8597 47.074H71.7933C71.1435 47.074 70.6123 46.8425 70.1996 46.3795C69.787 45.9165 69.583 45.3732 69.583 44.7496C69.583 44.126 69.787 43.5827 70.1949 43.1197C70.6028 42.6567 71.1293 42.4252 71.7791 42.4252H71.8644C71.8929 42.4252 71.9214 42.4252 71.9498 42.4347C72.1727 42.4536 72.3909 42.5055 72.6044 42.6C72.8178 42.6945 72.9933 42.8267 73.1356 42.9968V42.5622H74.6913V46.9229L74.6866 46.9323ZM71.4518 44.0693C71.2763 44.263 71.1862 44.4945 71.1862 44.7638C71.1862 45.033 71.2763 45.274 71.4518 45.463C71.6273 45.6519 71.8739 45.7418 72.187 45.7418C72.5 45.7418 72.7514 45.6472 72.9269 45.4582C73.1024 45.2693 73.1878 45.0378 73.1878 44.7591C73.1878 44.4803 73.1024 44.2583 72.9269 44.0646C72.7514 43.8662 72.5095 43.7716 72.187 43.7716C71.8739 43.7764 71.6273 43.8756 71.4518 44.074V44.0693Z"
            fill="#0061A7" />
        <path
            d="M77.4188 46.9323H75.8631V43.8473H75.3604V42.5717H75.8631V41.263H77.4188V42.5717H78.2963V43.8473H77.4188V46.9323Z"
            fill="#0061A7" />
        <path
            d="M83.2905 44.8489V45.0095H80.0225C80.0225 45.326 80.1032 45.5717 80.2692 45.7371C80.4352 45.9024 80.6771 45.9875 80.9949 45.9875C81.1609 45.9875 81.3032 45.9544 81.4265 45.893C81.5498 45.8315 81.6541 45.7276 81.7395 45.5859H83.2336C83.1103 46.1056 82.8304 46.4835 82.3988 46.7197C81.9672 46.956 81.5024 47.0741 81.0043 47.0741C80.2834 47.0741 79.6763 46.8756 79.1925 46.4835C78.7087 46.0914 78.4668 45.515 78.4668 44.7638C78.4668 44.0126 78.6945 43.4693 79.1451 43.0536C79.5956 42.6378 80.1791 42.4347 80.8905 42.4347C81.6541 42.4347 82.2423 42.652 82.6644 43.0914C83.0818 43.526 83.2905 44.1166 83.2905 44.8583V44.8489ZM81.8486 44.1166C81.8107 43.9134 81.7063 43.7481 81.5356 43.6252C81.3696 43.5024 81.1798 43.4363 80.9664 43.4363C80.7387 43.4363 80.5395 43.493 80.3688 43.6063C80.198 43.7197 80.0889 43.8898 80.0462 44.1166H81.8486Z"
            fill="#0061A7" />
        <path
            d="M86.1738 44.9339L87.2742 42.5717H88.1944L89.2948 44.9339L90.3952 42.5717H92.1122L89.826 46.9323H88.8205L87.7343 44.5417L86.6481 46.9323H85.6426L83.3564 42.5717H85.0829L86.1738 44.9339Z"
            fill="#0061A7" />
        <path
            d="M97.292 46.9323H95.7363V46.4456H95.7173C95.594 46.6488 95.4233 46.8 95.2051 46.8992C94.9869 46.9984 94.764 47.0551 94.5316 47.0645C94.5078 47.0693 94.4841 47.074 94.4652 47.074H94.3988C93.749 47.074 93.2177 46.8425 92.8051 46.3795C92.3924 45.9165 92.1885 45.3732 92.1885 44.7496C92.1885 44.126 92.3924 43.5827 92.8003 43.1197C93.2082 42.6567 93.7347 42.4252 94.3845 42.4252H94.4699C94.4984 42.4252 94.5268 42.4252 94.5553 42.4347C94.7782 42.4536 94.9964 42.5055 95.2098 42.6C95.4233 42.6945 95.5988 42.8267 95.741 42.9968V42.5622H97.2968V46.9229L97.292 46.9323ZM94.0573 44.0693C93.8818 44.263 93.7916 44.4945 93.7916 44.7638C93.7916 45.033 93.8818 45.274 94.0573 45.463C94.2327 45.6519 94.4794 45.7418 94.7924 45.7418C95.1055 45.7418 95.3569 45.6472 95.5324 45.4582C95.7078 45.2693 95.7932 45.0378 95.7932 44.7591C95.7932 44.4803 95.7078 44.2583 95.5324 44.0646C95.3569 43.8662 95.115 43.7716 94.7924 43.7716C94.4794 43.7764 94.2327 43.8756 94.0573 44.074V44.0693Z"
            fill="#0061A7" />
        <path
            d="M97.6855 42.5717H99.4784L100.65 44.8063L101.793 42.5717H103.562L100.052 49.1102H98.3116L99.8057 46.337L97.6903 42.5717H97.6855Z"
            fill="#0061A7" />
    </g>
    <defs>
        <clipPath id="clip0_6219_29682">
            <rect width="120" height="49.1339" fill="white" transform="translate(0.5)" />
        </clipPath>
    </defs>
</svg>