<svg width="393" height="220" viewBox="0 0 393 220" fill="none" xmlns="http://www.w3.org/2000/svg">
<rect width="393" height="220" fill="#A5E8EC"/>
<g clip-path="url(#clip0_3214_13962)">
<path d="M303.082 110.776C302.344 108.619 301.237 106.779 299.789 105.309L299.731 105.25L299.677 105.194L299.613 105.129L299.568 105.083L299.501 105.014L299.444 104.956L299.386 104.897L299.332 104.841L299.271 104.779L299.21 104.717L299.156 104.661L299.095 104.599L299.057 104.56L299.044 104.547L298.983 104.485L298.922 104.423L298.865 104.364L298.82 104.318L298.753 104.25L298.699 104.194L298.651 104.145L298.638 104.132L298.58 104.073L298.516 104.008L298.468 103.959L298.398 103.887L298.34 103.828L298.296 103.782L298.229 103.714L298.177 103.661L298.123 103.606L298.062 103.544L297.995 103.475L297.954 103.433L297.88 103.357L297.826 103.302L297.765 103.24L297.704 103.178L297.65 103.122L297.589 103.06L297.532 103.001L297.477 102.946L297.416 102.884L297.359 102.825L297.314 102.779L297.244 102.707L297.193 102.655L297.145 102.606L297.132 102.593L297.074 102.534L297.02 102.478L296.966 102.423L296.895 102.351L296.838 102.292L296.793 102.246L296.726 102.178L296.665 102.115L296.611 102.06L296.563 102.011L296.496 101.942L296.451 101.897L296.438 101.883L296.377 101.821L296.316 101.759L296.262 101.704L296.201 101.642L296.144 101.583L296.105 101.54L296.093 101.527L296.035 101.468L295.981 101.413L295.926 101.357L295.856 101.285L295.805 101.233L295.741 101.168L295.69 101.115L295.642 101.066L295.629 101.053L295.565 100.988L295.517 100.939L295.46 100.88L295.392 100.811L295.338 100.756L295.284 100.7L295.223 100.638L295.162 100.576L295.108 100.521L295.06 100.472L294.993 100.403L294.948 100.357L294.935 100.344L294.874 100.282L294.82 100.226L294.759 100.164L294.699 100.102L294.641 100.043L294.603 100.001L294.59 99.9879L294.532 99.9291L294.478 99.8735L294.424 99.818L294.353 99.7461L294.302 99.6938L294.238 99.6284L294.181 99.5696L294.123 99.5108L294.069 99.4552L294.014 99.3996C293.522 98.8898 292.985 98.4224 292.422 98.0074C290.158 96.3406 287.14 95.5301 283.191 95.5301H283.14C281.749 95.5563 280.534 95.7197 279.466 96.0236H266.874L266.801 98.1054L265.26 98.0662L256.876 97.8472L255.152 97.7394L255.066 97.7329H254.024L253.928 97.7394C253.304 97.7819 252.511 97.8799 251.501 98.0433C250.503 98.2035 249.41 98.4323 248.249 98.7231C246.922 99.0565 245.576 99.6023 244.249 100.344C242.964 101.066 241.755 101.926 240.658 102.9C239.849 103.619 239.124 104.485 238.491 105.482C238.491 105.482 238.487 105.478 238.484 105.475C238.465 105.456 238.446 105.436 238.427 105.416C238.407 105.397 238.388 105.377 238.369 105.358C238.35 105.338 238.331 105.318 238.311 105.299C238.292 105.279 238.273 105.259 238.254 105.24C238.235 105.22 238.216 105.201 238.196 105.181C238.177 105.161 238.158 105.142 238.139 105.122C238.12 105.103 238.1 105.083 238.081 105.063C238.062 105.044 238.043 105.024 238.024 105.005C238.005 104.985 237.985 104.965 237.966 104.946C237.947 104.926 237.928 104.907 237.909 104.887C237.889 104.867 237.87 104.848 237.848 104.825C237.829 104.805 237.809 104.786 237.794 104.769C237.774 104.75 237.755 104.73 237.736 104.71C237.717 104.691 237.698 104.671 237.682 104.655C237.662 104.635 237.643 104.616 237.624 104.596C237.605 104.576 237.586 104.557 237.566 104.537C237.547 104.518 237.528 104.498 237.509 104.478C237.49 104.459 237.471 104.439 237.451 104.42C237.432 104.4 237.413 104.38 237.394 104.361C237.375 104.341 237.355 104.322 237.336 104.302C237.317 104.282 237.298 104.263 237.279 104.243C237.26 104.223 237.24 104.204 237.221 104.184C237.202 104.165 237.183 104.145 237.164 104.125C237.144 104.106 237.125 104.083 237.103 104.063C237.084 104.044 237.064 104.024 237.048 104.008C237.029 103.988 237.01 103.969 236.991 103.949C236.972 103.929 236.953 103.91 236.933 103.89C236.914 103.871 236.895 103.851 236.876 103.831C236.857 103.812 236.837 103.792 236.818 103.772C236.799 103.753 236.78 103.733 236.761 103.714C236.742 103.694 236.722 103.674 236.703 103.655C236.684 103.635 236.665 103.616 236.642 103.593C236.623 103.573 236.604 103.553 236.585 103.534C236.566 103.514 236.547 103.495 236.527 103.475C236.508 103.455 236.489 103.436 236.47 103.416C236.451 103.397 236.431 103.377 236.412 103.357C236.393 103.338 236.374 103.315 236.351 103.295C236.332 103.276 236.313 103.256 236.294 103.236C236.275 103.217 236.256 103.197 236.236 103.178C236.217 103.158 236.198 103.138 236.182 103.122C236.163 103.102 236.144 103.083 236.124 103.063C236.105 103.044 236.086 103.024 236.067 103.004C236.048 102.985 236.029 102.965 236.009 102.946C235.99 102.926 235.971 102.906 235.952 102.887C235.933 102.867 235.913 102.848 235.894 102.828C235.875 102.808 235.856 102.789 235.837 102.769C235.817 102.75 235.798 102.73 235.779 102.71C235.76 102.691 235.741 102.671 235.722 102.651C235.706 102.635 235.69 102.619 235.674 102.602C235.14 102.031 234.554 101.521 233.931 101.083C232.409 100.017 230.714 99.2297 228.898 98.7427C228.578 98.6578 228.249 98.5793 227.913 98.5074L227.853 94.8275V94.8144V94.8013C227.83 93.9026 227.463 93.0463 226.833 92.4221C226.813 92.4025 226.797 92.3829 226.778 92.3665C226.759 92.3469 226.74 92.3273 226.721 92.3077C226.702 92.2881 226.682 92.2685 226.663 92.2489C226.644 92.2292 226.625 92.2096 226.606 92.19C226.586 92.1704 226.567 92.1508 226.548 92.1312C226.529 92.1116 226.51 92.092 226.491 92.0724C226.471 92.0528 226.452 92.0332 226.433 92.0135C226.414 91.9939 226.395 91.9743 226.375 91.9547C226.356 91.9351 226.337 91.9155 226.318 91.8959C226.299 91.8763 226.279 91.8567 226.26 91.8371C226.241 91.8175 226.222 91.7978 226.203 91.7782C226.184 91.7586 226.164 91.739 226.145 91.7194C226.126 91.6998 226.107 91.6802 226.088 91.6606C226.068 91.641 226.049 91.6214 226.03 91.6018C226.011 91.5821 225.992 91.5625 225.973 91.5429C225.953 91.5233 225.934 91.5037 225.915 91.4841C225.896 91.4645 225.877 91.4449 225.857 91.4253C225.838 91.4057 225.819 91.3861 225.8 91.3664C225.781 91.3468 225.761 91.3272 225.742 91.3076C225.723 91.288 225.704 91.2684 225.685 91.2488C225.666 91.2292 225.646 91.2096 225.627 91.19C225.608 91.1704 225.589 91.1507 225.57 91.1311C225.55 91.1115 225.531 91.0919 225.512 91.0723C225.493 91.0527 225.474 91.0331 225.455 91.0135C225.435 90.9939 225.416 90.9743 225.397 90.9547C225.378 90.935 225.359 90.9154 225.339 90.8958C225.32 90.8762 225.301 90.8566 225.282 90.837C225.263 90.8174 225.243 90.7978 225.224 90.7782C225.205 90.7586 225.186 90.739 225.167 90.7193C225.148 90.6997 225.128 90.6801 225.109 90.6605C225.09 90.6409 225.071 90.6213 225.052 90.6017C225.032 90.5821 225.013 90.5625 224.994 90.5429C224.975 90.5233 224.956 90.5036 224.937 90.484C224.917 90.4644 224.898 90.4448 224.879 90.4252C224.86 90.4056 224.841 90.386 224.825 90.3697C224.805 90.35 224.786 90.3272 224.764 90.3076C224.745 90.2879 224.726 90.2683 224.706 90.2487C224.687 90.2291 224.668 90.2095 224.649 90.1899C224.63 90.1703 224.61 90.1507 224.591 90.1311C224.572 90.1115 224.553 90.0919 224.534 90.0722C224.514 90.0526 224.495 90.033 224.479 90.0167C224.46 89.9971 224.441 89.9742 224.419 89.9546C224.399 89.935 224.38 89.9154 224.361 89.8958C224.342 89.8762 224.323 89.8566 224.303 89.8369C224.284 89.8173 224.265 89.7977 224.246 89.7781C224.227 89.7585 224.208 89.7389 224.188 89.7193C224.169 89.6997 224.15 89.6801 224.131 89.6605C224.112 89.6409 224.092 89.6212 224.073 89.6016C224.054 89.582 224.035 89.5624 224.016 89.5428C223.997 89.5232 223.977 89.5036 223.958 89.484C223.939 89.4644 223.92 89.4448 223.901 89.4252C223.881 89.4055 223.862 89.3859 223.843 89.3663C223.824 89.3467 223.805 89.3271 223.785 89.3075C223.766 89.2879 223.747 89.2683 223.728 89.2487C223.709 89.2291 223.69 89.2095 223.67 89.1898C223.651 89.1702 223.632 89.1506 223.613 89.131C223.594 89.1114 223.574 89.0918 223.555 89.0722C223.536 89.0526 223.517 89.033 223.498 89.0134C223.479 88.9938 223.459 88.9741 223.44 88.9545C223.421 88.9349 223.402 88.9153 223.383 88.8957C223.363 88.8761 223.344 88.8565 223.325 88.8369C223.306 88.8173 223.287 88.7977 223.267 88.7781C223.248 88.7584 223.229 88.7388 223.21 88.7192C223.191 88.6996 223.172 88.68 223.152 88.6604C223.133 88.6408 223.114 88.6212 223.095 88.6016C223.076 88.582 223.056 88.5624 223.037 88.5427C223.018 88.5231 222.999 88.5035 222.98 88.4839C222.961 88.4643 222.941 88.4447 222.922 88.4251C222.903 88.4055 222.884 88.3859 222.865 88.3663C222.845 88.3467 222.826 88.327 222.807 88.3074C222.788 88.2878 222.769 88.2682 222.749 88.2486C222.73 88.229 222.711 88.2094 222.692 88.1898C222.673 88.1702 222.654 88.1506 222.634 88.131C222.615 88.1113 222.596 88.0917 222.577 88.0721C222.558 88.0525 222.538 88.0329 222.519 88.0133C222.5 87.9937 222.481 87.9741 222.462 87.9545C222.443 87.9349 222.423 87.9153 222.404 87.8956C222.385 87.876 222.366 87.8564 222.347 87.8368C222.327 87.8172 222.308 87.7976 222.289 87.778C222.27 87.7584 222.251 87.7388 222.232 87.7192C222.212 87.6996 222.193 87.6799 222.171 87.6571C222.152 87.6375 222.132 87.6178 222.116 87.6015C222.097 87.5819 222.078 87.5623 222.059 87.5427C222.04 87.5231 222.02 87.5035 222.001 87.4839C221.982 87.4642 221.963 87.4446 221.944 87.425C221.925 87.4054 221.905 87.3858 221.886 87.3662C221.867 87.3466 221.848 87.327 221.829 87.3074C221.809 87.2878 221.79 87.2682 221.771 87.2485C221.752 87.2289 221.733 87.2093 221.714 87.1897C221.694 87.1701 221.675 87.1505 221.656 87.1309C221.637 87.1113 221.618 87.0917 221.598 87.0721C221.579 87.0525 221.56 87.0328 221.541 87.0132C221.522 86.9936 221.502 86.974 221.483 86.9544C221.464 86.9348 221.445 86.9152 221.426 86.8956C221.407 86.876 221.387 86.8564 221.368 86.8368C221.349 86.8171 221.33 86.7975 221.311 86.7779C221.291 86.7583 221.272 86.7387 221.253 86.7191C221.234 86.6995 221.215 86.6799 221.196 86.6603C221.176 86.6407 221.157 86.6211 221.138 86.6014C221.119 86.5818 221.103 86.5655 221.084 86.5459C220.451 85.8824 219.584 85.5033 218.673 85.5033H211.095C210.692 85.5033 210.305 85.5785 209.944 85.7125V85.6765H209.886V85.6177H209.832V85.5589H209.771V85.5001H209.713V85.4412H209.659V85.3824H209.598V85.3236H209.544V85.2648H209.486V85.2059H209.429V85.1471H209.371V85.0883H209.311V85.0294H209.256V84.9706H209.195V84.9118H209.141V84.853H209.084V84.7941H209.023V84.7353H194.81L194.765 87.6277L194.653 94.664L193.944 94.6216L193.86 94.615H193.777C191.574 94.615 189.563 94.8863 187.801 95.4223C185.953 95.9844 184.239 96.8962 182.708 98.125C181.074 99.4356 179.76 101.269 178.804 103.567C178.692 103.835 178.586 104.112 178.484 104.393C178.484 104.393 178.481 104.39 178.478 104.387C178.458 104.367 178.439 104.348 178.42 104.328C178.401 104.308 178.382 104.289 178.362 104.269C178.343 104.25 178.324 104.23 178.302 104.207C178.283 104.188 178.263 104.168 178.247 104.152C178.228 104.132 178.209 104.109 178.187 104.089C178.167 104.07 178.148 104.05 178.129 104.031C178.11 104.011 178.094 103.991 178.075 103.975C178.055 103.955 178.036 103.936 178.014 103.913C177.995 103.893 177.976 103.874 177.956 103.854C177.937 103.835 177.918 103.815 177.899 103.795C177.88 103.776 177.86 103.756 177.841 103.737C177.822 103.717 177.803 103.697 177.784 103.678C177.765 103.658 177.745 103.638 177.726 103.619C177.707 103.599 177.688 103.58 177.669 103.56C177.649 103.54 177.63 103.521 177.611 103.501C177.592 103.482 177.573 103.462 177.553 103.442C177.534 103.423 177.515 103.403 177.496 103.384C177.477 103.364 177.458 103.344 177.438 103.325C177.419 103.305 177.4 103.285 177.381 103.266C177.362 103.246 177.342 103.227 177.323 103.207C177.304 103.187 177.285 103.168 177.266 103.148C177.247 103.129 177.227 103.109 177.208 103.089C177.189 103.07 177.17 103.05 177.151 103.031C177.131 103.011 177.112 102.991 177.093 102.972C177.074 102.952 177.055 102.933 177.039 102.916C177.02 102.897 177 102.874 176.978 102.854C176.959 102.834 176.94 102.815 176.92 102.795C176.901 102.776 176.882 102.756 176.863 102.736C176.844 102.717 176.824 102.697 176.802 102.674C176.783 102.655 176.764 102.635 176.745 102.616C176.725 102.596 176.706 102.576 176.687 102.557C176.668 102.537 176.649 102.517 176.626 102.495C176.607 102.475 176.588 102.455 176.569 102.436C176.549 102.416 176.53 102.397 176.511 102.377C176.492 102.357 176.473 102.338 176.454 102.318C176.434 102.299 176.415 102.279 176.396 102.259C176.377 102.24 176.358 102.22 176.338 102.2C176.319 102.181 176.3 102.161 176.281 102.142C176.262 102.122 176.243 102.102 176.223 102.083C176.204 102.063 176.185 102.044 176.166 102.024C176.147 102.004 176.127 101.985 176.108 101.965C176.089 101.946 176.07 101.926 176.051 101.906C176.031 101.887 176.012 101.867 175.993 101.847C175.974 101.828 175.955 101.808 175.936 101.789C175.916 101.769 175.897 101.749 175.878 101.73C175.859 101.71 175.84 101.691 175.82 101.671C175.801 101.651 175.782 101.632 175.76 101.609C175.741 101.589 175.725 101.57 175.705 101.553C175.686 101.534 175.664 101.511 175.645 101.491C175.625 101.472 175.606 101.452 175.587 101.432C175.568 101.413 175.549 101.393 175.533 101.377C175.514 101.357 175.494 101.334 175.472 101.315C175.453 101.295 175.434 101.276 175.414 101.256C175.395 101.236 175.376 101.217 175.357 101.197C175.341 101.181 175.325 101.161 175.306 101.145C174.759 100.557 174.164 100.037 173.534 99.5925C172 98.5107 170.366 97.7231 168.681 97.2524C167.366 96.8864 166.014 96.7001 164.658 96.7001C164.271 96.7001 163.881 96.7165 163.491 96.7459H163.481H163.472C162.25 96.8472 161.087 97.1217 159.993 97.5596H149.608V97.5237H149.55V97.4681H149.496V97.4093H149.435V97.3505H149.378V97.2917H149.323V97.2328H149.262V97.174H149.205V97.1152H149.144V97.0596H149.09V97.0008H149.032V96.9452H148.971V96.8864H148.917V96.8276L146.17 96.7557L137.787 96.5367L136.063 96.4289L135.977 96.4223H134.935L134.839 96.4289C134.215 96.4713 133.422 96.5694 132.412 96.7328C131.414 96.8929 130.324 97.1217 129.16 97.4126C127.83 97.7459 126.484 98.2917 125.16 99.0336C123.875 99.7559 122.666 100.615 121.569 101.589C121.454 101.691 121.342 101.795 121.234 101.9L123.117 95.6674L123.878 93.1541L123.814 93.1247L123.823 93.0953L123.756 93.0659L123.766 93.0365L123.699 93.0071L123.708 92.9777L123.638 92.9482L123.648 92.9188L123.58 92.8894L123.59 92.86L123.523 92.8306L123.532 92.8012L123.469 92.7718L123.478 92.7424L123.408 92.7097L123.417 92.6803L123.357 92.6541L123.366 92.6247L123.296 92.592L123.305 92.5626L123.238 92.5332L123.248 92.5038L123.187 92.4776L123.197 92.4482L123.126 92.4155L123.136 92.3861L123.072 92.3567L123.082 92.3273L123.018 92.2979L123.027 92.2685L122.957 92.2358L122.967 92.2064L122.903 92.177L122.912 92.1475L122.845 92.1181L122.855 92.0887L122.784 92.056L122.794 92.0266L122.736 92.0005L122.746 91.9711L122.676 91.9384L122.685 91.909L122.621 91.8796L122.631 91.8501L122.564 91.8207L122.573 91.7913L122.506 91.7619L122.516 91.7325L122.449 91.7031L122.458 91.6737L122.391 91.6442L122.401 91.6148L122.337 91.5854L122.346 91.556L122.276 91.5266L122.285 91.4972L122.215 91.4678L122.225 91.4383L122.164 91.4122L122.174 91.3828L122.103 91.3501L122.113 91.3207L122.046 91.2913L122.055 91.2619L121.991 91.2325L122.001 91.203L121.931 91.1704L121.94 91.1409L121.879 91.1148L121.889 91.0887L121.819 91.056L121.828 91.0233L121.761 90.9939L121.771 90.9645L121.71 90.9383L121.72 90.9089L121.646 90.8762L121.656 90.8468L121.588 90.8174L121.598 90.788L121.537 90.7618L121.547 90.7324L121.473 90.6997L121.483 90.6703L121.422 90.6442L121.432 90.6148L121.365 90.5854L121.374 90.5559L121.301 90.5233L121.31 90.4938L121.25 90.4677L121.259 90.4383L121.189 90.4089L121.198 90.3795L121.134 90.35L121.144 90.3206L121.077 90.2912L121.086 90.2618L121.022 90.2324L121.032 90.203L120.965 90.1736L120.975 90.1441L120.904 90.1115L120.914 90.0821L120.85 90.0526L120.859 90.0232L120.792 89.9938L120.802 89.9677L120.732 89.935L120.741 89.9023L120.68 89.8762L120.69 89.8467L120.62 89.8141L120.629 89.7847L120.562 89.7552L120.572 89.7258L120.511 89.6997L120.52 89.6703L120.447 89.6376L120.457 89.6082L120.396 89.582L120.405 89.5526L120.338 89.5232L120.348 89.4938L120.277 89.4611L120.287 89.4317L120.226 89.4055L120.236 89.3761L120.166 89.3434L120.175 89.314L120.108 89.2846L120.118 89.2552L120.057 89.2291L120.066 89.1996L119.993 89.167L120.003 89.1376L119.942 89.1114L119.951 89.082L119.884 89.0526L119.894 89.0232L119.823 88.9905L119.833 88.9611L119.772 88.9349L119.782 88.9055L119.712 88.8761L119.721 88.8467L119.657 88.8173L119.667 88.7879L119.6 88.7584L119.609 88.729L119.545 88.6996L119.555 88.6702L119.488 88.6408L119.497 88.6114L119.427 88.5787L119.437 88.5493L119.373 88.5199L119.382 88.4905L119.315 88.461L119.325 88.4316L119.254 88.3989L119.264 88.3695L119.203 88.3434L119.213 88.314L119.142 88.2813L119.152 88.2519L119.085 88.2225L119.094 88.193L119.034 88.1669L119.043 88.1375L118.97 88.1048L118.979 88.0754L118.919 88.0492L118.928 88.0198L118.861 87.9904L118.871 87.961L118.8 87.9283L118.81 87.8989L118.749 87.8728L118.759 87.8434L118.692 87.8139L118.701 87.7845L118.634 87.7551L118.644 87.7257L118.583 87.6996L118.592 87.6701L118.522 87.6375L118.532 87.608L118.468 87.5786L118.477 87.5492L118.41 87.5198L118.42 87.4904L118.349 87.4577L118.359 87.4283L118.298 87.4021L118.308 87.3727L118.238 87.3401L118.247 87.3074L118.186 87.2812L118.196 87.2518L118.126 87.2191L118.135 87.1897L115.775 86.1406L114.583 85.6112C113.528 85.1046 112.108 84.683 110.244 84.3268C108.965 84.0817 107.673 83.9608 106.401 83.9608C105.803 83.9608 105.195 83.9869 104.6 84.0425H104.588H104.575C101.361 84.3627 98.6147 85.5948 96.4117 87.7061C94.2022 89.8239 92.8337 92.5789 92.3413 95.8994C91.8457 99.0434 92.2294 101.795 93.4796 104.08C93.956 104.949 94.5668 105.776 95.2958 106.537C95.3182 106.563 95.3437 106.586 95.3661 106.609C95.3853 106.629 95.4045 106.648 95.4237 106.668C95.4429 106.688 95.462 106.707 95.4812 106.727C95.5004 106.747 95.5196 106.766 95.5388 106.786C95.558 106.805 95.5772 106.825 95.5963 106.845C95.6155 106.864 95.6347 106.884 95.6539 106.903C95.6731 106.923 95.6923 106.943 95.7114 106.962C95.7306 106.982 95.7498 107.001 95.769 107.021C95.7882 107.041 95.8074 107.06 95.8266 107.08C95.8457 107.099 95.8649 107.119 95.8841 107.139C95.9033 107.158 95.9225 107.178 95.9449 107.198C95.964 107.217 95.9832 107.237 96.0024 107.256C96.0216 107.276 96.0408 107.296 96.06 107.315C96.0792 107.335 96.0983 107.354 96.1175 107.374C96.1367 107.394 96.1559 107.413 96.1751 107.433C96.1943 107.452 96.2134 107.472 96.2326 107.492C96.2518 107.511 96.271 107.531 96.2902 107.55C96.3094 107.57 96.3286 107.59 96.3445 107.606C96.3637 107.626 96.3829 107.645 96.4021 107.665C96.4213 107.684 96.4405 107.704 96.4597 107.724C96.4788 107.743 96.498 107.763 96.5172 107.783C96.5364 107.802 96.5588 107.822 96.578 107.841C96.5971 107.861 96.6163 107.881 96.6355 107.9C96.6547 107.92 96.6739 107.939 96.6931 107.959C96.7122 107.979 96.7314 107.998 96.7506 108.018C96.7698 108.034 96.789 108.054 96.8082 108.073C96.8274 108.093 96.8465 108.113 96.8657 108.132C96.8849 108.152 96.9041 108.171 96.9233 108.191C96.9425 108.211 96.9616 108.23 96.9808 108.25C97 108.269 97.0192 108.289 97.0384 108.309C97.0576 108.328 97.0768 108.348 97.0959 108.368C97.1151 108.387 97.1343 108.407 97.1535 108.426H97.1503C97.1695 108.443 97.1919 108.466 97.2111 108.485C97.2302 108.505 97.2494 108.524 97.2686 108.544C97.2878 108.564 97.307 108.583 97.3262 108.603C97.3453 108.622 97.3645 108.642 97.3837 108.662C97.4029 108.681 97.4221 108.701 97.4445 108.72C97.4637 108.74 97.4828 108.76 97.502 108.779C97.5212 108.799 97.5404 108.819 97.5596 108.838C97.5788 108.858 97.5979 108.877 97.6171 108.897C97.6331 108.913 97.6555 108.936 97.6779 108.959C97.6971 108.979 97.7162 108.998 97.7354 109.018C97.7546 109.037 97.7738 109.057 97.7962 109.077C97.8154 109.093 97.8346 109.113 97.8537 109.132C97.8729 109.152 97.8921 109.171 97.9145 109.194C97.9337 109.214 97.9529 109.234 97.972 109.253C97.9912 109.273 98.0104 109.292 98.0296 109.312C98.0488 109.332 98.068 109.351 98.0904 109.371C98.1095 109.39 98.1287 109.41 98.1479 109.43C98.1671 109.449 98.1863 109.469 98.2055 109.489C98.2246 109.508 98.2438 109.528 98.263 109.547C98.2822 109.567 98.3014 109.587 98.3206 109.606C98.3398 109.626 98.3589 109.645 98.3781 109.665C98.3973 109.685 98.4165 109.704 98.4357 109.724C98.4549 109.743 98.474 109.763 98.4932 109.783C98.5124 109.802 98.5316 109.822 98.5508 109.841C98.57 109.861 98.5892 109.881 98.6083 109.897C98.6275 109.917 98.6467 109.94 98.6691 109.959C98.6883 109.979 98.7075 109.998 98.7266 110.018C98.7458 110.038 98.7618 110.057 98.781 110.074C98.8002 110.093 98.8226 110.116 98.8418 110.136C98.8609 110.155 98.8801 110.175 98.8993 110.194C98.9185 110.214 98.9377 110.234 98.9601 110.253C98.9792 110.273 98.9984 110.292 99.0176 110.312C99.0368 110.332 99.056 110.351 99.0752 110.371C99.0944 110.387 99.1135 110.407 99.1327 110.426C99.1519 110.446 99.1711 110.466 99.1903 110.485C99.2095 110.505 99.2286 110.525 99.2478 110.544C99.267 110.564 99.2862 110.583 99.3054 110.603C99.3246 110.619 99.3438 110.639 99.3629 110.659C99.3821 110.678 99.4013 110.698 99.4205 110.717C99.4397 110.737 99.4589 110.757 99.478 110.776C99.4972 110.796 99.5164 110.815 99.5356 110.835C99.5548 110.855 99.574 110.874 99.5964 110.894C99.6155 110.913 99.6347 110.933 99.6539 110.953C99.6731 110.972 99.6923 110.992 99.7115 111.011H99.7083C99.7274 111.028 99.7498 111.051 99.769 111.07C99.7882 111.09 99.8106 111.11 99.8298 111.129C99.849 111.149 99.8681 111.168 99.8873 111.188C99.9065 111.208 99.9257 111.227 99.9449 111.247L99.9385 111.24C99.9609 111.263 99.98 111.283 100.002 111.306C100.022 111.325 100.041 111.345 100.06 111.364C100.079 111.384 100.098 111.404 100.118 111.423C100.137 111.443 100.156 111.466 100.178 111.485C100.197 111.505 100.217 111.525 100.236 111.544C100.255 111.564 100.274 111.583 100.293 111.603C100.313 111.623 100.332 111.642 100.354 111.662C100.373 111.681 100.393 111.701 100.412 111.721C100.431 111.74 100.45 111.76 100.469 111.779C100.488 111.799 100.508 111.819 100.527 111.838C100.546 111.858 100.565 111.878 100.588 111.9C100.607 111.92 100.626 111.94 100.645 111.959C100.664 111.979 100.683 111.998 100.703 112.018C100.722 112.038 100.741 112.057 100.76 112.077C100.779 112.097 100.799 112.116 100.818 112.136C100.837 112.155 100.856 112.175 100.875 112.195C100.895 112.214 100.914 112.234 100.933 112.253C100.952 112.273 100.971 112.293 100.99 112.312C101.01 112.332 101.029 112.351 101.048 112.371C101.067 112.387 101.086 112.407 101.106 112.427C102.084 113.456 103.299 114.381 104.722 115.185C104.498 115.25 104.274 115.299 104.073 115.332C103.827 115.358 103.561 115.371 103.283 115.371C102.803 115.371 102.273 115.332 101.71 115.25C100.693 115.107 99.785 114.917 99.0112 114.682C98.1831 114.433 97.3134 114.123 96.4213 113.757C95.1903 113.253 94.7938 113.064 94.6787 113.005C94.3429 112.832 94.1863 112.74 94.1223 112.704L90.0456 110.201L89.7674 115.054L89.2302 124.388L89.1087 126.522L89.1695 126.545V126.581L89.227 126.604V126.64L89.2878 126.666V126.702L89.3421 126.725V126.761L89.4029 126.787V126.823L89.4572 126.846V126.882L89.5148 126.905V126.941L89.5755 126.967V126.999L89.6299 127.022V127.058L89.6906 127.084V127.12L89.7482 127.143V127.179L89.8026 127.202V127.238L89.8633 127.264V127.3L89.9177 127.323V127.356L89.9752 127.379V127.414L90.036 127.441V127.477L90.0903 127.499V127.535L90.1511 127.562V127.597L90.2054 127.62V127.656L90.2598 127.679V127.715L90.3205 127.741V127.777L90.3749 127.8V127.836L90.4356 127.862V127.898L90.4932 127.921V127.957L90.5476 127.98V128.016L90.6083 128.042V128.078L90.6627 128.101V128.137L90.7202 128.16V128.196L90.781 128.222V128.258L90.8353 128.281V128.316L90.8961 128.343V128.379L90.9504 128.401V128.437L91.0112 128.464V128.5L91.0719 128.526V128.558L91.1263 128.581V128.617L91.187 128.643V128.679L91.2446 128.702V128.738L91.299 128.761V128.797L91.3597 128.823V128.859L91.4141 128.882V128.915L91.4716 128.937V128.973L91.5324 129V129.035L91.5867 129.058V129.094L91.6475 129.12V129.156L91.7018 129.179V129.212L91.7594 129.235V129.271L91.8201 129.297V129.333L91.8745 129.356V129.392L91.9353 129.418V129.454L91.9928 129.477V129.513L92.0472 129.536V129.571L92.1047 129.594V129.63L92.1623 129.653V129.689L92.2198 129.712V129.748L92.2806 129.774V129.807L92.3349 129.83V129.866L92.3957 129.892V129.928L92.45 129.951V129.987L92.5108 130.013V130.049L92.5715 130.075V130.111L92.6259 130.134V130.17L92.6867 130.196V130.232L92.7442 130.255V130.29L92.7986 130.313V130.349L92.8593 130.375V130.411L92.9137 130.434V130.467L92.9712 130.49V130.526L93.032 130.552V130.588L93.0863 130.611V130.647L93.1471 130.673V130.709L93.2014 130.732V130.768L93.259 130.79V130.826L93.3198 130.853V130.889L93.3741 130.911V130.947L93.4349 130.974V131.009L93.4924 131.032V131.068L93.5468 131.091V131.127L93.6075 131.153V131.189L93.6619 131.212V131.248L93.7194 131.271V131.307L93.7802 131.333V131.366L93.8345 131.389V131.425L93.8953 131.451V131.487L93.9496 131.509V131.542L94.0072 131.565V131.601L94.068 131.627V131.663L94.1223 131.686V131.722L94.1831 131.748V131.784L94.2406 131.807V131.843L94.295 131.866V131.902L94.3557 131.928V131.964L94.4101 131.987V132.023L94.4644 132.045V132.081L94.5252 132.108V132.144L94.5795 132.166V132.202L94.6403 132.228V132.264L94.6947 132.287V132.323L94.7522 132.346V132.382L94.8098 132.405V132.441L94.8673 132.464V132.5L94.9281 132.526V132.562L96.8721 133.34L98.1063 133.833L98.1383 133.846L98.1703 133.859C99.1647 134.229 100.76 134.572 103.193 134.938C105.505 135.288 108.14 135.464 111.027 135.464C111.99 135.464 113.042 135.353 114.148 135.137C115.286 134.912 116.52 134.506 117.815 133.931C119.149 133.336 120.389 132.578 121.512 131.676C122.727 130.696 123.791 129.405 124.671 127.836C124.677 127.826 124.68 127.816 124.687 127.807C124.706 127.826 124.722 127.843 124.741 127.862C124.76 127.882 124.779 127.901 124.799 127.921C124.818 127.941 124.837 127.96 124.856 127.98C124.875 127.999 124.895 128.019 124.914 128.039C124.933 128.058 124.952 128.078 124.971 128.098C124.991 128.117 125.01 128.137 125.029 128.156C125.048 128.176 125.067 128.196 125.086 128.215C125.106 128.235 125.125 128.254 125.144 128.274C125.163 128.294 125.182 128.313 125.202 128.333C125.221 128.352 125.24 128.372 125.259 128.392C125.278 128.411 125.294 128.431 125.313 128.447C125.333 128.467 125.352 128.49 125.374 128.509C125.393 128.529 125.413 128.549 125.432 128.568C125.451 128.588 125.47 128.607 125.489 128.627C125.509 128.647 125.528 128.666 125.547 128.686C125.566 128.705 125.585 128.725 125.601 128.741C125.62 128.761 125.64 128.781 125.659 128.8C125.678 128.82 125.697 128.839 125.716 128.859C125.736 128.879 125.755 128.898 125.774 128.918C125.793 128.937 125.812 128.957 125.831 128.977C125.851 128.996 125.87 129.016 125.889 129.035C125.908 129.055 125.927 129.075 125.947 129.094C125.966 129.114 125.985 129.134 126.004 129.153C126.023 129.173 126.042 129.192 126.062 129.212C126.081 129.232 126.1 129.251 126.119 129.271C126.138 129.29 126.158 129.31 126.177 129.33C126.196 129.349 126.215 129.369 126.234 129.388C126.254 129.408 126.273 129.428 126.292 129.447C126.311 129.467 126.33 129.486 126.349 129.506C126.369 129.526 126.388 129.545 126.407 129.565C126.426 129.585 126.445 129.604 126.465 129.624C126.484 129.643 126.503 129.663 126.522 129.683C126.541 129.702 126.56 129.722 126.58 129.741C126.599 129.761 126.618 129.781 126.637 129.8C126.656 129.82 126.676 129.839 126.695 129.859C126.714 129.879 126.733 129.902 126.756 129.921C126.775 129.941 126.794 129.96 126.81 129.977C126.829 129.996 126.848 130.016 126.867 130.036C126.887 130.055 126.906 130.078 126.928 130.098C126.947 130.117 126.967 130.137 126.983 130.153C127.002 130.173 127.021 130.192 127.04 130.212C127.059 130.232 127.078 130.251 127.094 130.268C127.13 130.304 127.165 130.339 127.2 130.375C130.19 133.255 134.26 134.716 139.296 134.716C139.465 134.716 139.635 134.712 139.801 134.703V134.716H155.501L155.491 134.212H168.786L168.76 133.389H168.783V133.448H168.84V133.506H168.898V133.565H168.956V133.624H169.013V133.683H169.071V133.742H169.128V133.8H169.186V133.859H169.243V133.918H169.301V133.977H169.358V134.036H169.416V134.095H169.474V134.153H169.531V134.212H172.533H186.155V129.804C186.155 129.804 186.177 129.826 186.187 129.836C186.19 129.839 186.193 129.843 186.199 129.849C186.212 129.862 186.228 129.879 186.244 129.895C186.247 129.898 186.251 129.905 186.257 129.908C186.27 129.921 186.286 129.938 186.302 129.954C186.302 129.954 186.305 129.957 186.308 129.96C186.324 129.98 186.343 129.996 186.362 130.016C186.362 130.016 186.366 130.019 186.369 130.022C186.385 130.039 186.404 130.058 186.42 130.075C186.42 130.075 186.423 130.078 186.426 130.081C186.442 130.098 186.462 130.117 186.478 130.134C186.478 130.134 186.481 130.137 186.484 130.14C186.5 130.156 186.519 130.176 186.535 130.192C186.535 130.192 186.538 130.196 186.542 130.199C186.558 130.215 186.577 130.235 186.593 130.251H186.596C186.612 130.274 186.631 130.29 186.647 130.31C186.666 130.33 186.685 130.353 186.705 130.369C186.705 130.369 186.705 130.372 186.708 130.372C186.724 130.389 186.74 130.408 186.759 130.424C186.781 130.447 186.801 130.467 186.817 130.483C186.817 130.483 186.82 130.487 186.823 130.49C186.839 130.506 186.855 130.526 186.874 130.542C186.877 130.545 186.884 130.552 186.887 130.555C186.9 130.568 186.916 130.585 186.935 130.604C186.938 130.607 186.941 130.611 186.944 130.614C186.957 130.627 186.973 130.643 186.989 130.66C187.008 130.679 187.028 130.699 187.047 130.719C190.065 133.872 194.183 135.49 199.29 135.533H199.303H199.315C199.485 135.533 199.654 135.529 199.821 135.52V135.533H215.498L215.491 135.111C215.827 135.225 216.182 135.284 216.543 135.284H225.439C225.934 135.284 226.407 135.173 226.829 134.977C227.053 135.033 227.293 135.085 227.555 135.131C228.131 135.232 228.722 135.284 229.314 135.284C234.353 135.284 238.433 133.899 241.435 131.163C242.216 130.454 242.89 129.66 243.456 128.787C243.463 128.794 243.472 128.803 243.479 128.81C243.498 128.83 243.514 128.846 243.533 128.866L243.543 128.875C243.559 128.892 243.578 128.911 243.594 128.928H243.597C243.616 128.951 243.635 128.97 243.654 128.99C243.674 129.009 243.693 129.029 243.712 129.049C243.731 129.068 243.75 129.088 243.77 129.107C243.789 129.127 243.808 129.147 243.827 129.166C243.846 129.186 243.865 129.205 243.885 129.225C243.904 129.245 243.923 129.268 243.945 129.287C243.965 129.307 243.984 129.326 244.003 129.346C244.022 129.366 244.041 129.385 244.061 129.405C244.08 129.424 244.099 129.444 244.118 129.464C244.137 129.483 244.156 129.503 244.176 129.522C244.195 129.542 244.214 129.562 244.233 129.581C244.252 129.601 244.268 129.617 244.288 129.637L244.294 129.643C244.31 129.663 244.329 129.679 244.345 129.696C244.364 129.715 244.383 129.735 244.403 129.754C244.422 129.774 244.438 129.79 244.457 129.81L244.463 129.817C244.483 129.836 244.502 129.856 244.518 129.872C244.537 129.892 244.556 129.911 244.575 129.931C244.594 129.951 244.614 129.97 244.633 129.99C244.652 130.009 244.671 130.029 244.69 130.049C244.71 130.068 244.729 130.088 244.748 130.107C244.767 130.127 244.786 130.147 244.806 130.166C244.825 130.186 244.844 130.205 244.863 130.225C244.882 130.245 244.901 130.264 244.921 130.284C244.94 130.304 244.959 130.323 244.978 130.343C244.997 130.362 245.013 130.379 245.033 130.398L245.042 130.408C245.058 130.424 245.077 130.444 245.093 130.46H245.096C245.116 130.483 245.135 130.503 245.154 130.523C245.173 130.542 245.192 130.562 245.208 130.578C245.228 130.598 245.247 130.617 245.266 130.637C245.285 130.656 245.304 130.676 245.324 130.696C245.343 130.715 245.362 130.735 245.381 130.755C245.4 130.774 245.419 130.797 245.442 130.817C245.461 130.836 245.48 130.856 245.499 130.875C245.519 130.895 245.538 130.915 245.557 130.934C245.576 130.954 245.595 130.974 245.614 130.993C245.634 131.013 245.653 131.032 245.672 131.052C245.691 131.072 245.71 131.091 245.73 131.111C245.749 131.13 245.768 131.15 245.787 131.17C245.806 131.189 245.826 131.209 245.845 131.228C245.864 131.248 245.883 131.268 245.902 131.287C245.921 131.307 245.937 131.323 245.957 131.343L245.963 131.349C245.982 131.369 245.998 131.385 246.017 131.405L246.024 131.411C246.04 131.431 246.059 131.447 246.075 131.464C246.094 131.483 246.113 131.503 246.132 131.523C246.152 131.542 246.171 131.562 246.19 131.581C246.225 131.617 246.257 131.65 246.292 131.686C249.285 134.569 253.356 136.029 258.392 136.029C258.561 136.029 258.73 136.026 258.897 136.016V136.029H274.596V135.801H274.615H288.057L287.965 132.768L287.498 117.286L287.514 117.339L287.559 117.322L287.581 117.394L287.623 117.378L287.645 117.453L287.674 117.443L287.696 117.515L287.738 117.499L287.76 117.571L287.798 117.554L287.821 117.626L287.846 117.616L287.869 117.692L287.91 117.675L287.933 117.75L287.968 117.737L287.99 117.809L288.025 117.796L288.048 117.868L288.086 117.852L288.109 117.924L288.137 117.911L288.16 117.983L288.198 117.966L288.221 118.041L288.259 118.028L288.281 118.1L288.313 118.087L288.336 118.159L288.377 118.143L288.4 118.218L288.432 118.205L288.454 118.273L288.489 118.26L288.512 118.339L288.55 118.322L288.572 118.394L288.601 118.384L288.623 118.46L288.665 118.443L288.687 118.512L288.723 118.499L288.745 118.574L288.783 118.561L288.806 118.633L288.844 118.617L288.866 118.688L288.892 118.679L288.914 118.754L288.956 118.737L288.978 118.813L289.014 118.8L289.036 118.871L289.068 118.858L289.09 118.93L289.135 118.914L289.157 118.989L289.186 118.979L289.209 119.051L289.25 119.035L289.273 119.107L289.311 119.09L289.333 119.166L289.359 119.156L289.378 119.224L289.42 119.208L289.442 119.283L292.32 118.149L301.506 114.525L304.105 113.499L303.188 110.809L303.082 110.776Z" fill="black"/>
<path d="M117.512 116.165C117.368 117.741 116.949 119.149 116.249 120.394C115.552 121.64 114.736 122.636 113.806 123.388C112.875 124.14 111.852 124.761 110.743 125.254C109.633 125.748 108.61 126.088 107.68 126.271C106.749 126.454 105.889 126.545 105.102 126.545C102.343 126.545 99.8745 126.382 97.6907 126.052C95.5068 125.722 94.02 125.411 93.2334 125.117L91.9992 124.623L92.5364 115.29C92.7154 115.401 92.9648 115.538 93.2878 115.701C93.6107 115.865 94.263 116.149 95.2478 116.551C96.2326 116.953 97.1823 117.293 98.0936 117.567C99.008 117.842 100.044 118.061 101.208 118.228C102.372 118.391 103.417 118.42 104.351 118.309C105.748 118.09 106.839 117.603 107.628 116.855C108.415 116.107 108.792 115.107 108.757 113.861C108.648 112.031 105.962 109.743 100.699 106.998C98.4421 105.828 96.8497 104.39 95.9193 102.687C94.9888 100.985 94.7202 98.8898 95.1135 96.3995C95.5068 93.7294 96.5716 91.5593 98.311 89.8925C100.047 88.229 102.205 87.2649 104.783 87.01C106.394 86.8629 108.015 86.9479 109.643 87.2584C111.27 87.5689 112.498 87.9251 113.323 88.3303L114.557 88.8794L112.086 97.0596L109.022 96.1805C105.799 95.4844 104.063 95.87 103.811 97.3342C103.775 97.6643 103.82 97.9943 103.945 98.3212C104.07 98.6513 104.249 98.9617 104.482 99.2559C104.715 99.55 105.045 99.8605 105.476 100.191C105.905 100.521 106.292 100.805 106.631 101.04C106.97 101.279 107.427 101.563 107.999 101.89C108.572 102.22 109.01 102.459 109.317 102.602C109.62 102.75 110.058 102.969 110.634 103.263C115.756 105.897 118.046 110.201 117.508 116.165H117.512Z" fill="#F6C75F"/>
<path d="M146.647 125.8H136.764V124.757C136.69 124.833 136.575 124.931 136.415 125.058C136.255 125.186 135.878 125.342 135.286 125.525C134.695 125.709 134.059 125.8 133.381 125.8C129.083 125.8 125.707 124.62 123.254 122.257C120.802 119.898 119.718 116.43 120.006 111.851C120.076 110.132 120.434 108.577 121.08 107.184C121.726 105.792 122.522 104.678 123.472 103.835C124.421 102.991 125.451 102.263 126.561 101.638C127.67 101.017 128.773 100.566 129.863 100.292C130.957 100.017 131.958 99.8082 132.872 99.6611C133.787 99.5141 134.509 99.4225 135.047 99.3866H135.907L137.678 99.4977L146.113 99.7167L146.65 125.797L146.647 125.8ZM129.457 112.678C129.457 114.473 130.119 115.809 131.446 116.685C132.77 117.564 134.017 117.94 135.181 117.809C136.345 117.682 137.035 117.672 137.25 117.783V108.064H136.792C136.594 108.064 136.23 108.083 135.692 108.119C135.155 108.155 134.644 108.211 134.161 108.283C133.678 108.358 133.141 108.502 132.549 108.721C131.958 108.939 131.449 109.214 131.018 109.544C130.589 109.874 130.222 110.306 129.918 110.835C129.614 111.364 129.461 111.979 129.461 112.675L129.457 112.678Z" fill="#F6C75F"/>
<path d="M177.365 125.297H166.621C166.657 124.454 166.711 123.421 166.781 122.195C166.852 120.97 166.941 119.202 167.05 116.897C167.159 114.59 167.21 113.165 167.21 112.616C167.175 111.737 167.002 110.995 166.698 110.394C166.394 109.789 166.017 109.341 165.569 109.047C165.122 108.753 164.62 108.534 164.067 108.387C163.51 108.24 162.967 108.188 162.43 108.224C161.892 108.26 161.4 108.305 160.952 108.361C160.505 108.417 160.137 108.498 159.852 108.609L159.424 108.72L159.907 125.303H149.809L150.775 100.54H159.101L159.047 101.475C160.406 100.452 161.966 99.8637 163.721 99.7167C165.154 99.6055 166.561 99.7428 167.939 100.128C169.317 100.514 170.644 101.155 171.913 102.05C173.183 102.949 174.251 104.256 175.111 105.975C175.971 107.698 176.508 109.707 176.722 112.015C176.901 114.505 177.045 116.855 177.151 119.071C177.259 121.287 177.33 122.868 177.365 123.819V125.303V125.297Z" fill="#F6C75F"/>
<path d="M206.673 126.617H196.789V125.463C196.719 125.535 196.61 125.637 196.466 125.764C196.323 125.892 195.955 126.065 195.367 126.287C194.778 126.509 194.123 126.617 193.406 126.617C189.074 126.581 185.672 125.271 183.2 122.692C180.729 120.11 179.673 116.352 180.032 111.41C180.211 108.812 180.684 106.586 181.454 104.74C182.225 102.893 183.235 101.465 184.489 100.459C185.742 99.452 187.12 98.7199 188.626 98.2623C190.129 97.8048 191.849 97.576 193.784 97.576L197.49 97.795L197.65 87.6931H206.19L206.673 126.62V126.617ZM189.538 112.067C189.538 114.191 190.199 115.747 191.526 116.734C192.85 117.721 194.088 118.117 195.232 117.914C196.377 117.715 197.058 117.685 197.272 117.832V107.015C197.164 107.015 197.02 107.005 196.841 106.988C196.662 106.972 196.303 106.962 195.766 106.962C195.229 106.962 194.717 106.998 194.235 107.073C193.752 107.149 193.205 107.302 192.598 107.541C191.987 107.779 191.469 108.07 191.04 108.42C190.612 108.77 190.254 109.253 189.966 109.874C189.678 110.498 189.538 111.227 189.538 112.07V112.067Z" fill="#F6C75F"/>
<path d="M236.78 113.084C237.138 117.44 236.083 120.744 233.611 122.993C231.14 125.244 227.738 126.369 223.405 126.369C222.977 126.369 222.554 126.333 222.142 126.258C221.73 126.182 221.407 126.101 221.176 126.009C220.943 125.918 220.729 125.826 220.53 125.735C220.332 125.643 220.198 125.561 220.128 125.486L220.019 125.375V125.862C220.019 126.14 219.798 126.365 219.526 126.365H210.631C210.356 126.365 210.136 126.137 210.139 125.856L210.609 88.948C210.612 88.6735 210.833 88.4545 211.101 88.4545H218.679C218.945 88.4545 219.162 88.6702 219.172 88.9448L219.36 100.691C219.367 100.978 219.61 101.2 219.891 101.178C220.94 101.093 222.005 101.034 223.082 101.001C224.981 101.001 226.682 101.204 228.185 101.606C229.688 102.008 231.066 102.648 232.323 103.527C233.576 104.407 234.587 105.652 235.357 107.26C236.128 108.871 236.601 110.809 236.78 113.08V113.084ZM219.539 118.737C219.648 118.737 219.789 118.747 219.968 118.764C220.147 118.783 220.505 118.79 221.042 118.79C221.579 118.79 222.097 118.764 222.599 118.708C223.101 118.653 223.648 118.515 224.236 118.296C224.828 118.077 225.336 117.783 225.768 117.417C226.196 117.051 226.555 116.548 226.842 115.907C227.127 115.267 227.271 114.525 227.271 113.685C227.271 112.953 227.127 112.312 226.842 111.763C226.555 111.214 226.19 110.783 225.742 110.472C225.295 110.162 224.793 109.904 224.24 109.704C223.683 109.505 223.13 109.374 222.574 109.319C222.017 109.263 221.519 109.227 221.071 109.207C220.623 109.191 220.256 109.198 219.971 109.234C219.725 109.266 219.542 109.479 219.542 109.73V118.731L219.539 118.737Z" fill="#F6C75F"/>
<path d="M265.746 127.107H255.862V126.065C255.789 126.14 255.674 126.238 255.514 126.365C255.354 126.493 254.977 126.65 254.385 126.833C253.794 127.016 253.157 127.107 252.479 127.107C248.182 127.107 244.806 125.927 242.353 123.565C239.901 121.205 238.817 117.737 239.104 113.159C239.175 111.44 239.533 109.884 240.179 108.492C240.825 107.099 241.621 105.985 242.571 105.142C243.52 104.299 244.55 103.57 245.659 102.946C246.769 102.325 247.869 101.874 248.962 101.599C250.056 101.325 251.057 101.115 251.971 100.968C252.886 100.821 253.608 100.73 254.145 100.694H255.005L256.777 100.805L265.212 101.024L265.749 127.104L265.746 127.107ZM248.559 113.986C248.559 115.78 249.221 117.116 250.548 117.992C251.872 118.871 253.119 119.247 254.283 119.117C255.447 118.989 256.137 118.979 256.352 119.09V109.371H255.894C255.696 109.371 255.332 109.39 254.794 109.426C254.257 109.462 253.746 109.518 253.263 109.59C252.78 109.665 252.243 109.809 251.651 110.028C251.06 110.247 250.551 110.521 250.12 110.851C249.691 111.181 249.324 111.613 249.02 112.142C248.716 112.672 248.563 113.286 248.563 113.982L248.559 113.986Z" fill="#F6C75F"/>
<path d="M283.21 98.4944C286.504 98.4944 289.02 99.1349 290.756 100.416C292.492 101.697 293.755 103.491 294.542 105.795L285.356 109.42C285.212 108.946 284.972 108.541 284.63 108.211C284.288 107.881 283.914 107.635 283.501 107.469C283.089 107.305 282.66 107.184 282.213 107.113C281.765 107.041 281.327 107.011 280.895 107.031C280.467 107.05 280.08 107.067 279.741 107.086C279.399 107.106 279.124 107.152 278.91 107.224L278.587 107.279L279.178 126.882H268.703L269.669 98.9911H278.587V99.6513C279.626 98.9192 281.164 98.5336 283.207 98.4977L283.21 98.4944Z" fill="#F6C75F"/>
</g>
<defs>
<clipPath id="clip0_3214_13962">
<rect width="215" height="52" fill="white" transform="translate(89 84)"/>
</clipPath>
</defs>
</svg>
