<svg width="167" height="25" viewBox="0 0 167 25" fill="none" xmlns="http://www.w3.org/2000/svg">
<path d="M9.724 2.178C10.948 2.15533 12.0473 2.26867 13.022 2.518C14.0193 2.76733 14.8693 3.14133 15.572 3.64C16.2747 4.116 16.8753 4.68267 17.374 5.34C17.8953 5.99733 18.3033 6.75667 18.598 7.618C18.8927 8.45667 19.108 9.32933 19.244 10.236C19.38 11.1427 19.448 12.106 19.448 13.126C19.448 20.3567 16.2067 23.972 9.724 23.972C3.24133 23.972 0 20.3567 0 13.126C0 11.8793 0.0906667 10.746 0.272 9.726C0.453333 8.68334 0.770667 7.69733 1.224 6.768C1.67733 5.816 2.25533 5.02267 2.958 4.388C3.68333 3.75333 4.61267 3.24333 5.746 2.858C6.902 2.45 8.228 2.22333 9.724 2.178ZM7.412 17.614C7.97867 18.838 8.65867 19.45 9.452 19.45C10.2453 19.45 10.9253 18.838 11.492 17.614C12.0587 16.39 12.342 14.9167 12.342 13.194C12.342 11.4713 12.0587 9.998 11.492 8.774C10.9253 7.55 10.2453 6.938 9.452 6.938C8.65867 6.938 7.97867 7.55 7.412 8.774C6.84533 9.998 6.562 11.4713 6.562 13.194C6.562 14.9167 6.84533 16.39 7.412 17.614Z" fill="#0B1215"/>
<path d="M29.1387 6.6C31.224 6.6 32.8107 6.99667 33.8987 7.79C35.0094 8.58333 35.814 9.694 36.3127 11.122L30.4987 13.366C30.408 13.0713 30.2494 12.822 30.0227 12.618C29.8187 12.414 29.5807 12.2667 29.3087 12.176C29.0594 12.0627 28.7874 11.9833 28.4927 11.938C28.2207 11.8927 27.9487 11.8813 27.6767 11.904C27.4047 11.904 27.1554 11.9153 26.9287 11.938C26.7247 11.938 26.5547 11.9607 26.4187 12.006L26.2147 12.04L26.5887 24.178H19.9587L20.5707 6.906H26.2147V7.314C26.872 6.86067 27.8467 6.62267 29.1387 6.6Z" fill="#0B1215"/>
<path d="M52.7851 24.106H46.5291V23.392C46.4837 23.4373 46.4157 23.494 46.3251 23.562C46.2344 23.6527 45.9964 23.766 45.6111 23.902C45.2484 24.038 44.8404 24.106 44.3871 24.106C41.6444 24.0833 39.4911 23.2673 37.9271 21.658C36.3631 20.0713 35.6944 17.748 35.9211 14.688C36.0344 13.0787 36.3291 11.7073 36.8051 10.574C37.3037 9.418 37.9497 8.534 38.7431 7.922C39.5364 7.28733 40.4091 6.834 41.3611 6.562C42.3131 6.26733 43.4011 6.12 44.6251 6.12L46.9711 6.256L47.0731 0H52.4791L52.7851 24.106ZM41.9391 15.096C41.9391 16.4107 42.3584 17.374 43.1971 17.986C44.0357 18.598 44.8177 18.8473 45.5431 18.734C46.2684 18.598 46.6991 18.5753 46.8351 18.666V11.968C46.7671 11.968 46.6764 11.968 46.5631 11.968C46.4497 11.9453 46.2231 11.934 45.8831 11.934C45.5431 11.934 45.2144 11.9567 44.8971 12.002C44.6024 12.0473 44.2624 12.1493 43.8771 12.308C43.4917 12.444 43.1631 12.6253 42.8911 12.852C42.6191 13.056 42.3924 13.3507 42.2111 13.736C42.0297 14.1213 41.9391 14.5747 41.9391 15.096Z" fill="#0B1215"/>
<path d="M62.2896 6.178C63.5136 6.178 64.5902 6.382 65.5196 6.79C66.4716 7.17533 67.1969 7.68533 67.6956 8.32C68.2169 8.932 68.6476 9.62333 68.9876 10.394C69.3502 11.142 69.5769 11.89 69.6676 12.638C69.7582 13.386 69.8149 14.0773 69.8376 14.712C69.8829 15.3467 69.8829 15.8567 69.8376 16.242L69.7696 16.82H59.8076C60.5329 17.8853 61.9836 18.4973 64.1596 18.656C64.4996 18.6787 64.8736 18.6787 65.2816 18.656C65.6896 18.6107 66.0522 18.554 66.3696 18.486C66.7096 18.418 67.0156 18.35 67.2876 18.282C67.5822 18.214 67.7976 18.1573 67.9336 18.112L68.1716 18.044L68.4776 23.688C68.3189 23.7333 68.0922 23.7787 67.7976 23.824C67.5029 23.8693 66.8682 23.9147 65.8936 23.96C64.9189 24.0053 63.8876 24.0053 62.7996 23.96C56.6116 23.7107 53.5062 20.8773 53.4836 15.46C53.4836 14.304 53.6536 13.1933 53.9936 12.128C54.3336 11.0627 54.8436 10.0767 55.5236 9.17C56.2036 8.26333 57.1216 7.54933 58.2776 7.028C59.4562 6.484 60.7936 6.20067 62.2896 6.178ZM59.7056 13.726L64.0576 13.59C64.0576 13.522 64.0576 13.4427 64.0576 13.352C64.0576 13.2613 64.0122 13.1027 63.9216 12.876C63.8536 12.6267 63.7516 12.4113 63.6156 12.23C63.5022 12.0487 63.2982 11.89 63.0036 11.754C62.7316 11.618 62.4029 11.5613 62.0176 11.584C61.7229 11.584 61.4396 11.6293 61.1676 11.72C60.9182 11.8107 60.7142 11.924 60.5556 12.06C60.4196 12.1733 60.2836 12.3093 60.1476 12.468C60.0342 12.6267 59.9549 12.7853 59.9096 12.944C59.8642 13.08 59.8189 13.2047 59.7736 13.318C59.7509 13.4313 59.7396 13.5333 59.7396 13.624L59.7056 13.726Z" fill="#0B1215"/>
<path d="M79.5352 6.6C81.6205 6.6 83.2072 6.99667 84.2952 7.79C85.4059 8.58333 86.2105 9.694 86.7092 11.122L80.8952 13.366C80.8045 13.0713 80.6459 12.822 80.4192 12.618C80.2152 12.414 79.9772 12.2667 79.7052 12.176C79.4558 12.0627 79.1839 11.9833 78.8892 11.938C78.6172 11.8927 78.3452 11.8813 78.0732 11.904C77.8012 11.904 77.5519 11.9153 77.3252 11.938C77.1212 11.938 76.9512 11.9607 76.8152 12.006L76.6112 12.04L76.9852 24.178H70.3552L70.9672 6.906H76.6112V7.314C77.2685 6.86067 78.2432 6.62267 79.5352 6.6Z" fill="#0B1215"/>
<path d="M109.015 1.152H114.319L115.135 23.932L107.859 23.864L103.065 11.182L103.711 23.966L97.1826 24L97.7606 1.288L104.425 1.152L109.559 15.364L109.015 1.152Z" fill="#0B1215"/>
<path d="M124.709 6C126.364 5.97733 127.792 6.204 128.993 6.68C130.195 7.156 131.124 7.836 131.781 8.72C132.461 9.604 132.949 10.59 133.243 11.678C133.538 12.7433 133.685 13.9333 133.685 15.248C133.685 21.2093 130.682 24.19 124.675 24.19C118.691 24.19 115.699 21.2093 115.699 15.248C115.699 13.9107 115.835 12.732 116.107 11.712C116.402 10.6693 116.867 9.71733 117.501 8.856C118.159 7.972 119.088 7.292 120.289 6.816C121.513 6.31733 122.987 6.04533 124.709 6ZM124.437 18.818C125.163 18.818 125.786 18.478 126.307 17.798C126.829 17.118 127.089 16.302 127.089 15.35C127.089 14.398 126.829 13.5593 126.307 12.834C125.786 12.1087 125.163 11.746 124.437 11.746C123.712 11.746 123.089 12.1087 122.567 12.834C122.046 13.5593 121.785 14.398 121.785 15.35C121.785 15.9847 121.899 16.5627 122.125 17.084C122.375 17.6053 122.703 18.0247 123.111 18.342C123.519 18.6593 123.961 18.818 124.437 18.818Z" fill="#0B1215"/>
<path d="M154.47 6.15L160.828 7.612L156.306 23.898L148.384 23.932L147.024 20.056L145.664 23.932L137.742 23.898L133.22 7.612L139.578 6.15L142.4 18.492L143.794 8.87H150.254L151.784 18.492L154.47 6.15Z" fill="#0B1215"/>
<path d="M165.18 22.974C164.522 23.4953 163.729 23.756 162.8 23.756C161.893 23.756 161.111 23.4953 160.454 22.974C159.819 22.4527 159.502 21.8293 159.502 21.104C159.502 20.628 159.649 20.1973 159.944 19.812C160.238 19.404 160.635 19.0867 161.134 18.86C161.655 18.6107 162.222 18.486 162.834 18.486C163.74 18.486 164.522 18.7467 165.18 19.268C165.837 19.7667 166.166 20.3787 166.166 21.104C166.166 21.8293 165.837 22.4527 165.18 22.974Z" fill="#0B1215"/>
</svg>
