<svg width="266" height="26" viewBox="0 0 266 26" fill="none" xmlns="http://www.w3.org/2000/svg">
<path d="M16.15 18.1959C16.0593 19.1706 15.7873 20.0433 15.334 20.8139C14.9033 21.5846 14.3933 22.2079 13.804 22.6839C13.2147 23.1373 12.5687 23.5113 11.866 23.8059C11.1633 24.1233 10.5173 24.3386 9.928 24.4519C9.33867 24.5653 8.79467 24.6219 8.296 24.6219C6.55067 24.6219 4.98667 24.5199 3.604 24.3159C2.22133 24.1119 1.28067 23.9193 0.782 23.7379L0 23.4319L0.34 17.6519C0.453333 17.7199 0.612 17.8106 0.816 17.9239C1.02 18.0146 1.428 18.1846 2.04 18.4339C2.67467 18.6833 3.27533 18.8986 3.842 19.0799C4.43133 19.2386 5.08867 19.3746 5.814 19.4879C6.562 19.5786 7.23067 19.5899 7.82 19.5219C8.704 19.3859 9.39533 19.0913 9.894 18.6379C10.3927 18.1619 10.6307 17.5386 10.608 16.7679C10.54 15.6346 8.84 14.2179 5.508 12.5179C4.08 11.7926 3.07133 10.9086 2.482 9.86595C1.89267 8.80061 1.72267 7.49728 1.972 5.95595C2.22133 4.30128 2.89 2.96394 3.978 1.94395C5.08867 0.901278 6.46 0.300611 8.092 0.141944C9.112 0.0512771 10.132 0.107944 11.152 0.311944C12.1947 0.493277 12.9767 0.708611 13.498 0.957944L14.28 1.29794L12.716 6.36395C12.716 6.36395 12.07 6.18261 10.778 5.81994C8.738 5.38928 7.63867 5.62728 7.48 6.53395C7.45733 6.73795 7.48 6.94195 7.548 7.14594C7.63867 7.34994 7.752 7.54261 7.888 7.72395C8.04667 7.90528 8.262 8.09795 8.534 8.30195C8.806 8.50595 9.044 8.68728 9.248 8.84595C9.47467 8.98195 9.76933 9.15195 10.132 9.35595C10.4947 9.55995 10.7667 9.70728 10.948 9.79795C11.152 9.88861 11.4353 10.0246 11.798 10.2059C15.0393 11.8379 16.49 14.5013 16.15 18.1959Z" fill="white"/>
<path d="M33.604 25H27.348V24.354C27.3026 24.3993 27.2233 24.4673 27.11 24.558C27.0193 24.626 26.7813 24.7167 26.396 24.83C26.0333 24.9433 25.6366 25 25.206 25C22.486 25 20.344 24.2747 18.78 22.824C17.2386 21.3507 16.5586 19.1973 16.74 16.364C16.7853 15.2987 17.012 14.3353 17.42 13.474C17.828 12.6127 18.3266 11.9213 18.916 11.4C19.528 10.8787 20.1853 10.4253 20.888 10.04C21.5906 9.65467 22.282 9.38267 22.962 9.224C23.6646 9.04267 24.2993 8.90667 24.866 8.816C25.4553 8.72533 25.92 8.66867 26.26 8.646H26.804L27.926 8.714L33.264 8.85L33.604 25ZM22.724 16.874C22.724 17.9847 23.1433 18.812 23.982 19.356C24.8206 19.9 25.6026 20.138 26.328 20.07C27.076 19.9793 27.518 19.968 27.654 20.036V14.018C27.586 14.018 27.484 14.018 27.348 14.018C27.2346 14.018 27.008 14.0293 26.668 14.052C26.328 14.0747 25.9993 14.1087 25.682 14.154C25.3873 14.1993 25.0473 14.29 24.662 14.426C24.2993 14.562 23.982 14.732 23.71 14.936C23.438 15.14 23.2 15.412 22.996 15.752C22.8146 16.0693 22.724 16.4433 22.724 16.874Z" fill="white"/>
<path d="M52.3496 24.844H45.5496C45.5723 24.3227 45.6063 23.688 45.6516 22.94C45.697 22.1693 45.7536 21.07 45.8216 19.642C45.8896 18.214 45.9236 17.33 45.9236 16.99C45.901 16.446 45.7876 15.9927 45.5836 15.63C45.4023 15.2447 45.1643 14.9613 44.8696 14.78C44.5976 14.5987 44.2803 14.4627 43.9176 14.372C43.5776 14.2813 43.2376 14.2473 42.8976 14.27C42.5576 14.2927 42.2403 14.3267 41.9456 14.372C41.6736 14.3947 41.447 14.44 41.2656 14.508L40.9936 14.576L41.2996 24.844H34.9076L35.5196 9.51H40.7896L40.7556 10.088C41.617 9.45333 42.603 9.09067 43.7136 9C44.6203 8.932 45.5043 9.02267 46.3656 9.272C47.2496 9.49867 48.0883 9.89534 48.8816 10.462C49.6976 11.006 50.3776 11.8107 50.9216 12.876C51.4656 13.9413 51.8056 15.188 51.9416 16.616C52.055 18.1573 52.1456 19.6193 52.2136 21.002C52.2816 22.362 52.327 23.3367 52.3496 23.926V24.844Z" fill="white"/>
<path d="M70.0278 25.106H63.7718V24.392C63.7264 24.4373 63.6585 24.494 63.5678 24.562C63.4771 24.6527 63.2391 24.766 62.8538 24.902C62.4911 25.038 62.0831 25.106 61.6298 25.106C58.8871 25.0833 56.7338 24.2673 55.1698 22.658C53.6058 21.0713 52.9371 18.748 53.1638 15.688C53.2771 14.0787 53.5718 12.7073 54.0478 11.574C54.5464 10.418 55.1924 9.534 55.9858 8.922C56.7791 8.28733 57.6518 7.834 58.6038 7.562C59.5558 7.26733 60.6438 7.12 61.8678 7.12L64.2138 7.256L64.3158 0.999997H69.7218L70.0278 25.106ZM59.1818 16.096C59.1818 17.4107 59.6011 18.374 60.4398 18.986C61.2784 19.598 62.0604 19.8473 62.7858 19.734C63.5111 19.598 63.9418 19.5753 64.0778 19.666V12.968C64.0098 12.968 63.9191 12.968 63.8058 12.968C63.6924 12.9453 63.4658 12.934 63.1258 12.934C62.7858 12.934 62.4571 12.9567 62.1398 13.002C61.8451 13.0473 61.5051 13.1493 61.1198 13.308C60.7344 13.444 60.4058 13.6253 60.1338 13.852C59.8618 14.056 59.6351 14.3507 59.4538 14.736C59.2724 15.1213 59.1818 15.5747 59.1818 16.096Z" fill="white"/>
<path d="M88.5663 16.772C88.793 19.4693 88.1243 21.5207 86.5603 22.926C84.9963 24.3087 82.8429 25 80.1003 25C79.8283 25 79.5563 24.9773 79.2843 24.932C79.0349 24.8867 78.8309 24.83 78.6723 24.762C78.5363 24.7167 78.4003 24.6713 78.2643 24.626C78.1509 24.558 78.0716 24.5013 78.0263 24.456L77.9583 24.388V25H71.7023L72.0083 3.954H77.4143L77.5503 9.428C78.321 9.36 79.1029 9.31467 79.8963 9.292C81.0976 9.292 82.1743 9.41667 83.1263 9.666C84.0783 9.91533 84.9509 10.312 85.7443 10.856C86.5376 11.4 87.1723 12.1707 87.6483 13.168C88.1469 14.1653 88.4529 15.3667 88.5663 16.772ZM77.6523 20.274C77.7203 20.274 77.8109 20.2853 77.9243 20.308C78.0376 20.308 78.2643 20.308 78.6043 20.308C78.9443 20.308 79.2729 20.2967 79.5903 20.274C79.9076 20.2287 80.2476 20.138 80.6103 20.002C80.9956 19.866 81.3243 19.6847 81.5963 19.458C81.8683 19.2313 82.0949 18.9253 82.2763 18.54C82.4576 18.132 82.5483 17.6673 82.5483 17.146C82.5483 16.6927 82.4576 16.296 82.2763 15.956C82.0949 15.616 81.8569 15.3553 81.5623 15.174C81.2903 14.97 80.9729 14.8113 80.6103 14.698C80.2703 14.562 79.9189 14.4827 79.5563 14.46C79.2163 14.4147 78.8989 14.392 78.6043 14.392C78.3323 14.3693 78.1056 14.3693 77.9243 14.392L77.6523 14.426V20.274Z" fill="white"/>
<path d="M106.12 25.046H99.8636V24.4C99.8182 24.4453 99.7389 24.5133 99.6256 24.604C99.5349 24.672 99.2969 24.7627 98.9116 24.876C98.5489 24.9893 98.1522 25.046 97.7216 25.046C95.0016 25.046 92.8596 24.3207 91.2956 22.87C89.7542 21.3967 89.0742 19.2433 89.2556 16.41C89.3009 15.3447 89.5276 14.3813 89.9356 13.52C90.3436 12.6587 90.8422 11.9673 91.4316 11.446C92.0436 10.9247 92.7009 10.4713 93.4036 10.086C94.1062 9.70067 94.7976 9.42867 95.4776 9.27C96.1802 9.08867 96.8149 8.95266 97.3816 8.862C97.9709 8.77133 98.4356 8.71467 98.7756 8.692H99.3196L100.442 8.76L105.78 8.896L106.12 25.046ZM95.2396 16.92C95.2396 18.0307 95.6589 18.858 96.4976 19.402C97.3363 19.946 98.1182 20.184 98.8436 20.116C99.5916 20.0253 100.034 20.014 100.17 20.082V14.064C100.102 14.064 99.9996 14.064 99.8636 14.064C99.7502 14.064 99.5236 14.0753 99.1836 14.098C98.8436 14.1207 98.5149 14.1547 98.1976 14.2C97.9029 14.2453 97.5629 14.336 97.1776 14.472C96.8149 14.608 96.4976 14.778 96.2256 14.982C95.9536 15.186 95.7156 15.458 95.5116 15.798C95.3302 16.1153 95.2396 16.4893 95.2396 16.92Z" fill="white"/>
<path d="M116.637 7.422C118.723 7.422 120.309 7.81867 121.397 8.612C122.508 9.40533 123.313 10.516 123.811 11.944L117.997 14.188C117.907 13.8933 117.748 13.644 117.521 13.44C117.317 13.236 117.079 13.0887 116.807 12.998C116.558 12.8847 116.286 12.8053 115.991 12.76C115.719 12.7147 115.447 12.7033 115.175 12.726C114.903 12.726 114.654 12.7373 114.427 12.76C114.223 12.76 114.053 12.7827 113.917 12.828L113.713 12.862L114.087 25H107.457L108.069 7.728H113.713V8.136C114.371 7.68267 115.345 7.44467 116.637 7.422Z" fill="white"/>
<path d="M150.891 21.482L146.845 25.46C145.893 25.0293 144.884 24.2247 143.819 23.046C142.799 21.9127 141.949 20.496 141.269 18.796L141.711 25.018H135.387L135.761 2H141.439C142.436 2.04533 143.422 2.19266 144.397 2.442C145.394 2.69133 146.369 3.054 147.321 3.53C148.273 4.006 149.111 4.584 149.837 5.264C150.562 5.92133 151.14 6.74866 151.571 7.746C152.024 8.74333 152.251 9.83133 152.251 11.01C152.251 11.7127 152.126 12.37 151.877 12.982C151.627 13.594 151.299 14.1153 150.891 14.546C150.505 14.9767 150.029 15.3847 149.463 15.77C148.896 16.1327 148.329 16.4273 147.763 16.654C147.219 16.8807 146.618 17.0847 145.961 17.266C146.55 18.286 147.094 19.0113 147.593 19.442C148.069 19.8953 148.579 20.292 149.123 20.632C149.689 20.972 150.131 21.1987 150.449 21.312L150.891 21.482ZM141.337 7.168V13.73C141.45 13.7073 141.597 13.6847 141.779 13.662C141.96 13.6167 142.277 13.5147 142.731 13.356C143.184 13.1747 143.581 12.9707 143.921 12.744C144.283 12.5173 144.612 12.2 144.907 11.792C145.201 11.384 145.349 10.942 145.349 10.466C145.349 10.1033 145.269 9.77466 145.111 9.48C144.975 9.16267 144.782 8.902 144.533 8.698C144.306 8.47133 144.045 8.26733 143.751 8.086C143.479 7.90466 143.195 7.75733 142.901 7.644C142.629 7.53066 142.368 7.44 142.119 7.372C141.892 7.304 141.699 7.25866 141.541 7.236L141.337 7.168ZM141.201 18.014L141.235 18.184L141.643 18.014H141.201Z" fill="white"/>
<path d="M161.612 7C162.836 7 163.913 7.204 164.842 7.612C165.794 7.99733 166.52 8.50733 167.018 9.142C167.54 9.754 167.97 10.4453 168.31 11.216C168.673 11.964 168.9 12.712 168.99 13.46C169.081 14.208 169.138 14.8993 169.16 15.534C169.206 16.1687 169.206 16.6787 169.16 17.064L169.092 17.642H159.13C159.856 18.7073 161.306 19.3193 163.482 19.478C163.822 19.5007 164.196 19.5007 164.604 19.478C165.012 19.4327 165.375 19.376 165.692 19.308C166.032 19.24 166.338 19.172 166.61 19.104C166.905 19.036 167.12 18.9793 167.256 18.934L167.494 18.866L167.8 24.51C167.642 24.5553 167.415 24.6007 167.12 24.646C166.826 24.6913 166.191 24.7367 165.216 24.782C164.242 24.8273 163.21 24.8273 162.122 24.782C155.934 24.5327 152.829 21.6993 152.806 16.282C152.806 15.126 152.976 14.0153 153.316 12.95C153.656 11.8847 154.166 10.8987 154.846 9.992C155.526 9.08533 156.444 8.37133 157.6 7.85C158.779 7.306 160.116 7.02266 161.612 7ZM159.028 14.548L163.38 14.412C163.38 14.344 163.38 14.2647 163.38 14.174C163.38 14.0833 163.335 13.9247 163.244 13.698C163.176 13.4487 163.074 13.2333 162.938 13.052C162.825 12.8707 162.621 12.712 162.326 12.576C162.054 12.44 161.726 12.3833 161.34 12.406C161.046 12.406 160.762 12.4513 160.49 12.542C160.241 12.6327 160.037 12.746 159.878 12.882C159.742 12.9953 159.606 13.1313 159.47 13.29C159.357 13.4487 159.278 13.6073 159.232 13.766C159.187 13.902 159.142 14.0267 159.096 14.14C159.074 14.2533 159.062 14.3553 159.062 14.446L159.028 14.548Z" fill="white"/>
<path d="M190.65 7L197.008 8.462L192.486 24.748L184.564 24.782L183.204 20.906L181.844 24.782L173.922 24.748L169.4 8.462L175.758 7L178.58 19.342L179.974 9.72H186.434L187.964 19.342L190.65 7Z" fill="white"/>
<path d="M214.129 24.854H207.873V24.208C207.828 24.2533 207.749 24.3213 207.635 24.412C207.545 24.48 207.307 24.5707 206.921 24.684C206.559 24.7973 206.162 24.854 205.731 24.854C203.011 24.854 200.869 24.1287 199.305 22.678C197.764 21.2047 197.084 19.0513 197.265 16.218C197.311 15.1527 197.537 14.1893 197.945 13.328C198.353 12.4667 198.852 11.7753 199.441 11.254C200.053 10.7327 200.711 10.2793 201.413 9.894C202.116 9.50867 202.807 9.23667 203.487 9.078C204.19 8.89666 204.825 8.76066 205.391 8.67C205.981 8.57933 206.445 8.52267 206.785 8.5H207.329L208.451 8.568L213.789 8.704L214.129 24.854ZM203.249 16.728C203.249 17.8387 203.669 18.666 204.507 19.21C205.346 19.754 206.128 19.992 206.853 19.924C207.601 19.8333 208.043 19.822 208.179 19.89V13.872C208.111 13.872 208.009 13.872 207.873 13.872C207.76 13.872 207.533 13.8833 207.193 13.906C206.853 13.9287 206.525 13.9627 206.207 14.008C205.913 14.0533 205.573 14.144 205.187 14.28C204.825 14.416 204.507 14.586 204.235 14.79C203.963 14.994 203.725 15.266 203.521 15.606C203.34 15.9233 203.249 16.2973 203.249 16.728Z" fill="white"/>
<path d="M224.647 7.422C226.732 7.422 228.319 7.81867 229.407 8.612C230.518 9.40533 231.322 10.516 231.821 11.944L226.007 14.188C225.916 13.8933 225.758 13.644 225.531 13.44C225.327 13.236 225.089 13.0887 224.817 12.998C224.568 12.8847 224.296 12.8053 224.001 12.76C223.729 12.7147 223.457 12.7033 223.185 12.726C222.913 12.726 222.664 12.7373 222.437 12.76C222.233 12.76 222.063 12.7827 221.927 12.828L221.723 12.862L222.097 25H215.467L216.079 7.728H221.723V8.136C222.38 7.68267 223.355 7.44467 224.647 7.422Z" fill="white"/>
<path d="M248.793 25H242.537V24.286C242.492 24.3313 242.424 24.388 242.333 24.456C242.243 24.5467 242.005 24.66 241.619 24.796C241.257 24.932 240.849 25 240.395 25C237.653 24.9773 235.499 24.1613 233.935 22.552C232.371 20.9653 231.703 18.642 231.929 15.582C232.043 13.9727 232.337 12.6013 232.813 11.468C233.312 10.312 233.958 9.428 234.751 8.816C235.545 8.18133 236.417 7.728 237.369 7.456C238.321 7.16133 239.409 7.014 240.633 7.014L242.979 7.15L243.081 0.893999H248.487L248.793 25ZM237.947 15.99C237.947 17.3047 238.367 18.268 239.205 18.88C240.044 19.492 240.826 19.7413 241.551 19.628C242.277 19.492 242.707 19.4693 242.843 19.56V12.862C242.775 12.862 242.685 12.862 242.571 12.862C242.458 12.8393 242.231 12.828 241.891 12.828C241.551 12.828 241.223 12.8507 240.905 12.896C240.611 12.9413 240.271 13.0433 239.885 13.202C239.5 13.338 239.171 13.5193 238.899 13.746C238.627 13.95 238.401 14.2447 238.219 14.63C238.038 15.0153 237.947 15.4687 237.947 15.99Z" fill="white"/>
<path d="M257.234 12.93C257.211 13.0433 257.506 13.236 258.118 13.508C258.73 13.7573 259.467 14.086 260.328 14.494C261.212 14.8793 262.085 15.3327 262.946 15.854C263.807 16.3527 264.521 17.01 265.088 17.826C265.677 18.6193 265.949 19.4693 265.904 20.376C265.859 21.0107 265.711 21.5773 265.462 22.076C265.213 22.5747 264.929 22.9827 264.612 23.3C264.295 23.6173 263.875 23.9007 263.354 24.15C262.833 24.3767 262.368 24.5467 261.96 24.66C261.575 24.7507 261.087 24.83 260.498 24.898C259.909 24.9433 259.467 24.9773 259.172 25C258.877 25 258.503 25 258.05 25C256.305 25 254.741 24.932 253.358 24.796C251.975 24.6373 251.035 24.49 250.536 24.354L249.754 24.116L250.706 18.948C250.797 18.9707 250.899 19.0047 251.012 19.05C251.148 19.0727 251.409 19.1407 251.794 19.254C252.202 19.3447 252.599 19.4467 252.984 19.56C253.392 19.6507 253.857 19.7527 254.378 19.866C254.922 19.9793 255.432 20.0813 255.908 20.172C256.384 20.2627 256.871 20.342 257.37 20.41C257.869 20.4553 258.299 20.4893 258.662 20.512C259.025 20.512 259.342 20.4893 259.614 20.444C259.909 20.376 260.101 20.274 260.192 20.138C260.26 20.0247 260.181 19.8887 259.954 19.73C259.75 19.5713 259.421 19.4013 258.968 19.22C258.515 19.016 258.027 18.8007 257.506 18.574C257.007 18.3473 256.441 18.0753 255.806 17.758C255.171 17.418 254.605 17.078 254.106 16.738C252.179 15.3327 251.386 13.576 251.726 11.468C251.907 10.2667 252.553 9.28067 253.664 8.51C254.797 7.71667 256.191 7.26334 257.846 7.15C258.866 7.082 259.886 7.116 260.906 7.252C261.949 7.388 262.731 7.54667 263.252 7.728L264.034 7.966L262.47 12.964C262.47 12.964 261.688 12.794 260.124 12.454C258.288 12.1593 257.325 12.318 257.234 12.93Z" fill="white"/>
</svg>
