<svg width="16" height="16" viewBox="0 0 16 16" fill="none" xmlns="http://www.w3.org/2000/svg">
    <path
        d="M8.5594 8.5566L14.3496 6.93941C14.4631 6.90464 14.5627 6.83485 14.6341 6.74004C14.7056 6.64523 14.7452 6.53026 14.7473 6.41157C14.7494 6.29289 14.7139 6.17659 14.6459 6.0793C14.5779 5.98202 14.4808 5.90874 14.3686 5.86996L1.99362 1.27996C1.89435 1.24619 1.78762 1.24085 1.68547 1.26453C1.58332 1.28821 1.48983 1.33997 1.41554 1.41397C1.34125 1.48797 1.28912 1.58126 1.26504 1.68331C1.24095 1.78536 1.24588 1.89212 1.27925 1.99152L5.86925 14.3665C5.90803 14.4787 5.98131 14.5758 6.07859 14.6438C6.17588 14.7118 6.29218 14.7473 6.41086 14.7452C6.52955 14.7431 6.64452 14.7035 6.73933 14.632C6.83414 14.5606 6.90393 14.461 6.9387 14.3475L8.5594 8.5566Z"
        stroke="#0B1215" stroke-width="1.5" stroke-linecap="round" stroke-linejoin="round" />
</svg>