<svg width="138" height="127" viewBox="0 0 138 127" fill="none" xmlns="http://www.w3.org/2000/svg">
<path fillRule="evenodd" clip-rule="evenodd" d="M104.382 51.3936C114.52 51.3936 122.737 43.1758 122.737 33.0387C122.737 22.9016 114.52 14.6839 104.382 14.6839C94.2454 14.6839 86.0276 22.9016 86.0276 33.0387C86.0276 43.1758 94.2454 51.3936 104.382 51.3936ZM104.382 66.0775C122.629 66.0775 137.421 51.2855 137.421 33.0387C137.421 14.7919 122.629 0 104.382 0C86.1357 0 71.3438 14.7919 71.3438 33.0387C71.3438 51.2855 86.1357 66.0775 104.382 66.0775Z" fill="#36C7D5"/>
<path fillRule="evenodd" clip-rule="evenodd" d="M104.382 51.3936C114.52 51.3936 122.737 43.1758 122.737 33.0387C122.737 22.9016 114.52 14.6839 104.382 14.6839C94.2454 14.6839 86.0276 22.9016 86.0276 33.0387C86.0276 43.1758 94.2454 51.3936 104.382 51.3936ZM104.382 66.0775C122.629 66.0775 137.421 51.2855 137.421 33.0387C137.421 14.7919 122.629 0 104.382 0C86.1357 0 71.3438 14.7919 71.3438 33.0387C71.3438 51.2855 86.1357 66.0775 104.382 66.0775Z" fill="#36C7D5"/>
<path fillRule="evenodd" clip-rule="evenodd" d="M104.382 51.3936C114.52 51.3936 122.737 43.1758 122.737 33.0387C122.737 22.9016 114.52 14.6839 104.382 14.6839C94.2454 14.6839 86.0276 22.9016 86.0276 33.0387C86.0276 43.1758 94.2454 51.3936 104.382 51.3936ZM104.382 66.0775C122.629 66.0775 137.421 51.2855 137.421 33.0387C137.421 14.7919 122.629 0 104.382 0C86.1357 0 71.3438 14.7919 71.3438 33.0387C71.3438 51.2855 86.1357 66.0775 104.382 66.0775Z" fill="#36C7D5"/>
<path fillRule="evenodd" clip-rule="evenodd" d="M29.8688 51.4328C37.9569 51.4328 44.5136 44.8761 44.5136 36.7879C44.5136 28.6998 37.9569 22.1431 29.8688 22.1431C21.7806 22.1431 15.2239 28.6998 15.2239 36.7879C15.2239 44.8761 21.7806 51.4328 29.8688 51.4328ZM29.8688 66.0776C46.045 66.0776 59.1584 52.9642 59.1584 36.7879C59.1584 20.6117 46.045 7.49829 29.8688 7.49829C13.6925 7.49829 0.579102 20.6117 0.579102 36.7879C0.579102 52.9642 13.6925 66.0776 29.8688 66.0776Z" fill="#36C7D5"/>
<path fillRule="evenodd" clip-rule="evenodd" d="M29.8688 51.4328C37.9569 51.4328 44.5136 44.8761 44.5136 36.7879C44.5136 28.6998 37.9569 22.1431 29.8688 22.1431C21.7806 22.1431 15.2239 28.6998 15.2239 36.7879C15.2239 44.8761 21.7806 51.4328 29.8688 51.4328ZM29.8688 66.0776C46.045 66.0776 59.1584 52.9642 59.1584 36.7879C59.1584 20.6117 46.045 7.49829 29.8688 7.49829C13.6925 7.49829 0.579102 20.6117 0.579102 36.7879C0.579102 52.9642 13.6925 66.0776 29.8688 66.0776Z" fill="#36C7D5"/>
<path fillRule="evenodd" clip-rule="evenodd" d="M29.8688 51.4328C37.9569 51.4328 44.5136 44.8761 44.5136 36.7879C44.5136 28.6998 37.9569 22.1431 29.8688 22.1431C21.7806 22.1431 15.2239 28.6998 15.2239 36.7879C15.2239 44.8761 21.7806 51.4328 29.8688 51.4328ZM29.8688 66.0776C46.045 66.0776 59.1584 52.9642 59.1584 36.7879C59.1584 20.6117 46.045 7.49829 29.8688 7.49829C13.6925 7.49829 0.579102 20.6117 0.579102 36.7879C0.579102 52.9642 13.6925 66.0776 29.8688 66.0776Z" fill="#36C7D5"/>
<path fillRule="evenodd" clip-rule="evenodd" d="M66.4225 112.355C74.5106 112.355 81.0673 105.798 81.0673 97.7103C81.0673 89.6222 74.5106 83.0655 66.4225 83.0655C58.3344 83.0655 51.7776 89.6222 51.7776 97.7103C51.7776 105.798 58.3344 112.355 66.4225 112.355ZM66.4225 127C82.5987 127 95.7121 113.887 95.7121 97.7103C95.7121 81.5341 82.5987 68.4207 66.4225 68.4207C50.2462 68.4207 37.1328 81.5341 37.1328 97.7103C37.1328 113.887 50.2462 127 66.4225 127Z" fill="#36C7D5"/>
<path fillRule="evenodd" clip-rule="evenodd" d="M66.4225 112.355C74.5106 112.355 81.0673 105.798 81.0673 97.7103C81.0673 89.6222 74.5106 83.0655 66.4225 83.0655C58.3344 83.0655 51.7776 89.6222 51.7776 97.7103C51.7776 105.798 58.3344 112.355 66.4225 112.355ZM66.4225 127C82.5987 127 95.7121 113.887 95.7121 97.7103C95.7121 81.5341 82.5987 68.4207 66.4225 68.4207C50.2462 68.4207 37.1328 81.5341 37.1328 97.7103C37.1328 113.887 50.2462 127 66.4225 127Z" fill="#36C7D5"/>
<path fillRule="evenodd" clip-rule="evenodd" d="M66.4225 112.355C74.5106 112.355 81.0673 105.798 81.0673 97.7103C81.0673 89.6222 74.5106 83.0655 66.4225 83.0655C58.3344 83.0655 51.7776 89.6222 51.7776 97.7103C51.7776 105.798 58.3344 112.355 66.4225 112.355ZM66.4225 127C82.5987 127 95.7121 113.887 95.7121 97.7103C95.7121 81.5341 82.5987 68.4207 66.4225 68.4207C50.2462 68.4207 37.1328 81.5341 37.1328 97.7103C37.1328 113.887 50.2462 127 66.4225 127Z" fill="#36C7D5"/>
</svg>
